<svg enable-background="new 0 0 230 230" viewBox="0 0 230 230" xmlns="http://www.w3.org/2000/svg"><path d="m81.16 100.95c4.55 0 8.45 1.62 11.7 4.88 3.25 3.25 4.88 7.15 4.88 11.7s-1.62 8.45-4.88 11.7c-3.25 3.25-7.15 4.88-11.7 4.88s-8.45-1.62-11.7-4.88c-3.25-3.25-4.88-7.15-4.88-11.7s1.63-8.45 4.88-11.7c3.24-3.25 7.15-4.88 11.7-4.88m0 43.57c7.37 0 13.71-2.66 19.02-7.96 5.31-5.31 7.96-11.65 7.96-19.02s-2.65-13.71-7.96-19.02-11.7-7.96-19.18-7.96-13.82 2.66-19.02 7.96c-5.2 5.31-7.8 11.65-7.8 19.02s2.6 13.71 7.8 19.02c5.2 5.3 11.59 7.96 19.18 7.96m-12.68 34.13v-15.28l-3.25-1.3c-5.64-1.95-10.62-4.88-14.95-8.78l-2.93-2.28-13.33 7.8c-5.64-6.28-9.75-13.33-12.35-21.13l13.33-7.8-.65-3.58c-1.09-5.85-1.09-11.7 0-17.56l.65-3.58-13.34-7.46c2.6-8.02 6.72-15.17 12.35-21.46l13.33 7.8 2.93-2.28c4.33-3.9 9.32-6.83 14.95-8.78l3.25-1.3v-15.26c8.24-1.73 16.47-1.73 24.71 0v15.28l3.25 1.3c5.64 1.95 10.62 4.88 14.96 8.78l2.93 2.28 13.33-7.8c7.15 8.02 11.7 15.06 13.65 21.13l-13.33 7.8.65 3.58c1.08 5.85 1.08 11.6 0 17.23l-.65 3.9 13.33 7.8c-1.95 6.07-6.5 13.11-13.65 21.13l-13.33-7.8-2.93 2.28c-4.33 3.9-9.32 6.83-14.96 8.78l-3.25.98v15.6c-8.23 1.72-16.46 1.72-24.7-.02m-10.4 1.95c0 1.95.6 3.63 1.79 5.04s2.65 2.33 4.39 2.76c6.07 1.3 11.6 1.95 16.58 1.95s10.51-.65 16.58-1.95c1.73-.43 3.2-1.35 4.39-2.76s1.79-2.98 1.79-4.72v-10.4c4.12-1.95 8.02-4.23 11.7-6.83l8.78 5.2c1.73.87 3.47 1.14 5.2.81s3.25-1.14 4.55-2.44c10.4-11.05 16.47-20.7 18.21-28.93.43-1.52.32-3.03-.33-4.55s-1.73-2.71-3.25-3.58l-9.1-5.85c.65-4.55.65-9.1 0-13.65l8.13-5.2c1.52-.87 2.6-2.17 3.25-3.9s.65-3.47 0-5.2c-1.73-5.42-3.9-10.35-6.5-14.79s-6.07-9.05-10.4-13.82c-1.08-1.3-2.55-2.11-4.39-2.44-1.84-.32-3.63-.05-5.36.81l-8.78 5.2c-3.69-2.82-7.59-5.09-11.7-6.83v-10.07c0-1.95-.6-3.63-1.79-5.04s-2.65-2.33-4.39-2.76c-6.28-1.3-11.92-1.95-16.91-1.95-4.98 0-10.4.65-16.25 1.95-1.73.43-3.2 1.35-4.39 2.76s-1.79 3.09-1.79 5.04v10.08c-4.33 1.95-8.24 4.23-11.7 6.83l-9.1-5.2c-1.52-.87-3.2-1.14-5.04-.81s-3.3 1.14-4.39 2.44c-4.12 4.33-7.42 8.67-9.91 13s-4.72 9.54-6.66 15.61c-.43 1.73-.33 3.47.32 5.2s1.73 3.03 3.25 3.9l8.78 5.2c-.43 4.55-.43 9.1 0 13.65l-8.78 5.2c-1.52.87-2.6 2.17-3.25 3.9s-.76 3.47-.32 5.2c1.95 6.07 4.17 11.27 6.66 15.6s5.8 8.67 9.91 13c1.09 1.3 2.55 2.11 4.39 2.44 1.84.32 3.52.05 5.04-.81l9.1-5.2c3.69 2.82 7.59 5.09 11.7 6.83v10.08z" fill="#231f20"/><path d="m158.43 77.59c-4.1-5.27-5.34-10.61-3.73-16.02s5.12-9 10.53-10.75c5.41-1.76 10.75-.59 16.02 3.51 4.1 5.56 5.34 10.97 3.73 16.24s-5.12 8.78-10.53 10.53c-5.41 1.76-10.75.59-16.02-3.51m4.39 25.89c4.68.88 9.36.88 14.04 0l3.51 6.14c.59 1.17 1.54 1.98 2.85 2.41 1.32.44 2.56.51 3.73.22 5.27-2.05 9.95-4.83 14.05-8.34 1.17-.88 1.83-1.97 1.97-3.29.15-1.32-.07-2.56-.66-3.73l-3.51-6.14c2.93-3.51 5.26-7.46 7.02-11.85h7.02c1.46 0 2.71-.44 3.73-1.32s1.54-2.05 1.54-3.51c1.17-5.27 1.17-10.68 0-16.24 0-1.17-.51-2.19-1.54-3.07-1.02-.88-2.27-1.32-3.73-1.32h-7.02c-1.76-4.39-4.1-8.48-7.02-12.29l3.51-6.14c.59-1.17.8-2.41.66-3.73-.15-1.32-.8-2.41-1.97-3.29-4.1-3.51-8.78-6.14-14.05-7.9-1.17-.59-2.41-.66-3.73-.22s-2.27 1.24-2.85 2.41l-3.51 6.59c-4.68-.88-9.36-1.03-14.04-.44l-3.51-6.14c-.59-1.17-1.54-1.97-2.85-2.41-1.32-.44-2.56-.37-3.73.22-5.27 1.76-9.95 4.39-14.04 7.9-1.17.88-1.83 1.98-1.98 3.29-.15 1.32.07 2.56.66 3.73l3.51 6.14c-2.93 3.8-5.27 7.9-7.02 12.29h-7.02c-1.46 0-2.71.44-3.73 1.32s-1.68 1.9-1.98 3.07c-.88 5.56-.73 10.97.44 16.24 0 1.46.51 2.63 1.54 3.51 1.02.88 2.27 1.32 3.73 1.32h7.02c1.76 4.39 4.1 8.34 7.02 11.85l-3.51 6.14c-.59 1.17-.8 2.41-.66 3.73.15 1.32.8 2.42 1.98 3.29 4.1 3.51 8.78 6.29 14.04 8.34 1.17.29 2.41.22 3.73-.22s2.27-1.24 2.85-2.41z" fill="#0e7178"/><path d="m162.75 188.8c-2.54-3.26-3.31-6.58-2.31-9.93 1-3.36 3.17-5.58 6.53-6.67s6.67-.36 8.3.91c0 0 1.63 1.27 2.9 2.99s2.04 5.08 1.04 8.35-3.17 5.44-6.53 6.53-6.67.36-9.93-2.18m2.72 16.06c2.9.54 5.8.54 8.71 0l2.18 3.81c.36.73.95 1.22 1.77 1.5.82.27 1.59.32 2.31.14 3.27-1.27 6.17-2.99 8.71-5.17.72-.55 1.13-1.22 1.22-2.04s-.05-1.59-.41-2.31l-2.18-3.81c1.81-2.18 3.26-4.63 4.35-7.35h4.35c.91 0 1.68-.27 2.31-.82.64-.54.95-1.27.95-2.18.73-3.27.73-6.62 0-10.07 0-.72-.32-1.36-.95-1.91-.64-.54-1.41-.81-2.31-.81h-4.35c-1.09-2.72-2.54-5.26-4.35-7.62l2.18-3.81c.36-.72.5-1.5.41-2.31-.09-.82-.5-1.5-1.22-2.04-2.54-2.18-5.44-3.81-8.71-4.9-.72-.36-1.5-.41-2.31-.14-.82.27-1.41.77-1.77 1.5l-2.18 4.08c-2.9-.54-5.8-.64-8.71-.27l-2.18-3.81c-.36-.72-.95-1.22-1.77-1.5-.82-.27-1.59-.23-2.31.14-3.27 1.09-6.17 2.72-8.71 4.9-.72.54-1.13 1.22-1.22 2.04-.09.81.05 1.59.41 2.31l2.18 3.81c-1.81 2.36-3.27 4.9-4.35 7.62h-4.35c-.91 0-1.68.27-2.31.81-.64.55-1.04 1.18-1.22 1.91-.54 3.45-.45 6.8.27 10.07 0 .91.32 1.63.95 2.18.64.55 1.41.82 2.31.82h4.35c1.09 2.72 2.54 5.17 4.35 7.35l-2.18 3.81c-.36.73-.5 1.5-.41 2.31.09.82.5 1.5 1.22 2.04 2.54 2.18 5.44 3.9 8.71 5.17.72.18 1.5.14 2.31-.14.81-.27 1.41-.77 1.77-1.5z" fill="#52c5b4"/></svg>