<?xml version="1.0" encoding="utf-8"?>
<!-- Generator: Adobe Illustrator 16.0.3, SVG Export Plug-In . SVG Version: 6.00 Build 0)  -->
<!DOCTYPE svg PUBLIC "-//W3C//DTD SVG 1.1//EN" "http://www.w3.org/Graphics/SVG/1.1/DTD/svg11.dtd">
<svg version="1.1" id="Layer_1" xmlns="http://www.w3.org/2000/svg" xmlns:xlink="http://www.w3.org/1999/xlink" x="0px" y="0px"
	 width="512px" height="477.894px" viewBox="0 0 512 477.894" enable-background="new 0 0 512 477.894" xml:space="preserve">
<path fill-rule="evenodd" clip-rule="evenodd" fill="#225F70" d="M0,208.933c1-8.741,1.327-17.628,3.17-26.188
	c2.262-10.499,5.285-20.913,9.013-30.98c1.575-4.254,5.299-8.125,8.919-11.11c5.347-4.407,11.264-4.815,18.106-1.656
	c13.846,6.393,27.823,12.832,42.336,17.359c16.747,5.224,33.946,3.242,50.738-1.543c1.581-0.45,3.164-0.893,5.502-1.553
	c-3.951,31.03,2.404,59.271,20.001,85.116c-6.81,1.053-13.189,1.7-19.411,3.064c-19.158,4.201-35.026,14.063-48.287,28.438
	c-1.542,1.672-4.421,3.001-6.672,2.987c-14.977-0.091-30.058,0.386-44.897-1.235c-14.349-1.567-26.799-8.15-34.091-21.597
	c-2.026-3.736-2.982-8.053-4.43-12.103C0,228.266,0,218.6,0,208.933z"/>
<path fill-rule="evenodd" clip-rule="evenodd" fill="#225F70" d="M512,237.933c-8.443,24.028-23.279,34.621-49.313,34.995
	c-11.652,0.168-23.312,0.146-34.964-0.025c-1.731-0.025-3.968-0.886-5.087-2.145c-17.626-19.83-39.744-30.165-66.1-31.761
	c-0.602-0.036-1.193-0.217-2.416-0.448c17.596-25.868,24.087-54.068,20.096-84.933c6.916,1.516,13.305,3.161,19.784,4.288
	c22.204,3.865,42.928-1.396,62.915-10.689c5.123-2.382,10.15-4.977,15.16-7.593c8.51-4.446,15.199-3.446,21.965,3.581
	c6.576,6.83,10.021,15.4,11.789,24.399c2.271,11.556,3.52,23.313,5.213,34.981c0.308,2.118,0.638,4.232,0.957,6.349
	C512,218.6,512,228.266,512,237.933z"/>
<path fill-rule="evenodd" clip-rule="evenodd" fill="#B9A36A" d="M255.718,477.894c-38.65-0.001-77.3,0.051-115.95-0.027
	c-15.585-0.031-30.458-2.99-43.633-11.928c-18.424-12.496-26.929-30.479-27.596-52.175c-1.009-32.85,2.399-65.249,13.61-96.342
	c6.921-19.193,16.967-36.594,34.362-48.516c12.737-8.729,27.052-12.625,42.37-12.773c2.485-0.024,5.244,1.044,7.43,2.353
	c7.137,4.272,14.016,8.972,21.085,13.361c45.762,28.42,91.543,28.385,137.283-0.057c4.664-2.9,9.505-5.639,13.723-9.109
	c8.869-7.301,18.664-7.348,29.202-5.259c27.358,5.423,44.753,22.64,56.613,46.78c10.591,21.557,15.342,44.679,17.526,68.265
	c1.439,15.527,2.1,31.311,1.063,46.843c-2.06,30.857-25.911,54.409-56.701,57.556c-6.281,0.642-12.621,0.971-18.935,0.985
	C330.02,477.94,292.868,477.895,255.718,477.894z"/>
<path fill-rule="evenodd" clip-rule="evenodd" fill="#B9A36A" d="M358.267,170.882c-0.245,57.371-45.57,102.412-102.741,102.097
	c-57.063-0.313-102.061-45.637-101.798-102.535c0.263-57.063,45.372-102.16,102.241-102.217
	C312.939,68.17,358.51,113.9,358.267,170.882z"/>
<path fill-rule="evenodd" clip-rule="evenodd" fill="#225F70" d="M102.991,136.587c-36.345,1.099-67.849-29.439-68.849-66.737
	C33.139,32.408,62.85,1.062,100.316,0.032c38.522-1.058,69.794,28.731,70.391,67.634
	C171.281,105.122,140.893,136.244,102.991,136.587z"/>
<path fill-rule="evenodd" clip-rule="evenodd" fill="#225F70" d="M410.337,136.515c-37.113,0.949-68.185-29.443-69.033-67.524
	c-0.821-36.853,29.31-68.072,66.563-68.97c37.879-0.912,68.936,28.592,70,66.501C478.934,104.556,449.055,135.525,410.337,136.515z"
	/>
</svg>
