<svg enable-background="new 0 0 230 230" viewBox="0 0 230 230" xmlns="http://www.w3.org/2000/svg"><path d="m83.95 138.69v-4.13c0-3.48-1.47-6.45-4.4-8.91s-6.5-3.69-10.71-3.69h-1.13c-2.86 1.16-5.86 1.74-9.02 1.74s-6.16-.58-9.02-1.74h-1.13c-4.21 0-7.78 1.23-10.71 3.69s-4.4 5.43-4.4 8.91v4.13c0 1.16.49 2.14 1.47 2.93.98.8 2.14 1.2 3.49 1.2h40.59c1.35 0 2.52-.4 3.5-1.2.98-.79 1.47-1.77 1.47-2.93m-25.26-51.51c-3.91 0-7.29 1.38-10.15 4.13s-4.28 6.01-4.28 9.78 1.43 7.03 4.28 9.78c2.86 2.75 6.24 4.13 10.15 4.13s7.29-1.38 10.15-4.13 4.29-6.01 4.29-9.78-1.43-7.03-4.29-9.78c-2.86-2.76-6.24-4.13-10.15-4.13m90.21 66.07c0 2.9-1.05 5.36-3.16 7.39-2.1 2.03-4.66 3.04-7.67 3.04h-108.24c-3.01 0-5.56-1.01-7.67-3.04-2.1-2.03-3.16-4.49-3.16-7.39v-76.51c0-2.9 1.05-5.36 3.16-7.39s4.66-3.04 7.67-3.04h108.25c3.01 0 5.56 1.01 7.67 3.04s3.16 4.49 3.16 7.39" fill="#00a5b2"/><path d="m104.37 120.76v-10.6c0-1.41.45-2.58 1.36-3.48.91-.91 2.07-1.36 3.48-1.36h87.24c1.41 0 2.57.45 3.48 1.36s1.36 2.07 1.36 3.48v9.69l-5.45 4.24c-6.26 5.05-16.05 12.32-29.38 21.81l-2.42 2.12c-2.42 1.82-4.24 3.03-5.45 3.63-2.22 1.41-4.14 2.12-5.76 2.12-2.02 0-5.15-1.41-9.39-4.24-2.02-1.41-3.43-2.22-4.24-2.42-13.33-9.69-23.12-17.06-29.38-22.11-2.22-1.62-4.03-3.03-5.45-4.24m0 57.25v-45.44l2.72 1.82c7.27 5.65 16.05 12.12 26.35 19.39l1.51 1.21c3.23 2.42 5.86 4.24 7.88 5.45 3.63 2.02 6.97 3.03 10 3.03s6.36-1.01 10-3.03c2.02-1.21 4.65-3.03 7.88-5.45l1.51-1.21c10.3-7.27 19.08-13.73 26.35-19.39l2.73-1.82v45.44c0 1.41-.45 2.57-1.36 3.48s-2.07 1.36-3.48 1.36h-87.24c-1.41 0-2.57-.45-3.48-1.36s-1.37-2.07-1.37-3.48m4.85-82.4c-4.04 0-7.47 1.41-10.3 4.24s-4.24 6.26-4.24 10.3v67.85c0 4.04 1.41 7.47 4.24 10.3s6.26 4.24 10.3 4.24h87.24c4.04 0 7.47-1.41 10.3-4.24s4.24-6.26 4.24-10.3v-67.85c0-4.04-1.41-7.47-4.24-10.3s-6.26-4.24-10.3-4.24zm72.7-43.62v33.93h9.69v-33.93c0-4.04-1.41-7.47-4.24-10.3s-6.26-4.24-10.3-4.24h-87.24c-4.04 0-7.47 1.41-10.3 4.24s-4.24 6.26-4.24 10.3v4.85h9.69v-4.85c0-1.41.45-2.57 1.36-3.48s2.07-1.36 3.48-1.36h87.24c1.41 0 2.57.45 3.48 1.36.92.91 1.38 2.07 1.38 3.48" fill="#231f20"/></svg>