<svg enable-background="new 0 0 675 105" viewBox="0 0 675 105" xmlns="http://www.w3.org/2000/svg" xmlns:xlink="http://www.w3.org/1999/xlink"><clipPath id="a"><path d="m4.22 2.33h668v100.85h-668z"/></clipPath><clipPath id="b"><path d="m4.22 2.33h668v100.85h-668z"/></clipPath><clipPath id="c"><path d="m-13.76-11.65h703.95v116.83h-703.95z"/></clipPath><g clip-path="url(#a)"><g clip-path="url(#b)"><path clip-path="url(#c)" d="m629.66 65.58c3.51 11.02 13.92 13.49 21.53 13.49 11.32 0 21.03-5.56 21.03-16.38 0-3.5-1.1-11.64-13.22-15.25l-7.71-3.09c-2.6-1.03-4.81-2.27-4.81-4.53 0-2.68 2.9-4.33 5.71-4.33 2.3 0 6.01.82 7.31 5.05l11.52-5.46c-4.81-9.48-12.62-11.12-18.53-11.12-11.01 0-20.13 5.56-20.13 16.17 0 2.37.6 10.71 12.82 15.14l9.01 3.91c2.8 1.03 3.81 2.27 3.81 4.02 0 2.68-3.41 4.02-6.71 4.02-4.11 0-9.31-1.85-10.82-7.93zm-8.92-40.48h-14.92v7.21c-3.51-4.84-9.51-8.34-16.42-8.34-16.02 0-24.73 12.46-24.73 27.3 0 15.45 9.41 27.81 25.03 27.81 7.51 0 12.42-3.4 16.12-8.86v5.77c0 11.54-8.21 13.91-15.92 13.91-5.71 0-12.42-3.3-15.42-5.97l-5.91 11.95c5.21 4.33 12.92 7.31 24.33 7.31 14.62 0 27.84-8.14 27.84-28.94zm-41.15 26.27c0-8.14 4.61-14.94 12.82-14.94 8.11 0 13.82 5.97 13.82 15.76 0 9.58-6.11 14.42-13.42 14.42-8.21 0-13.22-6.8-13.22-15.24m-73.3 26.57h14.92v-28.33c0-7.31 2.9-12.98 9.81-12.98s9.51 5.56 9.51 12.88v28.43h14.92v-28.74c0-13.39-3.9-25.24-18.32-25.24-6.21 0-11.62 2.16-15.92 8.34v-7.2h-14.92zm-29.74-66.85c0 5.05 4.01 8.55 9.41 8.55 5.31 0 9.51-3.5 9.51-8.55 0-5.15-4.2-8.75-9.51-8.75-5.4-.01-9.41 3.6-9.41 8.75m16.72 14.01h-14.92v52.84h14.92zm-66.09 76.95v-31.32c3.51 4.84 9.51 8.35 16.42 8.35 16.02 0 24.73-12.47 24.73-27.3 0-15.45-9.41-27.81-25.03-27.81-7.51 0-12.42 3.4-16.12 8.86v-7.73h-14.92v76.95zm26.24-50.37c0 8.14-4.61 14.93-12.82 14.93-8.11 0-13.82-5.97-13.82-15.76 0-9.58 6.11-14.42 13.42-14.42 8.21 0 13.22 6.8 13.22 15.25m-54.07-26.58h-14.92v28.33c0 7.31-2.9 12.98-9.81 12.98s-9.51-5.56-9.51-12.88v-28.43h-14.92v28.74c0 13.39 3.9 25.24 18.33 25.24 6.21 0 11.62-2.16 15.92-8.35v7.21h14.92v-52.84zm-100.14 26.37c0-8.24 6.41-14.32 13.72-14.32 7.41 0 13.72 6.18 13.72 14.32 0 8.24-6.31 14.42-13.72 14.42-7.31 0-13.72-6.08-13.72-14.42m-14.52 0c0 16.58 13.32 27.61 28.24 27.61 15.02 0 28.24-11.13 28.24-27.61 0-16.38-13.22-27.5-28.24-27.5-14.92-.01-28.24 11.02-28.24 27.5m-21.83-26.37h-14.52v52.84h14.92v-28.74c0-7 5.61-10.4 11.22-10.4 1.5 0 4.21.21 6.31.72v-15.14c-1.6-.31-2.1-.41-3.81-.41-4.51 0-12.42 3.09-14.12 12.67zm-90.52 16.79c0 20.4 15.72 37.19 37.25 37.19 6.41 0 16.92-1.44 27.34-11.02v-29.37h-32.24v12.77h17.72v10.3c-3.71 1.85-8.61 2.68-12.92 2.68-12.72 0-21.63-9.37-21.63-22.35 0-10.4 5.81-22.76 22.83-22.76 6.91-.1 13.22 3.61 17.02 6.49l7.71-11.85c-7.21-5.56-14.62-9.27-25.24-9.27-23.42 0-37.84 17.1-37.84 37.19m-36.65 36.05v-72.11h-15.52v31.32h-26.63v-31.32h-15.53v72.11h15.52v-28.12h26.64v28.12zm-89.02-72.11v44.81c0 9.99-6.31 15.04-13.52 15.04s-13.42-5.05-13.42-15.04v-44.81h-15.51v44.81c0 18.54 13.22 28.43 28.94 28.43s29.04-9.88 29.04-28.43v-44.81z" fill="#004e59"/></g></g></svg>