<?xml version="1.0" encoding="utf-8"?>
<!-- Generator: Adobe Illustrator 23.0.2, SVG Export Plug-In . SVG Version: 6.00 Build 0)  -->
<svg version="1.1" xmlns="http://www.w3.org/2000/svg" xmlns:xlink="http://www.w3.org/1999/xlink" x="0px" y="0px"
	 viewBox="0 0 517 94" style="enable-background:new 0 0 517 94;" xml:space="preserve">
<style type="text/css">
	.st0{fill:#00A6B2;}
	.st1{fill:#52C4B5;}
	.st2{fill:#005254;}
	.st3{fill:#004252;}
	.st4{fill:#002E38;}
	.st5{fill:#0D7078;}
	.st6{fill:#004E59;}
	.st7{clip-path:url(#SVGID_2_);}
	.st8{clip-path:url(#SVGID_4_);}
	.st9{clip-path:url(#SVGID_6_);fill:#004E59;}
	.st10{clip-path:url(#SVGID_8_);}
	.st11{clip-path:url(#SVGID_10_);}
	.st12{clip-path:url(#SVGID_12_);fill:#004E59;}
	.st13{fill:#231F20;}
	.st14{fill:#0E7178;}
	.st15{fill:#52C5B4;}
	.st16{fill:#00A5B2;}
	.st17{clip-path:url(#SVGID_14_);fill:#FFFFFF;}
	.st18{fill:#FFFFFF;}
	.st19{clip-path:url(#SVGID_16_);fill:#FFFFFF;}
	.st20{clip-path:url(#SVGID_18_);fill:#FFFFFF;}
	.st21{clip-path:url(#SVGID_20_);fill:#FFFFFF;}
	.st22{fill:#F0F8F6;}
	.st23{fill:#424895;}
	.st24{clip-path:url(#SVGID_22_);}
	.st25{clip-path:url(#SVGID_24_);fill:#004E59;}
	.st26{display:none;}
	.st27{display:inline;}
</style>
<g id="Layer_1">
	<g>
		<path class="st6" d="M491.14,58.13c1.97,6.01,7.8,7.36,12.07,7.36c6.35,0,11.79-3.03,11.79-8.93c0-1.91-0.62-6.35-7.41-8.31
			l-4.32-1.68c-1.46-0.56-2.7-1.24-2.7-2.47c0-1.46,1.63-2.36,3.2-2.36c1.29,0,3.37,0.45,4.1,2.75l6.46-2.98
			c-2.7-5.17-7.07-6.06-10.39-6.06c-6.18,0-11.29,3.03-11.29,8.82c0,1.29,0.34,5.84,7.19,8.25l5.05,2.13
			c1.57,0.56,2.13,1.24,2.13,2.19c0,1.46-1.91,2.19-3.76,2.19c-2.3,0-5.22-1.01-6.06-4.32L491.14,58.13z M486.14,36.06h-8.37v3.93
			c-1.97-2.64-5.33-4.55-9.21-4.55c-8.98,0-13.87,6.79-13.87,14.88c0,8.42,5.28,15.16,14.04,15.16c4.21,0,6.96-1.85,9.04-4.83v3.14
			c0,6.29-4.6,7.58-8.93,7.58c-3.2,0-6.96-1.8-8.65-3.26l-3.31,6.51c2.92,2.36,7.24,3.99,13.64,3.99c8.2,0,15.61-4.44,15.61-15.78
			V36.06z M463.06,50.38c0-4.44,2.58-8.14,7.19-8.14c4.55,0,7.75,3.26,7.75,8.59c0,5.22-3.43,7.86-7.52,7.86
			C465.87,58.69,463.06,54.98,463.06,50.38 M421.96,64.86h8.37V49.42c0-3.99,1.63-7.07,5.5-7.07c3.87,0,5.33,3.03,5.33,7.02v15.5
			h8.37V49.2c0-7.3-2.19-13.76-10.28-13.76c-3.48,0-6.51,1.18-8.93,4.55v-3.93h-8.37V64.86z M405.28,28.42
			c0,2.75,2.25,4.66,5.28,4.66c2.98,0,5.33-1.91,5.33-4.66c0-2.81-2.36-4.77-5.33-4.77C407.53,23.65,405.28,25.61,405.28,28.42
			 M414.66,36.06h-8.37v28.81h8.37V36.06z M377.6,78V60.93c1.97,2.64,5.33,4.55,9.21,4.55c8.98,0,13.87-6.79,13.87-14.88
			c0-8.42-5.28-15.16-14.04-15.16c-4.21,0-6.96,1.85-9.04,4.83v-4.21h-8.37V78H377.6z M392.31,50.54c0,4.44-2.58,8.14-7.19,8.14
			c-4.55,0-7.75-3.26-7.75-8.59c0-5.22,3.43-7.86,7.52-7.86C389.51,42.23,392.31,45.94,392.31,50.54 M361.99,36.06h-8.37V51.5
			c0,3.99-1.63,7.07-5.5,7.07c-3.87,0-5.33-3.03-5.33-7.02v-15.5h-8.37v15.67c0,7.3,2.19,13.76,10.28,13.76
			c3.48,0,6.51-1.18,8.93-4.55v3.93h8.37V36.06z M305.84,50.43c0-4.49,3.59-7.8,7.69-7.8c4.16,0,7.69,3.37,7.69,7.8
			c0,4.49-3.54,7.86-7.69,7.86C309.44,58.29,305.84,54.98,305.84,50.43 M297.7,50.43c0,9.04,7.47,15.05,15.83,15.05
			c8.42,0,15.83-6.06,15.83-15.05c0-8.93-7.41-14.99-15.83-14.99C305.17,35.44,297.7,41.45,297.7,50.43 M285.46,36.06h-8.14v28.81
			h8.37V49.2c0-3.82,3.14-5.67,6.29-5.67c0.84,0,2.36,0.11,3.54,0.39v-8.25c-0.9-0.17-1.18-0.22-2.13-0.22
			c-2.53,0-6.96,1.68-7.92,6.91V36.06z M234.7,45.21c0,11.12,8.82,20.27,20.89,20.27c3.59,0,9.49-0.79,15.33-6.01v-16h-18.08v6.96
			h9.94v5.62c-2.08,1.01-4.83,1.46-7.24,1.46c-7.13,0-12.13-5.11-12.13-12.18c0-5.67,3.26-12.41,12.8-12.41
			c3.87-0.06,7.41,1.97,9.55,3.54l4.32-6.46c-4.04-3.03-8.2-5.05-14.15-5.05C242.79,24.94,234.7,34.26,234.7,45.21 M214.15,64.86
			V25.56h-8.7v17.07h-14.94V25.56h-8.7v39.31h8.7V49.53h14.94v15.33H214.15z M164.23,25.56v24.43c0,5.45-3.54,8.2-7.58,8.2
			c-4.04,0-7.52-2.75-7.52-8.2V25.56h-8.7v24.43c0,10.11,7.41,15.5,16.23,15.5s16.28-5.39,16.28-15.5V25.56H164.23z"/>
	</g>
	<g>
		<path class="st0" d="M58.26,1.08c-18.38,0-35.66,8.65-46.74,22.99l0.15,0.2c3.36,4.31,7.28,8.1,11.62,11.29
			c9.99-7.34,22.22-11.5,34.97-11.5c5.06,0,10.2,0.66,15.33,2.03c7.33,1.97,13.97,5.23,19.74,9.47c4.46-3.29,8.4-7.16,11.73-11.48
			l0-0.01c0,0,0,0,0,0C97.42,14.16,86.59,6.59,73.59,3.1C68.46,1.73,63.32,1.08,58.26,1.08"/>
		<path class="st0" d="M116,12.57c-3.99,3.44-7.67,7.27-10.93,11.49c0,0,0,0,0,0.01l0.01,0.01l0.2,0.26
			c3.21,4.12,6.82,7.86,10.73,11.23c-1.38-3.57-2.16-7.43-2.16-11.49C113.83,20.01,114.62,16.14,116,12.57"/>
		<path class="st1" d="M93.33,58.53c-5.77,4.25-12.41,7.51-19.74,9.47c-5.12,1.37-10.27,2.03-15.33,2.03
			c-12.76,0-24.98-4.16-34.97-11.5c-4.41,3.24-8.38,7.09-11.77,11.48l0.15,0.2C22.75,84.43,39.96,93,58.26,93
			c5.06,0,10.21-0.66,15.33-2.03c13.01-3.49,23.84-11.05,31.47-20.96l0-0.01c0,0,0,0,0,0l0,0C101.72,65.69,97.79,61.81,93.33,58.53"
			/>
		<path class="st1" d="M116,58.53c-3.99,3.44-7.67,7.27-10.93,11.49c0,0,0,0,0,0.01l0.01,0.01l0.2,0.26
			c3.21,4.12,6.82,7.86,10.73,11.23c-1.38-3.57-2.16-7.43-2.16-11.49C113.83,65.97,114.62,62.1,116,58.53"/>
		<path class="st2" d="M59.57,47.04c-0.44,0.01-0.88,0.01-1.31,0.01c-0.44,0-0.88-0.01-1.31-0.01c-12.28,0.28-24.01,4.4-33.66,11.49
			c9.99,7.34,22.21,11.5,34.97,11.5c5.06,0,10.21-0.66,15.33-2.03c7.33-1.97,13.97-5.23,19.74-9.47
			c-5.77-4.25-12.41-7.51-19.74-9.47C68.91,47.8,64.21,47.14,59.57,47.04"/>
		<path class="st3" d="M58.26,24.05c-12.75,0-24.98,4.16-34.97,11.5c9.65,7.09,21.38,11.21,33.66,11.49
			c0.44-0.01,0.88-0.01,1.31-0.02c0.44,0,0.88,0.01,1.32,0.01c4.63-0.1,9.33-0.76,14.01-2.01c7.33-1.97,13.98-5.23,19.74-9.47
			c-5.77-4.25-12.41-7.51-19.74-9.47C68.46,24.71,63.32,24.05,58.26,24.05"/>
		<path class="st4" d="M58.26,47.02c-0.44,0-0.88,0.01-1.31,0.01c0.44,0.01,0.87,0.01,1.31,0.01c0.44,0,0.88-0.01,1.31-0.01
			C59.14,47.03,58.7,47.02,58.26,47.02"/>
		<path class="st5" d="M0.58,58.52c3.99-3.44,7.67-7.27,10.93-11.49c0,0,0,0,0-0.01l-0.01-0.01l-0.2-0.26
			C8.1,42.64,4.49,38.9,0.59,35.53c1.38,3.57,2.16,7.43,2.16,11.49C2.75,51.08,1.96,54.95,0.58,58.52"/>
		<path class="st5" d="M93.33,35.55c-5.77,4.25-12.41,7.51-19.74,9.47c-4.68,1.25-9.38,1.91-14.01,2.01
			c4.64,0.1,9.33,0.76,14.01,2.01c7.33,1.97,13.97,5.23,19.74,9.47c4.46-3.29,8.4-7.17,11.74-11.49l-0.01-0.01
			C101.72,42.71,97.79,38.84,93.33,35.55 M23.29,35.55c-4.41,3.24-8.38,7.09-11.77,11.49l0.15,0.2c3.36,4.31,7.28,8.1,11.62,11.29
			c9.65-7.09,21.38-11.21,33.66-11.49C44.67,46.76,32.94,42.64,23.29,35.55"/>
	</g>
</g>
<g id="cog" class="st26">
</g>
<g id="IDemail" class="st26">
</g>
<g id="watch">
</g>
</svg>
