<?xml version="1.0" encoding="UTF-8"?>
<!-- Created with Inkscape (http://www.inkscape.org/) -->
<svg width="201.25mm" height="161.71mm" version="1.1" viewBox="0 0 201.25 161.71" xml:space="preserve" xmlns="http://www.w3.org/2000/svg"><defs><clipPath id="clipPath11243"><path d="m-227.29 134.92c-25.787 2.1148-53.757 15.291-68.129 32.093l-1.0259 1.1994-3.4557-3.9151c-4.8363-5.4793-20.216-20.616-20.579-20.253-0.0321 0.0321 0.55736 1.9589 1.31 4.2817 5.8933 18.189 5.6196 39.645-0.72071 56.49-0.38321 1.0181-0.65444 1.8934-0.60273 1.9451 0.41317 0.41316 15.071-13.936 20.141-19.717 1.6644-1.8977 3.6645-3.7673 3.8837-4.0002 0.35026-0.37194-1.2631-1.3995 0.0178 3e-3 41.261 45.168 119.59 43.002 158.46-5.771l1.4369-1.8026-1.0478-1.3018c-21.727-26.993-56.043-42.011-89.691-39.251z" fill="#0d7078" stroke-width=".28222"/></clipPath><clipPath id="clipPath11247"><path d="m-227.29 134.92c-25.787 2.1148-53.757 15.291-68.129 32.093l-1.0259 1.1994-3.4557-3.9151c-4.8363-5.4793-20.216-20.616-20.579-20.253-0.0321 0.0321 0.55736 1.9589 1.31 4.2817 5.8933 18.189 5.6196 39.645-0.72071 56.49-0.38321 1.0181-0.65444 1.8934-0.60273 1.9451 0.41317 0.41316 15.071-13.936 20.141-19.717 1.6644-1.8977 3.6645-3.7673 3.8837-4.0002 0.35026-0.37194-1.2631-1.3995 0.0178 3e-3 41.261 45.168 119.59 43.002 158.46-5.771l1.4369-1.8026-1.0478-1.3018c-21.727-26.993-56.043-42.011-89.691-39.251z" fill="#0d7078" stroke-width=".28222"/></clipPath></defs><g transform="translate(320.5 -94.615)"><path d="m269.63 69.432 11.931 3.504" fill="#0c6f76" opacity=".5" stroke-width=".26458"/><g stroke-width=".28222"><path d="m-212.47 94.939c25.787 2.1148 53.757 15.291 68.129 32.093l1.0259 1.1994 3.4557-3.9151c4.8363-5.4793 20.216-20.616 20.579-20.253 0.0321 0.0321-0.55736 1.9589-1.31 4.2817-5.8933 18.189-5.6196 39.645 0.72071 56.49 0.38321 1.0181 0.65444 1.8934 0.60273 1.9451-0.41317 0.41317-15.071-13.936-20.141-19.717-1.6644-1.8977-3.6645-3.7673-3.8837-4.0002-0.35026-0.37195 1.2631-1.3995-0.0178 3e-3 -41.261 45.168-119.59 43.002-158.46-5.771l-1.4369-1.8026 1.0478-1.3018c21.727-26.993 56.043-42.011 89.691-39.251z" fill="#00a6b2"/><path d="m-212.46 175.79c25.787 2.1148 53.757 15.291 68.129 32.093l1.0259 1.1994 3.4557-3.9151c4.8363-5.4793 20.216-20.616 20.579-20.253 0.0321 0.0321-0.55736 1.9589-1.31 4.2817-5.8933 18.189-5.6196 39.645 0.72071 56.49 0.38321 1.0181 0.65444 1.8934 0.60273 1.9451-0.41317 0.41317-15.071-13.936-20.141-19.717-1.6644-1.8977-3.6817-3.7674-3.901-4.0002-0.35026-0.37195 1.2803-1.3995-5.5e-4 3e-3 -41.261 45.168-119.59 43.002-158.46-5.771l-1.4369-1.8026 1.0478-1.3018c21.727-26.993 56.043-42.011 89.691-39.251z" fill="#52c4b5"/><path d="m-227.29 134.92c-25.787 2.1148-53.757 15.291-68.129 32.093l-1.0259 1.1994-3.4557-3.9151c-4.8363-5.4793-20.216-20.616-20.579-20.253-0.0321 0.0321 0.55736 1.9589 1.31 4.2817 5.8933 18.189 5.6196 39.645-0.72071 56.49-0.38321 1.0181-0.65444 1.8934-0.60273 1.9451 0.41317 0.41316 15.071-13.936 20.141-19.717 1.6644-1.8977 3.6645-3.7673 3.8837-4.0002 0.35026-0.37194-1.2631-1.3995 0.0178 3e-3 41.261 45.168 119.59 43.002 158.46-5.771l1.4369-1.8026-1.0478-1.3018c-21.727-26.993-56.043-42.011-89.691-39.251z" fill="#0d7078"/><path transform="translate(-1.4542e-5 -9.3944e-5)" d="m-212.47 94.939c25.787 2.1148 53.757 15.291 68.129 32.093l1.0259 1.1994 3.4557-3.9151c4.8363-5.4793 20.216-20.616 20.579-20.253 0.0321 0.0321-0.55736 1.9589-1.31 4.2817-5.8933 18.189-5.6196 39.645 0.72071 56.49 0.38321 1.0181 0.65444 1.8934 0.60273 1.9451-0.41317 0.41317-15.071-13.936-20.141-19.717-1.6644-1.8977-3.6645-3.7673-3.8837-4.0002-0.35026-0.37195 1.2631-1.3995-0.0178 3e-3 -41.261 45.168-119.59 43.002-158.46-5.771l-1.4369-1.8026 1.0478-1.3018c21.727-26.993 56.043-42.011 89.691-39.251z" clip-path="url(#clipPath11247)" fill="#004252"/><path transform="translate(-.0010481 -9.3944e-5)" d="m-212.46 175.79c25.787 2.1148 53.757 15.291 68.129 32.093l1.0259 1.1994 3.4557-3.9151c4.8363-5.4793 20.216-20.616 20.579-20.253 0.0321 0.0321-0.55736 1.9589-1.31 4.2817-5.8933 18.189-5.6196 39.645 0.72071 56.49 0.38321 1.0181 0.65444 1.8934 0.60273 1.9451-0.41317 0.41317-15.071-13.936-20.141-19.717-1.6644-1.8977-3.6817-3.7674-3.901-4.0002-0.35026-0.37195 1.2803-1.3995-5.5e-4 3e-3 -41.261 45.168-119.59 43.002-158.46-5.771l-1.4369-1.8026 1.0478-1.3018c21.727-26.993 56.043-42.011 89.691-39.251z" clip-path="url(#clipPath11243)" fill="#005254"/></g></g></svg>
