<?xml version="1.0" encoding="UTF-8"?>
<!-- Created with Inkscape (http://www.inkscape.org/) -->
<svg width="145.02mm" height="25.408mm" version="1.1" viewBox="0 0 145.02 25.408" xml:space="preserve" xmlns="http://www.w3.org/2000/svg"><defs><clipPath id="clipPath11243"><path d="m-227.29 134.92c-25.787 2.1148-53.757 15.291-68.129 32.093l-1.0259 1.1994-3.4557-3.9151c-4.8363-5.4793-20.216-20.616-20.579-20.253-0.0321 0.0321 0.55736 1.9589 1.31 4.2817 5.8933 18.189 5.6196 39.645-0.72071 56.49-0.38321 1.0181-0.65444 1.8934-0.60273 1.9451 0.41317 0.41316 15.071-13.936 20.141-19.717 1.6644-1.8977 3.6645-3.7673 3.8837-4.0002 0.35026-0.37194-1.2631-1.3995 0.0178 3e-3 41.261 45.168 119.59 43.002 158.46-5.771l1.4369-1.8026-1.0478-1.3018c-21.727-26.993-56.043-42.011-89.691-39.251z" fill="#0d7078" stroke-width=".28222"/></clipPath><clipPath id="clipPath11247"><path d="m-227.29 134.92c-25.787 2.1148-53.757 15.291-68.129 32.093l-1.0259 1.1994-3.4557-3.9151c-4.8363-5.4793-20.216-20.616-20.579-20.253-0.0321 0.0321 0.55736 1.9589 1.31 4.2817 5.8933 18.189 5.6196 39.645-0.72071 56.49-0.38321 1.0181-0.65444 1.8934-0.60273 1.9451 0.41317 0.41316 15.071-13.936 20.141-19.717 1.6644-1.8977 3.6645-3.7673 3.8837-4.0002 0.35026-0.37194-1.2631-1.3995 0.0178 3e-3 41.261 45.168 119.59 43.002 158.46-5.771l1.4369-1.8026-1.0478-1.3018c-21.727-26.993-56.043-42.011-89.691-39.251z" fill="#0d7078" stroke-width=".28222"/></clipPath></defs><g transform="translate(-72.947 -81.332)"><g transform="matrix(.59782 0 0 .59782 116.58 39.651)" fill="#004e59"><path d="m144.85 105.61c-0.87313-0.28431-1.818-0.69388-2.0997-0.91014-0.50203-0.38542-0.49742-0.42406 0.23257-1.9514l0.74473-1.5582 1.2918 0.67021c1.7992 0.93344 3.5307 1.0586 5.0916 0.36816 1.4176-0.62709 2.015-1.6717 2.015-3.5238v-1.1187l-0.87705 0.85007c-2.8231 2.7362-7.9334 1.2194-9.4516-2.8054-0.73788-1.9562-0.63985-5.1771 0.20752-6.8184 1.9122-3.7037 6.5944-4.7202 9.3935-2.0391l0.72761 0.69692v-1.9511h4.0051l-0.10379 7.6068c-0.11558 8.471-0.19023 8.9076-1.8438 10.786-1.907 2.1664-5.7485 2.8652-9.3335 1.6979zm5.873-9.6983c0.93402-0.61199 1.4031-1.7168 1.402-3.3018-2e-3 -2.3948-1.4191-4.0039-3.5267-4.0039-2.2092 0-3.3488 1.3243-3.3504 3.8934-1e-3 2.1944 0.73427 3.2981 2.6448 3.9682 0.60038 0.21056 2.1144-0.0868 2.8303-0.55591zm-49.926-0.20605v-10.186h3.9688v1.9511l0.72761-0.69692c2.9694-2.8442 8.057-1.4363 9.601 2.657 0.84547 2.2414 0.65731 5.2538-0.45126 7.2247-1.8631 3.3124-6.2367 4.1766-8.974 1.7732l-0.90335-0.79315v8.2569h-3.9688zm8.8662 0.54509c1.3127-0.54848 1.9795-1.7903 1.9807-3.6889 1e-3 -2.0467-0.65784-3.1422-2.2585-3.7535-1.1155-0.426-1.2465-0.42531-2.3931 0.0126-1.592 0.60799-2.2242 1.632-2.2256 3.6044-1e-3 1.7712 0.71619 3.0371 2.121 3.7429 1.1191 0.56225 1.5936 0.57635 2.7756 0.0825zm-111.94 3.0911c-2.4473-0.87535-4.0709-2.6837-4.5923-5.1149-0.15685-0.73137-0.28425-4.1063-0.28425-7.5301v-6.2047h4.2333l0.0017 6.6807c0.0016 6.0539 0.04766 6.7504 0.4911 7.4229 1.422 2.1567 4.2455 2.2785 5.7939 0.24978l0.72468-0.94946 0.16531-13.404h3.9357v6.5666c0 7.2951-0.18091 8.4536-1.5853 10.152-1.814 2.1931-5.9426 3.1837-8.884 2.1316zm46.429-0.0212c-4.2001-1.3884-6.6747-4.8947-6.6594-9.4358 0.01339-3.9773 1.9911-7.175 5.4158-8.7563 1.5029-0.694 1.9345-0.76866 4.4427-0.76866 2.5049 0 2.9213 0.0718 4.2333 0.72999 2.6205 1.3145 2.5868 1.2438 1.4687 3.0842l-0.97015 1.597-0.9769-0.63537c-2.5298-1.6454-6.2827-1.3846-8.04 0.55855-2.335 2.5822-1.8772 7.4474 0.87208 9.2668 0.93574 0.61925 1.4626 0.75948 3.1289 0.8328 1.102 0.0485 2.3311-0.0379 2.7313-0.19189 0.67216-0.25871 0.7276-0.39145 0.7276-1.7418v-1.4618h-4.4979v-3.175h8.4667v7.6344l-0.99219 0.81839c-2.2641 1.8675-6.4494 2.6036-9.3507 1.6445zm27.566-0.0905c-2.7868-1.0702-4.5235-3.6422-4.5235-6.6995 0-2.9015 1.3771-5.1565 3.908-6.3993 1.2582-0.61784 1.8534-0.74349 3.5003-0.73894 3.1114 9e-3 5.4888 1.4113 6.7609 3.9888 0.71538 1.4496 0.71175 4.8564-0.0067 6.3131-1.6753 3.3965-5.9339 4.9586-9.639 3.5358zm4.9656-3.5887c0.38356-0.28564 0.92592-1.0682 1.2053-1.739 0.44686-1.0731 0.46762-1.354 0.17282-2.338-0.89701-2.994-4.4493-3.7822-6.2726-1.3919-1.3988 1.834-0.97449 4.3128 0.96166 5.6173 1.1076 0.74625 2.8181 0.68166 3.9328-0.14851zm10.476 3.6679c-2.1643-0.98308-2.767-3.0194-2.767-9.3478v-4.4423h3.9346l0.0832 4.6118c0.07575 4.1986 0.13299 4.6786 0.63899 5.3578 0.44315 0.59485 0.7981 0.76211 1.7514 0.82528 1.061 0.0703 1.274-0.0139 1.8916-0.7479 0.69332-0.82397 0.69599-0.84484 0.69599-5.437v-4.6099h3.9687v14.023h-3.9687v-1.6797l-0.59892 0.56266c-1.4583 1.37-3.7634 1.7321-5.6299 0.88427zm74.308 0.0788c-1.1023-0.4064-2.9921-2.1908-2.9921-2.8252 0-0.31134 2.1559-1.7832 2.6119-1.7832 0.11499 0 0.36135 0.2845 0.54745 0.63223 0.6092 1.1383 2.7876 1.634 3.8303 0.87164 0.90902-0.6647 0.39251-1.2988-1.8314-2.2481-2.7656-1.1806-3.6925-1.9067-4.2295-3.3127-1.6546-4.3326 5.1656-7.4787 8.8153-4.0664 1.2849 1.2014 1.2516 1.442-0.30584 2.2058l-1.4268 0.69977-0.56615-0.56614c-0.68319-0.68319-2.1891-0.75748-2.8081-0.13852-0.69795 0.69795 0.0115 1.3749 2.4877 2.3738 1.2193 0.49187 2.4489 1.1043 2.7324 1.3609 1.9928 1.8035 1.556 5.0432-0.86254 6.3972-1.4516 0.81264-4.3569 1.0057-6.0027 0.39891zm-149.04-9.371v-9.525h4.2333v8.2021h6.8792v-8.2021h4.2333v19.05h-4.2333v-7.4083h-6.8792v7.4083h-4.2333zm44.979 2.5135v-7.0115h3.9688v2.4595l0.60058-0.89903c0.70619-1.0571 2.0942-1.8241 3.302-1.8246l0.8599-4.1e-4v3.9688h-1.451c-1.229 0-1.5833 0.11806-2.3151 0.77142l-0.86407 0.77142-0.1679 8.776h-3.9331zm60.854 0v-7.0115h3.9688v14.023h-3.9688zm7.4083 0v-7.0115h3.9688v1.9242l0.72761-0.73458c1.8839-1.902 5.1634-1.9458 6.8702-0.0918 1.1678 1.2685 1.398 2.5747 1.398 7.9312v4.9938h-3.7042v-3.5349c0-4.5452-0.18256-5.8243-0.9494-6.6517-0.72026-0.77717-2.2924-0.90265-3.2148-0.25658-0.88133 0.6173-1.1244 2.0007-1.126 6.4083l-1e-3 4.0349h-3.9688zm-6.4762-8.7375c-1.0086-0.53983-1.1876-0.83983-1.1926-1.9982-9e-3 -2.002 2.5707-3.0013 4.0821-1.5815 1.9519 1.8337-0.49284 4.8624-2.8895 3.5796z" stroke-width=".26458"/><path d="m0.65474 95.755c0.029574 1.9815 0.059144 3.9626 0.08871 5.9435" stroke-width="0"/></g><g transform="matrix(.15713 0 0 .15713 123.12 66.793)"><g transform="translate(1.1907 -2.0837)" fill="#f00" stroke-width=".28222"><g><path d="m-212.47 94.939c25.787 2.1148 53.757 15.291 68.129 32.093l1.0259 1.1994 3.4557-3.9151c4.8363-5.4793 20.216-20.616 20.579-20.253 0.0321 0.0321-0.55736 1.9589-1.31 4.2817-5.8933 18.189-5.6196 39.645 0.72071 56.49 0.38321 1.0181 0.65444 1.8934 0.60273 1.9451-0.41317 0.41317-15.071-13.936-20.141-19.717-1.6644-1.8977-3.6645-3.7673-3.8837-4.0002-0.35026-0.37195 1.2631-1.3995-0.0178 3e-3 -41.261 45.168-119.59 43.002-158.46-5.771l-1.4369-1.8026 1.0478-1.3018c21.727-26.993 56.043-42.011 89.691-39.251z" fill="#00a6b2"/><path d="m-212.46 175.79c25.787 2.1148 53.757 15.291 68.129 32.093l1.0259 1.1994 3.4557-3.9151c4.8363-5.4793 20.216-20.616 20.579-20.253 0.0321 0.0321-0.55736 1.9589-1.31 4.2817-5.8933 18.189-5.6196 39.645 0.72071 56.49 0.38321 1.0181 0.65444 1.8934 0.60273 1.9451-0.41317 0.41317-15.071-13.936-20.141-19.717-1.6644-1.8977-3.6817-3.7674-3.901-4.0002-0.35026-0.37195 1.2803-1.3995-5.5e-4 3e-3 -41.261 45.168-119.59 43.002-158.46-5.771l-1.4369-1.8026 1.0478-1.3018c21.727-26.993 56.043-42.011 89.691-39.251z" fill="#52c4b5"/><path d="m-227.29 134.92c-25.787 2.1148-53.757 15.291-68.129 32.093l-1.0259 1.1994-3.4557-3.9151c-4.8363-5.4793-20.216-20.616-20.579-20.253-0.0321 0.0321 0.55736 1.9589 1.31 4.2817 5.8933 18.189 5.6196 39.645-0.72071 56.49-0.38321 1.0181-0.65444 1.8934-0.60273 1.9451 0.41317 0.41316 15.071-13.936 20.141-19.717 1.6644-1.8977 3.6645-3.7673 3.8837-4.0002 0.35026-0.37194-1.2631-1.3995 0.0178 3e-3 41.261 45.168 119.59 43.002 158.46-5.771l1.4369-1.8026-1.0478-1.3018c-21.727-26.993-56.043-42.011-89.691-39.251z" fill="#0d7078"/><path transform="translate(-1.4542e-5,-9.3944e-5)" d="m-212.47 94.939c25.787 2.1148 53.757 15.291 68.129 32.093l1.0259 1.1994 3.4557-3.9151c4.8363-5.4793 20.216-20.616 20.579-20.253 0.0321 0.0321-0.55736 1.9589-1.31 4.2817-5.8933 18.189-5.6196 39.645 0.72071 56.49 0.38321 1.0181 0.65444 1.8934 0.60273 1.9451-0.41317 0.41317-15.071-13.936-20.141-19.717-1.6644-1.8977-3.6645-3.7673-3.8837-4.0002-0.35026-0.37195 1.2631-1.3995-0.0178 3e-3 -41.261 45.168-119.59 43.002-158.46-5.771l-1.4369-1.8026 1.0478-1.3018c21.727-26.993 56.043-42.011 89.691-39.251z" clip-path="url(#clipPath11247)" fill="#004252"/><path transform="translate(-.0010481 -9.3944e-5)" d="m-212.46 175.79c25.787 2.1148 53.757 15.291 68.129 32.093l1.0259 1.1994 3.4557-3.9151c4.8363-5.4793 20.216-20.616 20.579-20.253 0.0321 0.0321-0.55736 1.9589-1.31 4.2817-5.8933 18.189-5.6196 39.645 0.72071 56.49 0.38321 1.0181 0.65444 1.8934 0.60273 1.9451-0.41317 0.41317-15.071-13.936-20.141-19.717-1.6644-1.8977-3.6817-3.7674-3.901-4.0002-0.35026-0.37195 1.2803-1.3995-5.5e-4 3e-3 -41.261 45.168-119.59 43.002-158.46-5.771l-1.4369-1.8026 1.0478-1.3018c21.727-26.993 56.043-42.011 89.691-39.251z" clip-path="url(#clipPath11243)" fill="#005254"/></g><g transform="matrix(6.3643 0 0 6.3643 359.59 -1360)"><path d="m269.63 69.432 11.931 3.504" fill="#0c6f76" opacity=".5" stroke-width=".26458"/></g></g><path d="m269.63 69.432 11.931 3.504" fill="#0c6f76" opacity=".5" stroke-width=".26458"/></g></g></svg>
