<svg viewBox="0 0 476 162" xmlns="http://www.w3.org/2000/svg" xmlns:xlink="http://www.w3.org/1999/xlink"><clipPath id="a"><path d="m2.75 1.33h472v159.23h-472z"/></clipPath><g clip-path="url(#a)" fill="#fff"><path d="m91.33 128.13h2.9l-2 3.22a.47.47 0 0 1 -.13.15.24.24 0 0 1 -.17.07v.1h2v-.1a.61.61 0 0 1 -.13 0 .13.13 0 0 1 -.08-.13.87.87 0 0 1 .06-.15 1.27 1.27 0 0 0 .13-.19l1.73-3.1v-1.1h-.11a.18.18 0 0 1 -.06.16.13.13 0 0 1 -.1 0h-4a.17.17 0 0 1 -.11 0 .24.24 0 0 1 -.06-.17h-.1v1.43h.1a.22.22 0 0 1 .06-.16.23.23 0 0 1 .11 0m-3.44.08a1 1 0 0 1 .5.12 1.12 1.12 0 0 1 .35.3 1.83 1.83 0 0 1 .21.42 2.52 2.52 0 0 1 0 .48 2.61 2.61 0 0 1 0 .48 2.06 2.06 0 0 1 -.21.42 1.27 1.27 0 0 1 -.35.3 1 1 0 0 1 -.5.11 1 1 0 0 1 -.51-.11 1.18 1.18 0 0 1 -.36-.3 1.33 1.33 0 0 1 -.19-.42 2 2 0 0 1 -.06-.48 1.91 1.91 0 0 1 .06-.48 1.23 1.23 0 0 1 .19-.42 1.05 1.05 0 0 1 .36-.3 1 1 0 0 1 .51-.12m0-1a2.5 2.5 0 0 0 -1 .17 2.61 2.61 0 0 0 -.79.49 2.42 2.42 0 0 0 -.52.74 2.18 2.18 0 0 0 -.2.93 2.26 2.26 0 0 0 .2.94 2.5 2.5 0 0 0 .52.73 2.58 2.58 0 0 0 .79.48 2.71 2.71 0 0 0 1 .17 2.64 2.64 0 0 0 .93-.17 2.27 2.27 0 0 0 .79-.48 2.53 2.53 0 0 0 .53-.73 2.11 2.11 0 0 0 .19-.94 2 2 0 0 0 -.19-.93 2.45 2.45 0 0 0 -.53-.74 2.29 2.29 0 0 0 -.79-.49 2.44 2.44 0 0 0 -.93-.17m-5.9.73h.3a1.12 1.12 0 0 1 .32.12.61.61 0 0 1 .26.18.45.45 0 0 1 .12.32.41.41 0 0 1 -.12.31.59.59 0 0 1 -.26.21 1.5 1.5 0 0 1 -.32.09h-.3-.29a1.5 1.5 0 0 1 -.32-.09.62.62 0 0 1 -.27-.21.5.5 0 0 1 -.1-.31.55.55 0 0 1 .1-.32.64.64 0 0 1 .27-.18 1.12 1.12 0 0 1 .32-.12zm-1.51 2.38-.71 1.17.11.05a.25.25 0 0 1 .2-.1h.15a2.64 2.64 0 0 0 .35.1 3.14 3.14 0 0 0 .51.09 4.36 4.36 0 0 0 .65 0 4 4 0 0 0 1-.15 2.73 2.73 0 0 0 .88-.46 1.94 1.94 0 0 0 .6-.76 2.25 2.25 0 0 0 .23-1 2.52 2.52 0 0 0 -.18-1 2 2 0 0 0 -1.31-1.1 3.44 3.44 0 0 0 -1-.15 3.89 3.89 0 0 0 -.74.08 3.11 3.11 0 0 0 -.68.27 1.61 1.61 0 0 0 -.53.47 1.39 1.39 0 0 0 -.19.71 1.47 1.47 0 0 0 .13.64 1.83 1.83 0 0 0 .39.49 2.07 2.07 0 0 0 .57.3 2.11 2.11 0 0 0 .66.1 2.8 2.8 0 0 0 .84-.11 5.43 5.43 0 0 0 .86-.34 1.23 1.23 0 0 1 -.17.54 1.19 1.19 0 0 1 -.36.38 1.87 1.87 0 0 1 -.47.23 2.08 2.08 0 0 1 -.55.07 3.25 3.25 0 0 1 -.44 0 1.53 1.53 0 0 1 -.37-.08.71.71 0 0 1 -.26-.13.22.22 0 0 1 -.1-.2v-.07zm-4.36-1.35h.11a.58.58 0 0 1 0-.14.17.17 0 0 1 .08-.09l.23-.06.34-.1v2.77a.12.12 0 0 1 -.06.12h-.16v.1h1.8v-.1h-.15a.12.12 0 0 1 -.06-.12v-4c0-.07 0-.11.06-.13a.44.44 0 0 1 .17 0v-.12h-1.75v.12a.23.23 0 0 1 .12 0s.06.06.06.13v.27l-.11.05-.18.07-.18.06h-.1s-.08 0-.09-.09a.83.83 0 0 1 0-.13h-.11zm22.28-86c-1.3-3 .22-7.2.22-7.2-6.83 1.57-8.16 5.54-10.17 5.92-1.6.3-1.16-3.41-1.16-3.41s-9.67 4.77-13 12.3c-2.87 6.51-.24 10.14-.24 10.14h3.55c-.34-10.86 7.52-15 12.8-17.8 1.18-.62 2.3-1.2 3.15-1.77l1.82-1.18-.35 2.14a15.25 15.25 0 0 0 .11 5.14 13.26 13.26 0 0 0 .69 2 7.72 7.72 0 0 1 .52 5.72c-.62 2.22-2.55 4.43-4 5.83h2.62s2.67-1.06 4.78-5.62c2.11-5.85 0-8.24-1.31-12.14m-3.9 11.44a6.19 6.19 0 0 0 .27-1.72 7.12 7.12 0 0 0 -.74-2.83 16.73 16.73 0 0 1 -.76-2.27 15.35 15.35 0 0 1 -.34-3.3c0-.25 0-.48 0-.69-.52.29-1.09.59-1.66.89-5 2.65-11.81 6.22-11.81 15.48v.69h10.08c.5-.42 4.14-3.48 4.93-6.32m-4.24 27.8.94-10.34a14.65 14.65 0 0 1 -4.79 1.1l-1 17.09a.25.25 0 0 1 -.26.22.24.24 0 0 1 -.25-.22l-.94-17.09a14.85 14.85 0 0 1 -4.79-1.11l.93 10.31-34-13.63c1 2.61 13.44 34.27 13.62 34.75l21.58 9.24.49-8.15a.15.15 0 0 1 .14-.14.16.16 0 0 1 .16.14l.81 8.83.76 8.43a1.47 1.47 0 0 0 1.49 1.37 1.46 1.46 0 0 0 1.48-1.36l.78-8.44.8-8.83a.15.15 0 0 1 .3 0l.49 8.15 21.59-9.24c.18-.48 12.58-32.14 13.6-34.75zm-26.42-17.41a93 93 0 0 1 12.83 10.45c-7.71-13.03-13.54-15.9-15.12-16.28zm13.71 14.11c-12.59-12.17-20.85-15.94-24.77-16.6l3 7.58zm19.9-16.76h-24.55a1 1 0 1 0 0 2h24.55a1 1 0 1 0 0-2m-23.28 3.4c1.14 2.61 4.92 6.1 11 6.1a12.28 12.28 0 0 0 11.09-6.1zm34.64-6.58c-1.58.41-7.39 3.28-15.13 16.31a92.67 92.67 0 0 1 12.86-10.45zm5.79 11 3-7.58c-3.91.69-12.13 4.43-24.76 16.6zm28.51 11.69v-1.37h-9.47a66.58 66.58 0 0 0 -8.28-31.94h7l-1-1.3h-6.74a53.14 53.14 0 0 0 -17-17.87s-.46-.16-.71-.28-2.17-.81-2.17-.81c-1.85-.65-5.13-1.51-5.13-1.51 9.49 3.69 17.67 11 23.49 20.47h-16.79a70.59 70.59 0 0 0 -2.67-7.16c-3-6.77-6.5-11.69-10.43-14.52l-1-.14-2-.21c6 2.88 11.24 10.92 14.78 22h-2.49a6.91 6.91 0 0 1 .32 1.3h2.57c.82 2.71 1.53 5.59 2.14 8.62 0 0 .64-.25 1-.36l.27-.09q-.87-4.26-2-8.17h17.12a65.61 65.61 0 0 1 8.47 31.94h-10.23l-.51 1.29h10.65a65.57 65.57 0 0 1 -8.4 31.93h-17.17q1-3.27 1.74-6.79l-1.5.64c-.47 2.13-1 4.19-1.6 6.15h-12.77l-3 1.3h15.36c-3.46 10.94-8.57 18.92-14.45 22l1.86-.2c.4 0 1.09-.14 1.09-.14 3.81-2.86 7.28-7.71 10.17-14.33a72.26 72.26 0 0 0 2.71-7.29h16.78c-5.62 9.24-13.45 16.36-22.55 20.18 0 0 2.5-.67 4-1.22 0 0 2.44-.88 3-1.17l.52-.18a53.34 53.34 0 0 0 16.5-17.61h6.64c.23-.26 1-1.3 1-1.3h-6.9a66.88 66.88 0 0 0 8.22-31.93zm-65.38 31.85h-12.7c-.59-2-1.13-4-1.6-6.12l-1.5-.64c.5 2.34 1.08 4.59 1.72 6.76h-17.15a65.35 65.35 0 0 1 -8.4-31.93h10.59l-.51-1.29h-10.07a65.18 65.18 0 0 1 8.46-31.94h17.11c-.77 2.63-1.45 5.36-2 8.23a7 7 0 0 1 .75.22l.53.17c.6-3 1.32-5.93 2.14-8.66h7.64c.27-.5.77-1.3.77-1.3h-8c3.45-11.04 8.72-19.11 14.74-21.99l-1 .08c-.46 0-2 .23-2 .23-3.94 2.82-7.53 7.76-10.5 14.56a73.06 73.06 0 0 0 -2.66 7.16h-16.77c5.88-9.61 14.18-16.92 23.8-20.59l-.42.08-2.13.57a53.62 53.62 0 0 0 -5.38 1.86 52.58 52.58 0 0 0 -17.39 18.06h-7l-1 1.3h7.23a66.8 66.8 0 0 0 -8.27 31.94h-9.71v1.29h9.71a66.65 66.65 0 0 0 8.2 31.95h-7.11s.94 1.24 1 1.3h6.86a53.06 53.06 0 0 0 16.85 17.82s2.44 1 3.47 1.29c0 0 2.05.7 3.24 1 .46.1.9.22.9.22-9.25-3.78-17.22-11-22.92-20.32h16.79a73.81 73.81 0 0 0 2.7 7.29c2.91 6.65 6.39 11.5 10.23 14.36 0 0 1.21.16 2.17.26l.78.07c-5.9-3-11-11-14.49-22h15.35zm-3.14-18.34c.07-.31.32-1.3.36-1.53.19.39.83 1.79 1 2.17zm3.46 3.23c-.36-.72-2.89-5.86-3.47-7-.44 1.16-1.39 4.27-1.6 4.8l1.09 1.19c.1-.33.35-1.32.39-1.42l2 1c.09.2.6 1.38.81 1.8zm-12.6-6.67c.05-.29.21-1.21.25-1.42.2.36.93 1.62 1.14 2zm3.61 2.87c-.41-.65-3.25-5.31-3.89-6.31-.34 1.09-1 4-1.21 4.5l1.16 1.07c.07-.31.25-1.24.27-1.33l2.06.8c.1.18.68 1.25.9 1.64zm-5.56-1.95c-.25-.43-3.26-6.13-3.75-7-.05.65-.2 2.87-.24 3.28-.42-.64-2.36-3.78-2.8-4.45 0 1 .26 4.89.27 5.52l1.19 1c0-.65-.28-3.34-.28-3.55.22.36 1.9 3 2.55 3.91.1-.87.19-2.46.19-2.79.26.47 1.91 3.76 2.14 4.21zm34.61 1.47c.18-.38.85-1.75 1-2.13 0 .23.29 1.21.36 1.53zm-1.38 2.85c.22-.41.77-1.57.85-1.77l2.08-.91c0 .11.28 1.08.37 1.41l1.13-1.17c-.22-.52-1.13-3.6-1.55-4.75-.65 1.12-3.29 6.19-3.65 6.86zm14.52-8c.25-.4 1.12-1.87 1.37-2.26v1.63zm-1.81 3.07c.28-.43 1-1.66 1.11-1.88l2.08-.92c0 .1.06 1.18.07 1.52l1.26-1.21c-.09-.58-.35-3.92-.51-5.17h-.05c-.77 1.13-4.17 6.49-4.64 7.24zm-7 2.83c.2-.43 1.67-3.66 1.9-4.13 0 .32.22 1.87.38 2.72.61-.95 2.14-3.5 2.36-3.84v3.45l1.12-1c0-.6-.07-4.42-.11-5.36h-.05c-.39.65-2.18 3.75-2.56 4.35-.05-.39-.36-2.64-.46-3.28-.42.84-3.14 6.52-3.34 6.93zm-7.07 1.56c-.54.25-1.29.53-1.44.59l.28-1.92c.16-1.06.45-2.81.49-3l-1.13.44c0 .15-.32 2.26-.34 2.4l-.16 1.13c0 .21-.32 2-.41 2.5.37-.15 2.4-.85 2.53-.91zm-7 .56c.14-.34.61-1.55.75-1.87.1.26.62 1.42.77 1.78zm-1 2.54c.15-.36.53-1.38.59-1.56l2.25-.12c.07.12.43 1.07.61 1.46l1.14-.78c-.37-.65-2-4.14-2.76-5.56-.46.92-2.44 5.26-2.71 5.85zm-8-.28c.1-.37.83-3 .94-3.36.15.35.93 2.08 1.42 3 .42-.75 1.47-2.81 1.62-3.08.08.22.92 3 1.12 3.63l1.09-.58c-.22-.65-1.58-4.63-2-5.66h-.06c-.27.54-1.45 3-1.72 3.48-.2-.44-1.36-2.85-1.7-3.58-.25.73-1.61 5.12-1.73 5.47zm-7.29-3.93c-.6-.22-1-.43-1.21-.5l-.39-2c-.2-1.07-.5-2.76-.53-3l-1.29-.53c0 .18.47 2.27.48 2.4l.22 1.12c0 .21.42 2.12.47 2.55.42.17 2.35 1.08 2.5 1.14zm-8.49-8.22 2.79 1.12-.29-1.15-2.66-1.1zm88.37 7.34a1.8 1.8 0 0 1 .26-.58 1.5 1.5 0 0 1 .44-.43 1.69 1.69 0 0 1 .64-.23 2.48 2.48 0 0 1 .76 0 1.73 1.73 0 0 1 .71.27 1.36 1.36 0 0 1 .48.44 1.31 1.31 0 0 1 .26.56 1.67 1.67 0 0 1 0 .63 1.35 1.35 0 0 1 -.26.57 1.48 1.48 0 0 1 -.46.44 1.53 1.53 0 0 1 -.62.22 2.18 2.18 0 0 1 -.76 0 2.07 2.07 0 0 1 -.72-.27 1.39 1.39 0 0 1 -.47-.43 2.09 2.09 0 0 1 -.26-.57 1.34 1.34 0 0 1 0-.63m-1.56-.3a4.1 4.1 0 0 0 0 1.11 2.72 2.72 0 0 0 .4 1.1 3.07 3.07 0 0 0 .89.91 3.94 3.94 0 0 0 1.44.56 3.74 3.74 0 0 0 1.56 0 3.1 3.1 0 0 0 1.18-.52 2.78 2.78 0 0 0 .78-.86 4.2 4.2 0 0 0 .4-1 3.64 3.64 0 0 0 0-1.1 2.59 2.59 0 0 0 -.38-1.09 2.77 2.77 0 0 0 -.87-.91 3.62 3.62 0 0 0 -1.44-.56 4.16 4.16 0 0 0 -1.57 0 3.09 3.09 0 0 0 -1.18.51 2.68 2.68 0 0 0 -.79.86 3.11 3.11 0 0 0 -.43 1m-79.07 51.47a1.71 1.71 0 0 1 .59.24 1.84 1.84 0 0 1 .44.44 1.88 1.88 0 0 1 .23.61 2.28 2.28 0 0 1 0 .73 1.78 1.78 0 0 1 -.27.69 1.62 1.62 0 0 1 -.47.47 1.42 1.42 0 0 1 -.58.23 1.69 1.69 0 0 1 -.67 0 1.46 1.46 0 0 1 -.58-.24 1.42 1.42 0 0 1 -.44-.44 1.45 1.45 0 0 1 -.22-.61 2.26 2.26 0 0 1 .3-1.42 1.69 1.69 0 0 1 .45-.47 1.86 1.86 0 0 1 .59-.23 1.64 1.64 0 0 1 .66 0m.31-1.51a3.91 3.91 0 0 0 -1.14 0 3.11 3.11 0 0 0 -1.13.39 2.83 2.83 0 0 0 -1 .84 3.57 3.57 0 0 0 -.59 1.4 3.37 3.37 0 0 0 0 1.51 3 3 0 0 0 .51 1.13 3.29 3.29 0 0 0 .9.77 4.46 4.46 0 0 0 1.07.39 4.05 4.05 0 0 0 1.16 0 2.9 2.9 0 0 0 1.12-.34 3.13 3.13 0 0 0 1-.84 3.59 3.59 0 0 0 .59-1.4 3.46 3.46 0 0 0 0-1.5 2.62 2.62 0 0 0 -.52-1.16 2.78 2.78 0 0 0 -.87-.77 3.58 3.58 0 0 0 -1.08-.41m-10.55 1.41-1.87-.68 1.85-2zm-.27 2.37 1.85.61.07-.16a.23.23 0 0 1 -.11-.08.19.19 0 0 1 -.06-.15c0-.25 0-5.38 0-5.63a1.78 1.78 0 0 1 0-.4c0-.08.09-.11.2-.08l.06-.17-2.39-.86-.07.17c.1 0 .13.11.09.19a3.88 3.88 0 0 1 -.39.49l-3.58 4.15a.23.23 0 0 1 -.12.06h-.15l-.07.16 1.65.65.06-.15h-.08a.1.1 0 0 1 0-.13.49.49 0 0 1 .11-.15l.56-.65 2.6.94v.85a.84.84 0 0 1 0 .19c0 .05-.06.09-.1.08a.15.15 0 0 1 -.08 0zm-43-45-.62-1.83 2.82.12zm-2.09 1.27.66 1.79.18-.06a.17.17 0 0 1 0-.14.26.26 0 0 1 .09-.12l4.55-3.51a4.17 4.17 0 0 1 .34-.25.14.14 0 0 1 .18.1h.18l-.78-2.3-.16.05c0 .1 0 .16-.08.19h-.66c-.39 0-4.82-.14-5.57-.15a.16.16 0 0 1 -.12-.06.23.23 0 0 1 -.08-.12h-.18l.5 1.66.18-.06a.19.19 0 0 1 0-.09s0-.07.1-.09h.19.86l.87 2.57c-.07 0-.62.46-.68.51a.88.88 0 0 1 -.17.1c-.07 0-.11 0-.14 0a.17.17 0 0 1 0-.07zm10.71 15.46-1.1-1.6 2.74-.62zm-1.64 1.75 1.12 1.6.14-.1a.33.33 0 0 1 0-.15.13.13 0 0 1 0-.13c.17-.2 3.26-4.39 3.42-4.58s.23-.3.25-.32a.15.15 0 0 1 .21 0l.15-.09-1.4-2-.14.09v.21a5.41 5.41 0 0 1 -.62.18l-5.39 1.31a.16.16 0 0 1 -.15 0 .36.36 0 0 1 -.11-.1l-.15.1.95 1.46.13-.09a.19.19 0 0 0 0-.09s0-.08.07-.12a.84.84 0 0 1 .18 0c.1 0 .75-.18.82-.2l1.56 2.24c0 .06-.46.6-.51.68s-.09.11-.13.13a.17.17 0 0 1 -.13 0l-.06-.08zm66.14 28-2 .14.81-2.6zm.75 2.28 2-.19v-.18a.25.25 0 0 1 -.15 0 .21.21 0 0 1 -.11-.1c-.11-.26-2.31-4.93-2.41-5.14a2 2 0 0 1 -.15-.38c0-.08 0-.13.14-.15v-.18l-2.5.17v.18a.15.15 0 0 1 .17.13 4.06 4.06 0 0 1 -.16.61c-.1.36-1.31 4.48-1.5 5.17a.18.18 0 0 1 -.09.12.22.22 0 0 1 -.13 0v.18l1.77-.05v-.18h-.1s-.06 0-.06-.11a.63.63 0 0 1 0-.19c0-.07.21-.72.24-.8l2.76-.19c0 .08.33.7.36.78a.51.51 0 0 1 0 .17v.12h-.1zm-54.2-16.67 1.86 1.51.12-.13a.44.44 0 0 1 -.08-.15.33.33 0 0 1 0-.19l.9-3.9c.22 0 1.53-.22 1.85-.26l.89-.09a1.18 1.18 0 0 1 .57.07l.12-.13-1.85-1.46-.11.12a.68.68 0 0 1 .11.19.22.22 0 0 1 -.06.2.67.67 0 0 1 -.23.08l-.53.09-2.88.32 1.82-2c.07-.08.14-.11.21-.08a.89.89 0 0 1 .23.1l.11-.14-1.62-1.55-.13.14a.28.28 0 0 1 .13.15.25.25 0 0 1 -.08.24l-3.75 4.14a.27.27 0 0 1 -.23.11.4.4 0 0 1 -.18-.1l-.11.13 1.66 1.47.13-.13a.46.46 0 0 1 -.13-.19c-.05-.07 0-.15 0-.22l.8-.9 1.61-.26c0 .08-.56 2.32-.59 2.45a.59.59 0 0 1 -.08.2.2.2 0 0 1 -.23.08l-.19-.1zm46 16.93h2.42v-.17l-.16-.06a.63.63 0 0 1 -.1-.17l-1.86-3.58c.16-.13 1-1.1 1.26-1.33l.64-.6a1.16 1.16 0 0 1 .47-.3v-.17h-2.43v.17l.19.06a.22.22 0 0 1 .1.22 1 1 0 0 1 -.13.19l-.36.39c-.14.16-1.89 1.89-2 2l.08-2.68a.18.18 0 0 1 .11-.19.56.56 0 0 1 .23 0v-.17l-2.23-.15v.19a.31.31 0 0 1 .2 0 .3.3 0 0 1 .09.22l-.18 5.52a.25.25 0 0 1 -.11.22.36.36 0 0 1 -.21 0v.17l2.25.13v-.18a.48.48 0 0 1 -.22-.07c-.08 0-.12-.09-.11-.2v-1.18l1.07-1.2 1.15 2.25a1 1 0 0 1 .08.22.19.19 0 0 1 -.14.2.56.56 0 0 1 -.21 0zm-28.27-7.51-3.06-1.48.68-1.29 2 1s.08 0 .1.12 0 .14-.06.27l.13.07.88-1.69-.13-.06a.45.45 0 0 1 -.18.2.3.3 0 0 1 -.17 0l-2-1 .54-1 3.06 1.43a.3.3 0 0 1 .1.14.4.4 0 0 1 -.07.28l.13.06.91-1.74-.13-.06a.36.36 0 0 1 -.18.2.27.27 0 0 1 -.16 0l-4.86-2.38-.08.17a.54.54 0 0 1 .18.14c.06.07.06.14 0 .24l-2.58 4.91a.19.19 0 0 1 -.17.13.71.71 0 0 1 -.24 0l-.08.15 4.76 2.34a.46.46 0 0 1 .18.11s0 .12 0 .26l.1.05.89-1.69-.12-.07c-.16.2-.31.27-.44.19m-9.7-5.17-2.77-1.92.86-1.17 1.83 1.28a.29.29 0 0 1 .08.13.39.39 0 0 1 -.11.26l.12.09 1.14-1.54-.12-.08c-.08.11-.15.17-.22.17a.29.29 0 0 1 -.16 0l-1.82-1.27.7-1 2.85 2a.24.24 0 0 1 .08.13.44.44 0 0 1 -.12.27l.13.08 1.16-1.69h-.16a.33.33 0 0 1 -.21.16.25.25 0 0 1 -.15 0l-4.39-3.16-.1.14a.47.47 0 0 1 .15.17.19.19 0 0 1 0 .22l-3.32 4.48c-.06.09-.13.13-.21.11a.49.49 0 0 1 -.22-.08l-.11.14 4.34 3a.38.38 0 0 1 .16.14.41.41 0 0 1 0 .25l.09.08 1.15-1.56-.11-.08c-.18.17-.34.21-.47.12m-26.78-47.37-3.29.69a5.47 5.47 0 0 0 -1.08.35 2.78 2.78 0 0 0 -.82.64 2.14 2.14 0 0 0 -.42.94 4 4 0 0 0 0 1.31 3.83 3.83 0 0 0 .5 1.22 2 2 0 0 0 .78.69 2.44 2.44 0 0 0 1 .26 5 5 0 0 0 1.14-.08l3.37-.68c.11 0 .18 0 .22.05a.55.55 0 0 1 .1.22h.19l-.52-2h-.17a.74.74 0 0 1 0 .14s-.08.09-.19.11l-3.63.7a1 1 0 0 1 -.86-.15 1.43 1.43 0 0 1 -.44-.77 1.35 1.35 0 0 1 .07-.88 1 1 0 0 1 .75-.48l3.57-.73h.21l.08.12h.18l-.38-2.06h-.16a.64.64 0 0 1 0 .24c0 .07-.08.11-.2.13m12.54 28.26-2.63 2.07a4.45 4.45 0 0 0 -.77.8 2.32 2.32 0 0 0 -.43.93 2 2 0 0 0 .08 1 3.34 3.34 0 0 0 .69 1.13 3.45 3.45 0 0 0 1 .87 2.49 2.49 0 0 0 1 .26 2.68 2.68 0 0 0 1-.22 4.31 4.31 0 0 0 1-.58l2.61-2.09a.25.25 0 0 1 .24 0 .59.59 0 0 1 .19.15l.14-.12-1.42-1.57-.14.11a.57.57 0 0 1 0 .14s0 .12-.12.19l-2.8 2.2a1 1 0 0 1 -.83.24 1.38 1.38 0 0 1 -.75-.49 1.42 1.42 0 0 1 -.36-.81.92.92 0 0 1 .42-.74l2.83-2.25c.09-.07.16-.1.21-.08a.2.2 0 0 1 .13.07l.15-.11-1.33-1.66-.14.1a1.12 1.12 0 0 1 .11.22.26.26 0 0 1 -.1.22m-11.93-8.35 3.85-1.91-3.05 3.41 4.66-.38-3.84 1.92a.27.27 0 0 1 -.23 0 .78.78 0 0 1 -.15-.16l-.16.08 1 1.68.15-.07a.55.55 0 0 1 0-.17c0-.07.05-.12.15-.17l5.07-2.52c.11 0 .17-.06.22 0a.53.53 0 0 1 .14.11l.16-.08-1.31-2.24-.16.08c0 .06 0 .11.06.15a.07.07 0 0 1 -.06.09.79.79 0 0 1 -.37.08c-.2 0-2.08.15-2.34.18.06-.07 1.33-1.45 1.51-1.63a4.15 4.15 0 0 1 .32-.32s.07 0 .11 0l.09.12.16-.08-1.13-2.3-.16.07a.4.4 0 0 1 0 .19c0 .07-.05.12-.15.17l-5.06 2.52a.21.21 0 0 1 -.23 0l-.14-.13-.15.08.79 1.66.16-.08a.84.84 0 0 1 -.06-.24q0-.11.15-.18m128.18-4a1.79 1.79 0 0 1 .38-.51 1.72 1.72 0 0 1 .55-.33 2 2 0 0 1 .65-.1 2.58 2.58 0 0 1 .74.18 2.14 2.14 0 0 1 .64.41 1.31 1.31 0 0 1 .37.53 1.37 1.37 0 0 1 .12.6 1.75 1.75 0 0 1 -.12.62 1.59 1.59 0 0 1 -.93.83 1.71 1.71 0 0 1 -.65.1 2.48 2.48 0 0 1 -.74-.18 2.25 2.25 0 0 1 -.64-.4 1.74 1.74 0 0 1 -.38-.52 1.7 1.7 0 0 1 0-1.23m-1.44-.61a3.58 3.58 0 0 0 -.28 1.08 3 3 0 0 0 .14 1.15 3.12 3.12 0 0 0 .68 1.07 3.61 3.61 0 0 0 1.29.84 3.8 3.8 0 0 0 1.54.35 3.31 3.31 0 0 0 1.24-.27 3.11 3.11 0 0 0 .95-.68 3.45 3.45 0 0 0 .6-1 3.09 3.09 0 0 0 .3-1.07 2.58 2.58 0 0 0 -.13-1.13 2.94 2.94 0 0 0 -.65-1.07 4 4 0 0 0 -1.3-.85 3.8 3.8 0 0 0 -1.52-.33 3.06 3.06 0 0 0 -1.27.25 3.15 3.15 0 0 0 -1 .68 3.26 3.26 0 0 0 -.63.93m-.66 7.83-1.44-.73.63-1a.9.9 0 0 1 .51-.44 1 1 0 0 1 .69.19.88.88 0 0 1 .49.51 1 1 0 0 1 -.21.69zm-3 .05 4.89 2.82c.1.06.15.12.15.17a.42.42 0 0 1 0 .13l.16.08 1.06-1.71-.15-.1a.47.47 0 0 1 -.15.13s-.13 0-.23 0l-1.59-.92.69-1.12a4.51 4.51 0 0 0 .37-.77 1.75 1.75 0 0 0 .08-.75 1.71 1.71 0 0 0 -.31-.76 2.61 2.61 0 0 0 -.81-.69 2.64 2.64 0 0 0 -1-.37 1.67 1.67 0 0 0 -1.47.54 4.6 4.6 0 0 0 -.53.67l-1.6 2.74.15.09.11-.08a.28.28 0 0 1 .23.05m12.95-15.07-5.44-1.68c-.1 0-.16-.09-.17-.16a.62.62 0 0 1 0-.23l-.17-.05-.58 1.94.17.06a.63.63 0 0 1 .13-.2c.05-.06.14-.06.24 0l2.8.88c-.4.13-2.9 1-3.13 1a1.59 1.59 0 0 1 -.34.09c-.12 0-.16-.08-.17-.13a.59.59 0 0 1 0-.19h-.17l-1 2.61h.18a1.57 1.57 0 0 1 .12-.19.25.25 0 0 1 .23 0l5.42 1.68a.26.26 0 0 1 .19.16 1.7 1.7 0 0 1 0 .21h.17l.68-1.87h-.17a.51.51 0 0 1 -.12.18.2.2 0 0 1 -.23 0l-3.74-1.16c.57-.15 2.64-.86 3.09-1l1.07-.35a1.49 1.49 0 0 1 .56-.09.16.16 0 0 1 .12.17.59.59 0 0 1 -.05.21h.17l.63-2.07-.17-.05a.86.86 0 0 1 -.13.2.19.19 0 0 1 -.22 0m-37.26 44-2.37-5c-.05-.1-.05-.17 0-.23a.63.63 0 0 1 .19-.15l-.08-.15-1.88.9.07.16a.79.79 0 0 1 .24 0c.06 0 .12 0 .17.15l1.24 2.6-2.91-1.54a1.06 1.06 0 0 1 -.3-.19.18.18 0 0 1 0-.21.67.67 0 0 1 .14-.11l-.08-.16-2.58 1.02.08.17a.47.47 0 0 1 .22 0c.08 0 .13 0 .18.15l2.37 5v.22a.37.37 0 0 1 -.17.13l.08.17 1.89-.78-.08-.16a.64.64 0 0 1 -.23 0 .29.29 0 0 1 -.16-.15l-1.64-3.45c.5.31 2.44 1.3 2.85 1.51l1 .53a1.2 1.2 0 0 1 .44.34.14.14 0 0 1 0 .19 1.16 1.16 0 0 1 -.2.12l.08.16 2-1-.06-.16a.92.92 0 0 1 -.25.05c-.06 0-.12-.06-.17-.15m9-12.63-1.87 1.41.11.13a2.07 2.07 0 0 1 .25-.13c.08 0 .15 0 .22.11l3.53 4.31c.06.09.07.15 0 .21a.72.72 0 0 1 -.19.22l.12.14 1.87-1.41-.1-.13a1.37 1.37 0 0 1 -.26.12.25.25 0 0 1 -.22-.1l-3.52-4.31c-.08-.08-.1-.15 0-.22a.62.62 0 0 1 .17-.22zm-18.33 10.19-2.24.76.06.17a.74.74 0 0 1 .28 0c.08 0 .12 0 .16.15l1.84 5.15v.22a.83.83 0 0 1 -.24.15l.06.16 2.22-.78-.06-.16a.78.78 0 0 1 -.28 0c-.08 0-.13-.06-.17-.16l-1.91-5.17c0-.1 0-.18 0-.22a.91.91 0 0 1 .25-.15zm-9.92 2.8-.09-.42a5.67 5.67 0 0 0 -.56.46 2.58 2.58 0 0 0 -.49.6 2.67 2.67 0 0 0 -.26.72 2.22 2.22 0 0 0 0 .85 1.64 1.64 0 0 0 .4.86.77.77 0 0 0 .77.26.94.94 0 0 0 .7-1.14 1 1 0 0 0 -.46-.73 1.13 1.13 0 0 0 -.75-.1 1.4 1.4 0 0 1 .2-.81 2.32 2.32 0 0 1 .53-.55m42.64-21.5-1.24 1.52-1.45-2.31zm2.23 1 1.17-1.53-.15-.11a.33.33 0 0 1 -.13.09.23.23 0 0 1 -.14 0c-.26-.09-5.29-1.63-5.54-1.7l-.4-.15a.14.14 0 0 1 0-.21l-.14-.11-1.55 1.9.15.11a.16.16 0 0 1 .22 0l.36.53c.22.33 2.56 3.94 3 4.54a.14.14 0 0 1 0 .14.25.25 0 0 1 -.05.13l.14.12 1.02-1.42-.14-.11a.13.13 0 0 1 -.07.06s-.08 0-.14 0a.68.68 0 0 1 -.11-.16l-.46-.69 1.73-2.11c.07 0 .72.21.8.25l.17.07c0 .06.08.09 0 .13a.18.18 0 0 1 0 .07zm-21.49 15.8-1.71 1-.51-2.67zm1.75 1.69 1.64-1-.09-.15a.21.21 0 0 1 -.14 0 .23.23 0 0 1 -.14 0c-.21-.18-4.37-3.36-4.55-3.51a2.47 2.47 0 0 1 -.32-.28c-.05-.08 0-.14.06-.2l-.09-.15-2.15 1.23.08.15c.1 0 .16 0 .2.05a4.69 4.69 0 0 1 .17.64c.08.36.93 4.55 1.08 5.24a.19.19 0 0 1 0 .15.19.19 0 0 1 -.09.09l.08.16 1.57-.83-.1-.15h-.08a.15.15 0 0 1 -.12-.07c0-.05 0-.1-.06-.18s-.12-.74-.15-.82l2.39-1.37.68.52.13.13v.13l-.08.06zm-19.36 5.79-1.91.5.25-2.7zm1.21 2.08 1.88-.56v-.16a.38.38 0 0 1 -.15 0 .15.15 0 0 1 -.11-.08c-.17-.22-3.29-4.38-3.43-4.58l-.23-.33c0-.08 0-.15.11-.19v-.16l-2.42.62.06.18c.11 0 .17 0 .18.1a3.32 3.32 0 0 1 0 .64c0 .36-.39 4.63-.43 5.35a.15.15 0 0 1 -.06.13.46.46 0 0 1 -.13.08v.16l1.74-.39v-.17h-.08s-.08 0-.09-.1a.57.57 0 0 1 0-.19c0-.08.06-.76.06-.83l2.69-.72c0 .06.44.62.5.69a.59.59 0 0 1 .08.17v.12a.12.12 0 0 1 -.08 0zm32.6-19.32 1.64-1.74-.12-.12a.28.28 0 0 1 -.15.06.42.42 0 0 1 -.22 0l-4-1.06c0-.21-.14-1.49-.17-1.81s0-.61 0-.86a1 1 0 0 1 .1-.55l-.14-.12-1.61 1.71.14.11.17-.09c.07 0 .14 0 .23.06a.77.77 0 0 1 .07.24c0 .13 0 .29.07.5s.16 2.63.18 2.79l-2-1.85a.17.17 0 0 1 -.08-.21 1.06 1.06 0 0 1 .12-.2l-.14-.12-1.64 1.48.13.14a.24.24 0 0 1 .17-.13.24.24 0 0 1 .22.08l4.1 3.84a.21.21 0 0 1 .07.21.21.21 0 0 1 -.08.17l.12.12 1.62-1.52-.13-.12a.67.67 0 0 1 -.2.12c-.08 0-.14 0-.23-.07l-.87-.81-.21-1.58 2.49.69a.88.88 0 0 1 .22.09c.07.08.1.15.07.22a1.36 1.36 0 0 1 -.12.18zm-37.55 12.1.28.9 2.25-.65-.28-.9zm.15.45 2.24-.65m54.8-78.81.57-.15a6.49 6.49 0 0 0 -.71-.79 3.75 3.75 0 0 0 -.88-.63 3.33 3.33 0 0 0 -1-.33 3 3 0 0 0 -1.17.1 2.33 2.33 0 0 0 -1.11.65 1.11 1.11 0 0 0 -.23 1.12 1.38 1.38 0 0 0 .62.79 1.3 1.3 0 0 0 1 .11 1.24 1.24 0 0 0 .93-.7 1.75 1.75 0 0 0 0-1.11 1.77 1.77 0 0 1 1.12.24 3.37 3.37 0 0 1 .82.72m.19 5.39-.7-3.3h-.24a1.46 1.46 0 0 1 0 .4c0 .11-.1.17-.24.2l-7.16 1.49a.26.26 0 0 1 -.3-.09 2.45 2.45 0 0 1 -.14-.38h-.24l.71 3.32h.23a1 1 0 0 1 0-.41c0-.1.09-.17.23-.2l7.26-1.47a.26.26 0 0 1 .3.09 1.37 1.37 0 0 1 .16.36zm-135.79-26.21-1.83 2.9.21.12a1 1 0 0 1 .27-.3c.08-.07.18-.06.31 0l6.35 3.72a.26.26 0 0 1 .15.26 1.47 1.47 0 0 1 -.15.38l.2.12 1.82-2.89-.19-.12a1.48 1.48 0 0 1 -.29.31.27.27 0 0 1 -.31 0l-6.34-3.72a.24.24 0 0 1 -.15-.26 1.39 1.39 0 0 1 .14-.38zm41.19-30-3.32 1 .07.22a2.07 2.07 0 0 1 .43-.06c.09 0 .16.08.22.21l2.33 6.81c0 .13 0 .23-.06.29a1.13 1.13 0 0 1 -.37.2l.07.21 3.33-1-.08-.22a1.47 1.47 0 0 1 -.4.06.26.26 0 0 1 -.25-.2l-2.31-6.78a.25.25 0 0 1 .05-.3 1.53 1.53 0 0 1 .37-.19zm92.09 46.45-1.18-3.19-.22.07a1.53 1.53 0 0 1 .08.41.25.25 0 0 1 -.2.22l-7 2.44a.26.26 0 0 1 -.3 0 1.18 1.18 0 0 1 -.21-.36l-.23.08 1.17 3.19.22-.08a1.4 1.4 0 0 1 -.07-.4c0-.1.07-.18.2-.23l7-2.44a.25.25 0 0 1 .31.05 1 1 0 0 1 .21.35zm-13.72-23.76-2-2.21-.19.13a.44.44 0 0 1 .06.16.24.24 0 0 1 -.09.2c0 .06-4.5 6-4.54 6a.48.48 0 0 1 -.57-.14l-.2.13 2.36 2.71.19-.13a1.27 1.27 0 0 1 -.14-.3.15.15 0 0 1 .06-.2 1.71 1.71 0 0 1 .41-.18l3.78-1.26.52-.2a5.29 5.29 0 0 0 -.33.44c-.16.21-2.13 3-2.27 3.19a1.87 1.87 0 0 1 -.29.35c-.11.07-.29 0-.52-.25l-.19.14 2.13 2.94.19-.14a.42.42 0 0 1 0-.58l6.9-2.49.36-.1a.4.4 0 0 1 .34.14l.19-.14-1.58-2.32-.19.14a.63.63 0 0 1 .16.3.31.31 0 0 1 -.12.29c-.08 0-4.54 1.76-4.67 1.83.06-.07 2.54-3.63 2.68-3.83a3.31 3.31 0 0 1 .25-.33.28.28 0 0 1 .31 0 .73.73 0 0 1 .27.22l.18-.14-2.16-2.73-.18.14a.74.74 0 0 1 .14.28.26.26 0 0 1 -.12.29 2.45 2.45 0 0 1 -.44.2c-.22.08-4.35 1.42-4.47 1.48.08-.1 3-3.9 3.08-3.92a.27.27 0 0 1 .31-.05 1 1 0 0 1 .25.21zm5.17 17.37-1.35-2.51 3.68-.28zm-2.38 2.19 1.21 2.66.21-.1a.65.65 0 0 1 -.06-.21.27.27 0 0 1 .07-.18c.23-.26 4.91-5.82 5.12-6.06a2.91 2.91 0 0 1 .37-.39c.11-.06.2 0 .29.1l.2-.1-1.67-3.14-.2.1c.05.14 0 .24-.06.29a5 5 0 0 1 -.84.12l-7.57.72a.25.25 0 0 1 -.2-.05.7.7 0 0 1 -.14-.16l-.2.11 1.33 2.26.21-.11a.55.55 0 0 1 0-.12c0-.06 0-.11.1-.15a.61.61 0 0 1 .24-.05c.11 0 1.07-.09 1.17-.11l1.89 3.51c-.07.07-.72.83-.79.92a1.22 1.22 0 0 1 -.18.15q-.13.06-.18 0a.31.31 0 0 1 -.09-.12zm-12.44-21.78-2.19-1.88 3.32-1.52zm-1.46 2.88 2.11 2 .16-.16a.45.45 0 0 1 -.13-.17.19.19 0 0 1 0-.19c.12-.33 2.45-7.13 2.56-7.42s.2-.47.22-.49.17-.09.3 0l.15-.16-2.71-2.38-.15.17c.11.11.11.21 0 .28a3.2 3.2 0 0 1 -.74.4l-6.77 3.33a.23.23 0 0 1 -.2 0 .47.47 0 0 1 -.2-.1l-.15.18 2.09 1.64.15-.16-.09-.1c0-.05 0-.11 0-.17a.68.68 0 0 1 .21-.14c.11 0 1-.44 1-.49l3.19 2.63c0 .1-.36 1-.39 1.13a1.07 1.07 0 0 1 -.12.21c-.07.07-.12.09-.17.06l-.11-.07zm-10.56-12.12 3.29 2-1.55 2.41a.28.28 0 0 1 -.28.15 1 1 0 0 1 -.33-.12l-.12.19 2.74 1.85.12-.19a.83.83 0 0 1 -.25-.24.27.27 0 0 1 0-.31l4-6.07a.25.25 0 0 1 .27-.15 1.56 1.56 0 0 1 .34.12l.12-.2-2.79-1.85-.13.2a.9.9 0 0 1 .24.24c.08.08.07.18 0 .3l-1.3 2-3.32-2 1.33-2.05a.25.25 0 0 1 .25-.15 1.62 1.62 0 0 1 .35.12l.11-.19-2.89-1.62-.13.19a1.56 1.56 0 0 1 .26.24.26.26 0 0 1 0 .3l-3.93 6.1c-.08.12-.16.17-.26.15a.93.93 0 0 1 -.34-.12l-.13.2 2.89 1.63.13-.19a1 1 0 0 1 -.25-.24c-.06-.08 0-.18 0-.3zm-14.23-10.67-2.42 6.79a.28.28 0 0 1 -.23.21 1.18 1.18 0 0 1 -.35 0l-.08.21 3.19 1 .07-.21a1.27 1.27 0 0 1 -.31-.19.23.23 0 0 1 0-.29l.87-2.41 3.06 1a.4.4 0 0 1 .16.14v.38l.2.07.85-2.38-.21-.06c-.06.16-.13.26-.2.28a.37.37 0 0 1 -.23 0l-3-1 .58-1.63 4.52 1.51a.37.37 0 0 1 .16.15.45.45 0 0 1 0 .37l.21.07.86-2.4-.19-.07c-.07.17-.14.27-.22.29a.37.37 0 0 1 -.23 0l-7.24-2.45-.06.22a2.1 2.1 0 0 1 .34.18.24.24 0 0 1 0 .3m-7.56-.4a2.83 2.83 0 0 1 .9.32 2.51 2.51 0 0 1 .67.58 2.07 2.07 0 0 1 .38.79 2.53 2.53 0 0 1 0 1 2.39 2.39 0 0 1 -.37.89 2 2 0 0 1 -.64.6 2.48 2.48 0 0 1 -.84.3 2.39 2.39 0 0 1 -1 0 2.65 2.65 0 0 1 -.88-.32 2.4 2.4 0 0 1 -.68-.58 2 2 0 0 1 -.37-.79 2.17 2.17 0 0 1 0-1 2.58 2.58 0 0 1 .36-.9 2.26 2.26 0 0 1 .64-.59 2.7 2.7 0 0 1 .85-.31 2.48 2.48 0 0 1 .94 0m.29-2.02a6.28 6.28 0 0 0 -1.68-.06 4.66 4.66 0 0 0 -1.63.47 4 4 0 0 0 -1.34 1.11 4 4 0 0 0 -.78 1.81 4.09 4.09 0 0 0 0 2 3.77 3.77 0 0 0 .91 1.46 4.36 4.36 0 0 0 1.34 1 6.83 6.83 0 0 0 1.6.53 6.25 6.25 0 0 0 1.68.07 4.13 4.13 0 0 0 1.63-.45 4 4 0 0 0 1.34-1.15 4.05 4.05 0 0 0 .78-1.81 4.27 4.27 0 0 0 0-2 3.67 3.67 0 0 0 -.82-1.49 5 5 0 0 0 -1.35-1 6.33 6.33 0 0 0 -1.68-.49m-16 6.58-.13-2.5 2.73-4.83a.32.32 0 0 1 .21-.16 1.08 1.08 0 0 1 .25-.05v-.25h-3.45v.22h.23a.17.17 0 0 1 .16.18 1.83 1.83 0 0 1 -.2.48c-.13.24-1.16 2-1.21 2.13l-1.59-2.01a1 1 0 0 1 -.18-.4c0-.1 0-.15.15-.17a1.11 1.11 0 0 1 .25 0v-.25l-3.72.32v.22h.28a.33.33 0 0 1 .23.13l3.55 4.61.13 2.41q0 .21-.12.27a1.25 1.25 0 0 1 -.25.09v.22l3.11-.15v-.22a1.45 1.45 0 0 1 -.26-.07.28.28 0 0 1 -.13-.25m-8.89-7-7.31 1.44a.36.36 0 0 1 -.22 0c-.08 0-.13-.13-.18-.31h-.21l.56 2.69h.22c0-.18 0-.3 0-.36a.44.44 0 0 1 .19-.12l2.47-.48 1.17 5.66c0 .13 0 .23-.07.28a.72.72 0 0 1 -.25.12v.23l3.12-.61v-.22a1 1 0 0 1 -.29 0q-.15 0-.18-.24l-1.17-5.7 2.46-.47a.31.31 0 0 1 .23 0 .38.38 0 0 1 .17.3h.21l-.57-2.7h-.2a.48.48 0 0 1 0 .36.5.5 0 0 1 -.19.12m-20.97 12.25.41 2.56h.22a2.34 2.34 0 0 1 .09-.24.28.28 0 0 1 .16-.16 2.43 2.43 0 0 1 .41-.08c.26 0 .56-.08.93-.16a10.63 10.63 0 0 0 1.17-.3 9.26 9.26 0 0 0 1.22-.44 5.91 5.91 0 0 0 1.49-.87 3 3 0 0 0 .85-1 2.15 2.15 0 0 0 .26-1.08 2.21 2.21 0 0 0 -.24-1 1.84 1.84 0 0 0 -.93-1 3 3 0 0 0 -1.28-.21 6.73 6.73 0 0 0 -1.42.25l-1.35.39a8 8 0 0 1 -1.06.23.56.56 0 0 1 -.6-.27.5.5 0 0 1 0-.53 1.94 1.94 0 0 1 .44-.47 4.1 4.1 0 0 1 .56-.36l.53-.26a4.65 4.65 0 0 1 .84-.29 5 5 0 0 1 .79-.13 4.26 4.26 0 0 1 .59 0c.17 0 .27 0 .3.08v.11a.46.46 0 0 0 0 .09h.26v-2.57h-.21a1.82 1.82 0 0 0 -.08.19.33.33 0 0 1 -.18.17 2.41 2.41 0 0 1 -.46.12l-.79.17c-.31.06-.65.16-1 .27a8.42 8.42 0 0 0 -1.12.41 5.37 5.37 0 0 0 -1.55 1 3.56 3.56 0 0 0 -.81 1.11 2.47 2.47 0 0 0 -.21 1.1 2.36 2.36 0 0 0 .21.93 1.77 1.77 0 0 0 .91.95 3 3 0 0 0 1.27.18 6.57 6.57 0 0 0 1.41-.26l1.35-.4a5.13 5.13 0 0 1 1.01-.23.57.57 0 0 1 .64.79 1.27 1.27 0 0 1 -.31.41 1.58 1.58 0 0 1 -.44.31l-.39.19a8.15 8.15 0 0 1 -1.06.38 8.94 8.94 0 0 1 -1.13.25 5.29 5.29 0 0 1 -.91.06c-.26 0-.42-.07-.46-.19a.54.54 0 0 1 0-.11v-.08zm-8.72 3.25-1.17-1.68 2-1.3a1.48 1.48 0 0 1 1.06-.33 1 1 0 0 1 .64.44.9.9 0 0 1 .17.81 1.32 1.32 0 0 1 -.59.7zm-3.64-1.32 4.16 5.93c.08.12.09.21 0 .29a.72.72 0 0 1 -.14.19l.13.18 2.45-1.73-.13-.17a1.11 1.11 0 0 1 -.31.1c-.09 0-.17 0-.26-.14l-1.49-2.12 1.42-.92c.06.05 2 1.05 2.21 1.19a1.59 1.59 0 0 1 .43.29.16.16 0 0 1 0 .24.52.52 0 0 1 -.2.19l.15.18 3.12-1.89-.14-.18a.64.64 0 0 1 -.35.1 1.17 1.17 0 0 1 -.38-.08l-3-1.31a3.67 3.67 0 0 0 .63-1.53 2.2 2.2 0 0 0 -.47-1.62 2.47 2.47 0 0 0 -1.77-1.2 3.2 3.2 0 0 0 -2.14.6l-4.61 3.16.13.18a.9.9 0 0 1 .25-.08c.09 0 .17 0 .25.15m.67 7.2-3.66 3.31-1.3-1.36 2.42-2.18a.31.31 0 0 1 .22-.07.4.4 0 0 1 .31.18l.16-.14-1.72-1.78-.15.14c.12.13.18.23.16.32a.26.26 0 0 1 -.1.2l-2.41 2.19-1.02-1.14 3.75-3.39a.36.36 0 0 1 .23-.08.46.46 0 0 1 .33.2l.15-.14-1.76-1.84-.15.14c.11.13.18.23.16.32a.4.4 0 0 1 -.11.19l-5.82 5.31.16.17a1.74 1.74 0 0 1 .31-.18.29.29 0 0 1 .3.09l5 5.23c.08.1.11.19.06.28a1 1 0 0 1 -.19.29l.15.16 5.68-5.26a1 1 0 0 1 .25-.17c.07 0 .19 0 .35.09l.13-.11-1.69-1.76-.15.14c.16.27.16.48 0 .63m-17.53 8.94.19.14a.43.43 0 0 1 .09-.1.3.3 0 0 1 .17-.07 2.25 2.25 0 0 1 .66.16c.37.13 5.88 2.1 6.24 2.24s.6.23.61.23a.26.26 0 0 1 .12.24.38.38 0 0 1 -.1.24l.19.13 2.29-2.83-.18-.13a.35.35 0 0 1 -.22.14.3.3 0 0 1 -.27 0 3.6 3.6 0 0 1 -.36-.49c-.2-.3-3.74-5.88-3.82-6a.31.31 0 0 1 -.08-.22.39.39 0 0 1 .09-.21l-.19-.15-1.87 2.15.19.14a.79.79 0 0 1 .16-.18.17.17 0 0 1 .23 0 3.81 3.81 0 0 1 .36.53c.21.33 2.17 3.46 2.41 3.83-.09 0-4.3-1.5-4.52-1.59a2.31 2.31 0 0 1 -.37-.15.15.15 0 0 1 0-.23 2 2 0 0 1 .15-.22l-.18-.14zm2.32 11.24-6.79-2.9c-.13-.06-.19-.13-.19-.23a1.27 1.27 0 0 1 .07-.35l-.2-.09-1.39 2.7.22.09a1.46 1.46 0 0 1 .2-.28.29.29 0 0 1 .31 0l3.54 1.5c-.56.15-1.09.32-1.66.47l-1.5.43-1.13.31c-.31.08-.41.12-.49.1a.26.26 0 0 1 -.22-.24 1 1 0 0 1 0-.25l-.2-.1-1.57 3.77.22.09a.94.94 0 0 1 .2-.26.25.25 0 0 1 .35-.05l6.78 2.91c.13.06.2.13.2.22a1.21 1.21 0 0 1 -.06.31l.22.09 1.09-2.72-.23-.06a1.36 1.36 0 0 1 -.2.25.3.3 0 0 1 -.31 0l-4.64-2v-.05c.78-.18 1.55-.39 2.27-.61l2-.59 1.48-.42a1.53 1.53 0 0 1 .73-.08.18.18 0 0 1 .12.24 1.89 1.89 0 0 1 -.1.31l.22.08 1.43-2.79-.25-.09a.78.78 0 0 1 -.22.28c-.07.07-.17.07-.3 0m-13.68 16.65 4 .95a4.71 4.71 0 0 0 1.48.14 3 3 0 0 0 1.32-.37 3.06 3.06 0 0 0 1.09-1 5.82 5.82 0 0 0 .73-1.77 5.52 5.52 0 0 0 .18-1.9 2.76 2.76 0 0 0 -1.46-2.3 5.09 5.09 0 0 0 -1.38-.54l-4-1a.27.27 0 0 1 -.22-.21 2.13 2.13 0 0 1 0-.35h-.22l-.87 3h.21a1.53 1.53 0 0 1 .13-.16c.06-.06.15-.07.29 0l4.59 1.08a1.18 1.18 0 0 1 .9.7 2.21 2.21 0 0 1 0 1.28 2.15 2.15 0 0 1 -.6 1.12 1.19 1.19 0 0 1 -1.15.22l-4.57-1.14c-.14 0-.23-.08-.25-.16a.49.49 0 0 1 0-.2h-.24l-.6 3 .22.06a1.2 1.2 0 0 1 .17-.32c.05-.08.15-.11.29-.08m72.54 89.82c43.85 0 79.51-34.47 79.51-76.85s-35.64-76.87-79.51-76.87-79.53 34.48-79.53 76.92 35.68 76.8 79.53 76.8m0-156.47c45.41 0 82.37 35.72 82.37 79.62s-37 79.6-82.37 79.6-82.38-35.71-82.38-79.55 37-79.62 82.38-79.62m60.97 79.62c0 32.52-27.28 58.89-60.93 58.89s-60.93-26.41-60.93-58.89 27.28-58.93 60.93-58.93 60.93 26.36 60.93 58.93"/><path d="m200.93 35.9c0-6.92 0-8.16-.1-9.58s-.46-2.22-2-2.52a8.82 8.82 0 0 0 -1.57-.14c-.18 0-.36-.09-.36-.26s.23-.36.73-.36c2.07 0 4.87.13 5.29.13s3.17-.13 4.55-.13c.5 0 .73.09.73.36s-.18.26-.36.26a7 7 0 0 0 -1.15.14c-1.24.17-1.61 1-1.7 2.52s-.1 2.66-.1 9.58v6.21c0 6.38 1.47 9.13 3.45 11a9.19 9.19 0 0 0 6.94 2.44 9.82 9.82 0 0 0 7.22-3.19c2.11-2.53 2.66-6.3 2.66-10.87v-5.59c0-6.92 0-8.16-.09-9.58s-.46-2.22-2-2.52a8.82 8.82 0 0 0 -1.57-.14c-.18 0-.36-.09-.36-.26s.22-.36.73-.36c2.07 0 4.6.13 4.87.13s2.48-.13 3.86-.13c.51 0 .74.09.74.36s-.18.26-.37.26a7.23 7.23 0 0 0 -1.15.14c-1.24.26-1.61 1-1.7 2.52s-.09 2.66-.09 9.58v4.75c0 4.79-.55 10.11-4.23 13.25a13.79 13.79 0 0 1 -9.47 3.29c-1.56 0-6.2-.18-9.47-3.15-2.25-2.09-4-5.19-4-11.66z"/><path d="m239.54 51.42c.09 3.1.46 4 1.56 4.3a10 10 0 0 0 2 .23.31.31 0 0 1 .32.31c0 .22-.28.31-.74.31-2.29 0-3.9-.14-4.27-.14s-2.07.14-3.91.14c-.41 0-.64 0-.64-.31a.31.31 0 0 1 .32-.31 6.47 6.47 0 0 0 1.65-.23c1-.26 1.16-1.28 1.16-4.7v-21.59c0-1.51.22-1.91.55-1.91s1.15.75 1.56 1.15c.64.62 6.52 6.65 12.78 12.86 4 4 8.32 8.47 9.56 9.71l-.42-18.89c0-2.44-.27-3.28-1.51-3.5a14 14 0 0 0 -2-.18.31.31 0 0 1 -.32-.35c0-.23.32-.27.78-.27 1.84 0 3.77.09 4.23.09s1.79-.09 3.45-.09c.41 0 .73 0 .73.27a.45.45 0 0 1 -.46.35 4.65 4.65 0 0 0 -1 .09c-1.33.27-1.43 1-1.43 3.28l-.09 22.09c0 2.48-.05 2.7-.32 2.7-.42 0-.83-.31-3.08-2.31-.41-.35-6.25-5.89-10.53-10.19-4.69-4.75-9.24-9.36-10.48-10.69z"/><path d="m279.54 45.61c0 3.64 0 6.61.18 8.16.14 1.11.28 1.82 1.48 2a16.33 16.33 0 0 0 1.83.17.32.32 0 0 1 .33.31c0 .18-.19.31-.65.31-2.25 0-4.87-.13-5.06-.13s-2.75.13-4 .13c-.42 0-.65-.08-.65-.31a.31.31 0 0 1 .33-.31 6 6 0 0 0 1.24-.17c.78-.18.91-.89 1.05-2 .19-1.55.23-4.52.23-8.16v-6.61c0-5.85 0-6.92-.09-8.11s-.41-1.87-1.29-2.05a8.43 8.43 0 0 0 -1.24-.13.34.34 0 0 1 -.32-.31c0-.22.18-.31.64-.31 1.34 0 3.87.09 4.09.09s2.81-.09 4.05-.09c.46 0 .64.09.64.31a.38.38 0 0 1 -.32.31 4.62 4.62 0 0 0 -1 .09c-1.1.22-1.33.75-1.42 2.09s0 2.26 0 8.11z"/><path d="m304.14 51.64c2.34-5 7.63-17.91 8.5-20.62a6.48 6.48 0 0 0 .36-1.42.8.8 0 0 0 -.55-.8 5 5 0 0 0 -1.38-.13c-.23 0-.46-.13-.46-.31s.27-.31.92-.31c1.61 0 3.44.09 3.95.09.23 0 2-.09 3.17-.09.42 0 .65.09.65.27s-.14.35-.46.35a3.87 3.87 0 0 0 -1.93.44c-.56.36-1.2.89-2.26 3.47-.46 1.06-2.43 5.58-4.5 10.19-2.48 5.5-4.28 9.58-5.2 11.45-1.1 2.26-1.33 2.83-1.74 2.83s-.74-.48-1.52-2.3l-9.93-23.11c-.92-2.13-1.47-2.53-2.8-2.84a8.32 8.32 0 0 0 -1.57-.13.35.35 0 0 1 -.32-.35c0-.23.42-.27 1.06-.27 1.93 0 4.23.09 4.74.09s2.2-.09 3.76-.09q1.11 0 1.11.27a.37.37 0 0 1 -.42.35 5.29 5.29 0 0 0 -1.47.18.63.63 0 0 0 -.46.66 15.12 15.12 0 0 0 1.11 3.15z"/><path d="m326.3 39c0-5.85 0-6.92-.1-8.11s-.32-1.91-1.65-2.09c-.32 0-1-.09-1.38-.09a.38.38 0 0 1 -.32-.31c0-.22.18-.31.65-.31 1.83 0 4.45.09 4.68.09s8.74 0 9.65 0 1.52-.18 1.84-.22a2.43 2.43 0 0 1 .56-.18c.13 0 .18.18.18.36a17.2 17.2 0 0 0 -.32 1.77c0 .35-.14 2-.23 2.48-.05.18-.19.4-.37.4s-.32-.17-.32-.49a4.15 4.15 0 0 0 -.23-1.33c-.28-.62-.69-.88-2.9-1.15-.69-.09-5.38-.13-5.84-.13-.18 0-.23.13-.23.4v10.2c0 .27 0 .4.23.4.51 0 5.84 0 6.76-.09s1.56-.13 2-.53c.27-.27.46-.49.6-.49s.23.09.23.31a20.9 20.9 0 0 0 -.33 2.09c-.09.75-.18 2.17-.18 2.43s-.09.71-.37.71-.27-.13-.27-.35a3.12 3.12 0 0 0 -.19-1.24c-.13-.53-.5-1-2.07-1.16-1.1-.13-5.42-.17-6.11-.17-.23 0-.28.13-.28.26v3.15 6.43c.1 2.53.83 3 4.83 3a13.94 13.94 0 0 0 4.05-.4 2.86 2.86 0 0 0 1.81-2.64c.1-.44.19-.58.42-.58s.28.31.28.58a30.44 30.44 0 0 1 -.56 3.64c-.28 1-.69 1-2.25 1-3 0-5.38-.09-7-.13s-2.76-.09-3.36-.09c-.09 0-.87 0-1.74 0s-1.71.08-2.35.08c-.41 0-.64-.08-.64-.31a.31.31 0 0 1 .32-.31c.37 0 .87-.13 1.24-.17.78-.14.87-.89 1.06-2a74.16 74.16 0 0 0 .23-8.16z"/><path d="m353.56 42.15a.55.55 0 0 0 .28.49 14.15 14.15 0 0 0 4.46.58 5.43 5.43 0 0 0 3-.67c1.38-.88 2.44-2.88 2.44-5.76 0-4.7-2.67-7.41-7-7.41a18.24 18.24 0 0 0 -2.9.22.49.49 0 0 0 -.32.45zm-3.49-3.15c0-5.85 0-6.92-.1-8.11s-.32-1.91-1.65-2.09c-.32 0-1-.09-1.38-.09a.38.38 0 0 1 -.32-.31c0-.22.18-.31.64-.31 1.84 0 4.56.09 4.79.09.41 0 3.81-.09 5.05-.09 2.58 0 5.43.22 7.54 1.64a6.57 6.57 0 0 1 2.8 5.15c0 2.79-1.19 5.5-5 8.6 3.31 4 6.11 7.41 8.46 9.76 2.16 2.12 3.49 2.48 4.5 2.61a7.91 7.91 0 0 0 1.43.13.36.36 0 0 1 .37.31c0 .23-.24.31-1 .31h-2.53a8.43 8.43 0 0 1 -4.32-.75c-1.75-.89-3.22-2.7-5.52-5.54-1.7-2-3.49-4.48-4.36-5.5a.63.63 0 0 0 -.55-.22l-5.15-.09c-.19 0-.28.09-.28.31v.89c0 3.63 0 6.56.18 8.11.14 1.11.37 1.82 1.61 2a15.1 15.1 0 0 0 1.8.17.28.28 0 0 1 .32.31c0 .18-.18.31-.65.31-2.2 0-4.77-.13-5-.13s-2.76.13-4 .13c-.41 0-.64-.08-.64-.31a.31.31 0 0 1 .32-.31 5.87 5.87 0 0 0 1.24-.17c.78-.18.87-.89 1.06-2a74.16 74.16 0 0 0 .23-8.16z"/><path d="m378.71 56c-.55-.26-.6-.4-.6-1.42 0-1.86.19-3.37.23-4 0-.4.09-.62.33-.62s.36.13.36.45a5.34 5.34 0 0 0 .14 1.37c.64 2.75 3.68 3.73 6.39 3.73 4 0 6.07-2.18 6.07-5s-1.52-4-5.1-6.56l-1.84-1.33c-4.37-3.15-5.8-5.46-5.8-8.07 0-4.43 3.64-7.1 9-7.1a20.24 20.24 0 0 1 4.18.45 5.65 5.65 0 0 0 1.43.17c.32 0 .41.05.41.27a39.48 39.48 0 0 0 -.18 4c0 .58-.05.84-.33.84s-.32-.17-.36-.48a6.75 6.75 0 0 0 -.6-1.86c-.28-.45-1.61-1.87-5.24-1.87-2.94 0-5.38 1.42-5.38 4.08 0 2.4 1.24 3.77 5.24 6.39l1.15.75c4.92 3.24 6.62 5.86 6.62 9.09a7.3 7.3 0 0 1 -3.83 6.44c-1.7 1.07-4.23 1.33-6.44 1.33a15.24 15.24 0 0 1 -5.88-1"/><path d="m407.72 45.61c0 3.64 0 6.61.18 8.16.14 1.11.28 1.82 1.47 2a16.7 16.7 0 0 0 1.84.17.31.31 0 0 1 .32.31c0 .18-.18.31-.64.31-2.25 0-4.87-.13-5.06-.13s-2.75.13-4 .13c-.42 0-.65-.08-.65-.31a.31.31 0 0 1 .32-.31 5.79 5.79 0 0 0 1.24-.17c.79-.18.92-.89 1.06-2 .19-1.55.23-4.52.23-8.16v-6.61c0-5.85 0-6.92-.09-8.11s-.41-1.87-1.29-2.05a8.43 8.43 0 0 0 -1.24-.13.34.34 0 0 1 -.32-.31c0-.22.18-.31.64-.31 1.34 0 3.86.09 4.09.09s2.81-.09 4.05-.09c.46 0 .64.09.64.31a.38.38 0 0 1 -.32.31 4.58 4.58 0 0 0 -1 .09c-1.1.22-1.33.75-1.43 2.09s0 2.26 0 8.11z"/><path d="m431.08 45.61c0 3.64 0 6.61.18 8.16.14 1.11.32 1.82 1.56 2a15.5 15.5 0 0 0 1.84.17c.28 0 .32.18.32.31s-.18.31-.64.31c-2.21 0-4.78-.13-5-.13s-3 .13-4.18.13c-.46 0-.65-.08-.65-.31s.09-.26.32-.26a5.53 5.53 0 0 0 1.2-.18c.83-.18 1.06-.93 1.19-2 .19-1.55.19-4.52.19-8.16v-15.87l-5.84.09c-2.53 0-3.49.31-4.09 1.2a6.36 6.36 0 0 0 -.65 1.19c-.09.32-.22.36-.41.36a.3.3 0 0 1 -.27-.31c0-.4.82-3.77.87-4.08s.28-.71.41-.71a14.33 14.33 0 0 0 1.8.44c1.15.14 2.71.18 3.17.18h15.26a20.71 20.71 0 0 0 2.9-.18c.59-.09 1-.17 1.14-.17s.19.22.19.44c0 1.15-.14 3.86-.14 4.3s-.18.49-.37.49-.27-.13-.32-.67l-.06-.35c-.14-1.15-1-2-4.87-2.08l-5.05-.09z"/><path d="m458.29 46.77a6.49 6.49 0 0 0 -.87-3.86c-.32-.58-5.79-9-7.17-11a10 10 0 0 0 -2.67-2.75 4.08 4.08 0 0 0 -1.7-.53.39.39 0 0 1 -.41-.35c0-.18.14-.27.5-.27.79 0 3.82.09 4 .09s1.94-.09 3.5-.09c.46 0 .55.09.55.27s-.28.26-.65.4-.5.31-.5.62a3.09 3.09 0 0 0 .55 1.46l7.36 11.75c.82-1.59 5.88-9.66 6.62-10.91a4 4 0 0 0 .69-1.95.86.86 0 0 0 -.65-1c-.37-.09-.6-.27-.6-.45s.23-.22.65-.22c1.06 0 2.48.09 2.8.09s3.17-.09 3.95-.09c.28 0 .51.09.51.22a.46.46 0 0 1 -.51.4 4.2 4.2 0 0 0 -1.88.49 6.84 6.84 0 0 0 -2 1.86 141.42 141.42 0 0 0 -7.86 12 7.29 7.29 0 0 0 -.51 3.77v3.28c0 .62 0 2.22.14 3.77.09 1.11.37 1.82 1.56 2a15.5 15.5 0 0 0 1.84.17.31.31 0 0 1 .32.31c0 .18-.23.31-.64.31-2.25 0-4.87-.13-5.1-.13s-2.76.13-3.95.13c-.47 0-.65-.08-.65-.31a.31.31 0 0 1 .32-.31 5.51 5.51 0 0 0 1.2-.17c.82-.18 1.1-.89 1.19-2 .09-1.55.09-3.15.09-3.77z"/><path d="m213.93 93.75c0 3.77 1.71 6.65 5.94 6.6 6.15 0 8.63-8.51 8.63-13.21 0-3.41-1.83-6.61-5.78-6.61-6.4 0-8.79 8.3-8.79 13.22m-3.67-.75c0-8.21 5.6-13.84 12.18-13.84 6.25 0 9.74 3.55 9.74 9.14 0 6.47-4.78 13.48-12.82 13.35-5.89 0-9.1-3.86-9.1-8.65"/><path d="m251.12 80.65-.27 1.56h-5.85l-2 10.69a34.56 34.56 0 0 1 -2.8 8.91c-2.26 4.74-5 8.11-5.29 8.16-1.19-.67-1.15-.85-.55-1.6 2.71-2.84 3.91-6.52 4.55-10.24l2.85-15.92h-4.6l.28-1.56h4.56c1.57-8.86 6.12-14.27 9.15-14.27a1.67 1.67 0 0 1 1.61 2c-.05 1.68-.92 2.61-1.47 2.61-.87 0-.28-1.42-1.88-1.42-2.72 0-3 4.88-4.14 11.13z"/><path d="m303.35 88.06c0 4.26 0 7.76.23 9.62.14 1.29.41 2.27 1.79 2.44a20.74 20.74 0 0 0 2.07.18c.28 0 .37.14.37.27s-.23.35-.74.35c-2.52 0-5.42-.13-5.65-.13s-3.13.13-4.51.13c-.5 0-.73-.09-.73-.35s.09-.27.37-.27a7.36 7.36 0 0 0 1.38-.18c.92-.17 1.15-1.15 1.33-2.44.23-1.86.23-5.36.23-9.62v-4.65a.26.26 0 0 0 -.28-.27h-19.49a.24.24 0 0 0 -.27.27v4.65c0 4.26 0 7.76.23 9.62.14 1.29.41 2.27 1.79 2.44a20.74 20.74 0 0 0 2.07.18c.27 0 .37.14.37.27s-.23.35-.74.35c-2.53 0-5.42-.13-5.65-.13s-3.13.13-4.51.13c-.5 0-.73-.09-.73-.35s.09-.27.37-.27a7.15 7.15 0 0 0 1.37-.18c.93-.17 1.15-1.15 1.34-2.44.23-1.86.23-5.36.23-9.62v-7.8c0-6.92 0-8.16-.09-9.58s-.46-2.22-2-2.53a8.8 8.8 0 0 0 -1.5-.15c-.19 0-.37-.09-.37-.27s.23-.35.73-.35c2.07 0 5 .13 5.2.13s3.12-.13 4.5-.13c.51 0 .74.08.74.35s-.19.27-.37.27a6.87 6.87 0 0 0 -1.15.13c-1.24.22-1.61 1-1.7 2.53s-.09 2.66-.09 9.58v.93c0 .22.14.26.27.26h19.49c.14 0 .28 0 .28-.26v-.93c0-6.92 0-8.16-.09-9.58s-.46-2.22-2-2.53a8.8 8.8 0 0 0 -1.56-.13c-.18 0-.37-.09-.37-.27s.23-.35.74-.35c2.06 0 5 .13 5.19.13s3.13-.13 4.5-.13c.51 0 .74.08.74.35s-.18.27-.37.27a7 7 0 0 0 -1.15.13c-1.24.22-1.61 1-1.7 2.53s-.09 2.66-.09 9.58z"/><path d="m329.84 88.86c.18 0 .18-.09.13-.27l-4-10.33c-.22-.58-.45-.58-.68 0l-3.77 10.33c0 .18 0 .27.13.27zm-4.51-15.7c.51-1.24.69-1.46 1-1.46s.55.53 1 1.37c.74 1.6 7.22 17.17 9.7 22.88 1.47 3.38 2.57 3.86 3.45 4.13a5.65 5.65 0 0 0 1.61.22c.23 0 .5.09.5.31s-.46.31-.92.31-3.58 0-6.38-.09c-.79 0-1.43 0-1.43-.26s.09-.18.27-.27a.69.69 0 0 0 .37-1l-3.63-8.65c-.09-.17-.14-.22-.37-.22h-9.4a.42.42 0 0 0 -.41.31l-2.3 6a7.55 7.55 0 0 0 -.6 2.53c0 .75.69 1 1.38 1h.37c.32 0 .41.13.41.31s-.23.31-.6.31c-1 0-3.17-.13-3.63-.13s-2.43.13-4.09.13c-.5 0-.78-.09-.78-.31a.35.35 0 0 1 .37-.31 10.14 10.14 0 0 0 1.19-.09c1.84-.22 2.63-1.55 3.41-3.46z"/><path d="m372.27 95.33h.18c1-3.1 4.65-14 6.07-18.84a7.82 7.82 0 0 0 .46-2.35c0-.67-.32-1.11-2.16-1.11a.39.39 0 0 1 -.37-.36c0-.18.18-.26.69-.26 2.07 0 3.77.08 4.14.08s2-.08 3.26-.08c.37 0 .55.08.55.22a.36.36 0 0 1 -.36.4 6.43 6.43 0 0 0 -1.38.18c-1.2.4-1.84 1.9-2.62 4-1.8 4.78-5.79 16.76-7.4 21-1.06 2.8-1.29 3.24-1.75 3.24s-.78-.49-1.33-2l-7.91-20.62c-1.34 3.29-6.85 17.08-8.34 20.58-.69 1.6-1 2-1.42 2s-.74-.4-1.56-3l-7.18-22.35c-.64-2-1.05-2.48-2.11-2.84a7.78 7.78 0 0 0 -1.84-.22.37.37 0 0 1 -.37-.36c0-.18.28-.26.64-.26 2.12 0 4.37.08 4.79.08s2.2-.08 4.22-.08c.56 0 .74.08.74.26a.4.4 0 0 1 -.41.36 3.54 3.54 0 0 0 -1.43.22.77.77 0 0 0 -.55.8 21.23 21.23 0 0 0 .78 3.5c.64 2.4 4.78 16.23 5.29 17.78h.09l8.46-21.06c.6-1.51.87-1.73 1.1-1.73s.6.49 1.1 1.77z"/><path d="m400.78 88.86c.18 0 .18-.09.13-.27l-4-10.33c-.23-.58-.47-.58-.69 0l-3.77 10.33c0 .18 0 .27.13.27zm-4.51-15.7c.51-1.24.69-1.46 1-1.46s.55.53 1 1.37c.74 1.6 7.22 17.17 9.7 22.88 1.47 3.38 2.57 3.86 3.45 4.13a5.7 5.7 0 0 0 1.61.22c.23 0 .5.09.5.31s-.45.31-.92.31-3.58 0-6.39-.09c-.78 0-1.42 0-1.42-.26s.09-.18.27-.27a.69.69 0 0 0 .37-1l-3.63-8.65c-.09-.17-.14-.22-.37-.22h-9.44a.42.42 0 0 0 -.41.31l-2.3 6a7.55 7.55 0 0 0 -.6 2.53c0 .75.69 1 1.38 1h.37c.32 0 .41.13.41.31s-.22.31-.59.31c-1 0-3.18-.13-3.64-.13s-2.43.13-4.09.13c-.5 0-.78-.09-.78-.31a.35.35 0 0 1 .37-.31 10.14 10.14 0 0 0 1.19-.09c1.85-.22 2.63-1.55 3.41-3.46z"/><path d="m423.81 90c0 3.63 0 6.61.18 8.16.14 1.1.28 1.82 1.48 2a16.66 16.66 0 0 0 1.83.18.32.32 0 0 1 .33.31c0 .18-.19.31-.65.31-2.25 0-4.87-.13-5.06-.13s-2.75.13-4 .13c-.42 0-.65-.09-.65-.31a.32.32 0 0 1 .33-.31 6 6 0 0 0 1.24-.18c.78-.17.91-.89 1-2 .19-1.55.23-4.53.23-8.16v-6.68c0-5.86 0-6.92-.09-8.12s-.41-1.86-1.29-2a7.15 7.15 0 0 0 -1.24-.13.34.34 0 0 1 -.32-.31c0-.23.19-.31.65-.31 1.33 0 3.86.08 4.08.08s2.81-.08 4.05-.08c.46 0 .64.08.64.31a.38.38 0 0 1 -.32.31 4.62 4.62 0 0 0 -1 .09c-1.1.22-1.33.75-1.42 2.08s-.05 2.26-.05 8.12z"/><path d="m438.2 74.45c.37.4.41.53.41.75s-.22.27-.41.27a14.5 14.5 0 0 1 -3.21-.8c-.56-.27-.79-.49-.79-1.15 0-3.15 2.35-6.88 4-8.74a.67.67 0 0 1 .59-.36.24.24 0 0 1 .23.23 1.41 1.41 0 0 1 -.18.57 15.3 15.3 0 0 0 -1.52 6.35 4.87 4.87 0 0 0 .92 2.88"/><path d="m453.14 90c0 3.63 0 6.61.19 8.16.14 1.1.28 1.82 1.47 2a16.81 16.81 0 0 0 1.84.18.31.31 0 0 1 .32.31c0 .18-.18.31-.64.31-2.26 0-4.88-.13-5.06-.13s-2.76.13-4 .13c-.41 0-.64-.09-.64-.31a.31.31 0 0 1 .32-.31 5.89 5.89 0 0 0 1.24-.18c.78-.17.92-.89 1.06-2 .18-1.55.23-4.53.23-8.16v-6.68c0-5.86 0-6.92-.1-8.12s-.41-1.86-1.28-2a7.34 7.34 0 0 0 -1.24-.13.33.33 0 0 1 -.32-.31c0-.23.18-.31.64-.31 1.33 0 3.86.08 4.09.08s2.8-.08 4.05-.08c.46 0 .64.08.64.31a.38.38 0 0 1 -.32.31 4.58 4.58 0 0 0 -1 .09c-1.11.22-1.34.75-1.43 2.08s-.05 2.26-.05 8.12z"/><path d="m278.77 148.62c-.4-.17-.49-.28-.49-.8 0-1.28.11-2.75.15-3.13s.11-.61.31-.61.26.22.26.39a4.32 4.32 0 0 0 .23 1.21c.55 1.75 2.44 2.33 4 2.33 2.18 0 3.51-1.33 3.51-3 0-1-.26-2.05-2.5-3.33l-1.47-.83c-3-1.69-4-3.27-4-5.34 0-2.89 2.87-4.74 6.37-4.74a15.25 15.25 0 0 1 3.59.39c.23.05.35.13.35.3s-.09 1-.09 2.83c0 .49-.11.74-.31.74s-.26-.13-.26-.41a2.65 2.65 0 0 0 -.66-1.55 3.45 3.45 0 0 0 -2.76-1.07c-1.81 0-3.44.91-3.44 2.52 0 1 .4 1.88 2.67 3.1l1 .56c3.33 1.77 4.37 3.57 4.37 5.7a5 5 0 0 1 -2.53 4.41 7.59 7.59 0 0 1 -4.22 1 11.12 11.12 0 0 1 -4.11-.61"/><path d="m299.83 142.8a4.59 4.59 0 0 0 -.57-2.46c-.18-.36-3.63-5.55-4.52-6.79a5.3 5.3 0 0 0 -1.63-1.66 2.56 2.56 0 0 0 -1.06-.31c-.21 0-.38-.08-.38-.25s.17-.22.49-.22 2.33.06 3.16.06c.55 0 1.72-.06 2.87-.06.23 0 .38.06.38.22s-.18.2-.58.31c-.2.05-.34.16-.34.36a1.78 1.78 0 0 0 .31.8c.46.72 3.76 6.23 4.2 6.9.31-.55 3.38-5.6 3.76-6.32a3 3 0 0 0 .37-1.25c0-.22-.11-.44-.55-.52-.22-.06-.45-.08-.45-.28s.14-.22.43-.22c.83 0 1.72.06 2.47.06.54 0 2.21-.06 2.7-.06.28 0 .46.06.46.19s-.2.28-.49.28a3.07 3.07 0 0 0 -1.09.28 3.27 3.27 0 0 0 -1.32 1.11 76.9 76.9 0 0 0 -4.92 7.53 5.36 5.36 0 0 0 -.31 2.36v1.88c0 .39 0 1.36.06 2.36.05.69.28 1.13 1 1.24a9.22 9.22 0 0 0 1.26.09c.29 0 .43.13.43.25s-.2.25-.54.25c-1.58 0-3.28-.09-4-.09s-2.33.09-3.28.09c-.34 0-.54-.06-.54-.25s.11-.25.4-.25a3.75 3.75 0 0 0 .89-.09c.51-.11.72-.55.77-1.24.09-1 .09-2 .09-2.36z"/><path d="m314.11 148.62c-.4-.17-.49-.28-.49-.8 0-1.28.12-2.75.15-3.13s.11-.61.32-.61.25.22.25.39a4.32 4.32 0 0 0 .23 1.21c.55 1.75 2.44 2.33 4 2.33 2.19 0 3.51-1.33 3.51-3 0-1-.26-2.05-2.5-3.33l-1.46-.83c-3-1.69-4-3.27-4-5.34 0-2.89 2.87-4.74 6.38-4.74a15.32 15.32 0 0 1 3.59.39c.23.05.35.13.35.3s-.09 1-.09 2.83c0 .49-.12.74-.32.74s-.26-.13-.26-.41a2.58 2.58 0 0 0 -.66-1.55 3.42 3.42 0 0 0 -2.81-1.11c-1.82 0-3.45.91-3.45 2.52 0 1 .4 1.88 2.67 3.1l1 .56c3.33 1.77 4.36 3.57 4.36 5.7a5 5 0 0 1 -2.53 4.41 7.58 7.58 0 0 1 -4.22 1 11.18 11.18 0 0 1 -4.11-.61"/><path d="m335.8 132.55-3.76.08c-1.46 0-2.07.2-2.44.72a2.8 2.8 0 0 0 -.43.81c-.06.19-.12.3-.28.3s-.24-.14-.24-.39.49-2.66.55-2.85.14-.44.29-.44.46.19 1.09.27a22.65 22.65 0 0 0 2.52.12h10.26a10.68 10.68 0 0 0 1.72-.12c.4-.05.6-.11.69-.11s.2.14.2.5-.06 2.25-.06 2.86c0 .25-.08.38-.23.38s-.25-.11-.28-.47v-.25c-.06-.61-.72-1.33-3-1.35l-3.19-.06v9.53c0 2.16 0 4 .15 5 .08.66.23 1.1 1 1.21a9.11 9.11 0 0 0 1.29.09c.29 0 .41.13.41.25s-.2.25-.49.25c-1.66 0-3.36-.09-4.08-.09-.57 0-2.3.09-3.3.09-.32 0-.49-.09-.49-.25s.09-.25.4-.25a3.37 3.37 0 0 0 .89-.09c.52-.11.66-.55.75-1.24.11-1 .11-2.86.11-5z"/><path d="m352.07 137.93c0-3.58 0-4.24 0-5s-.29-1.05-1.09-1.28a5.22 5.22 0 0 0 -1-.08c-.26 0-.44-.08-.44-.25s.21-.22.58-.22c1.32 0 2.93.06 3.65.06s6.4 0 6.89 0 .86-.12 1.06-.14a2.83 2.83 0 0 1 .41-.11c.14 0 .17.11.17.22a8.9 8.9 0 0 0 -.2 1.52c0 .25-.09 1.28-.15 1.55 0 .11-.08.39-.29.39s-.2-.11-.2-.3a2 2 0 0 0 -.17-.86c-.2-.42-.4-.75-1.67-.86-.42-.06-3.44-.11-4-.11-.11 0-.17.08-.17.22v5.82c0 .14 0 .25.17.25.58 0 3.85 0 4.43-.06s1-.11 1.2-.36.29-.3.4-.3.2.11.2.25-.05.52-.2 1.71c-.05.47-.11 1.42-.11 1.58s0 .53-.26.53-.23-.08-.23-.19 0-.56-.08-.86c-.15-.47-.46-.83-1.41-.92-.46 0-3.33-.11-4-.11-.11 0-.14.11-.14.25v1.88 3.5c.06 1.6.83 2 3.42 2a7 7 0 0 0 2.38-.31c.63-.28.92-.78 1.09-1.75.06-.25.12-.36.29-.36s.23.31.23.56a15.8 15.8 0 0 1 -.34 2.6c-.18.61-.41.61-1.35.61-1.9 0-3.42 0-4.66-.08s-2.18-.06-2.93-.06c-.28 0-.83 0-1.43 0s-1.24.06-1.75.06c-.32 0-.49-.09-.49-.26s.08-.24.4-.24a3.58 3.58 0 0 0 .89-.09c.52-.11.66-.55.75-1.24.11-1 .11-2.86.11-5z"/><path d="m371 131.19c.05-.38.29-.61.49-.61s.43.11.77.75l6.78 13.14 6.78-13.31c.2-.38.43-.58.65-.58s.5.25.58.75l2.3 14.55c.23 1.47.46 2.1 1.23 2.33a5.36 5.36 0 0 0 1.44.22c.23 0 .4.08.4.22s-.29.28-.66.28c-.63 0-4.22-.12-5.23-.17-.6 0-.74-.14-.74-.28s.11-.19.28-.25.21-.33.12-1l-1.4-10.23h-.08l-5.43 10.53c-.58 1.11-.72 1.33-1 1.33s-.6-.47-1-1.19c-.61-1.09-2.62-4.68-2.9-5.35-.2-.44-1.7-3.41-2.53-5h-.09l-1.2 9.19a7.31 7.31 0 0 0 -.09 1.11c0 .45.35.61.78.7a4.75 4.75 0 0 0 .89.11c.23 0 .4.11.4.22s-.23.28-.6.28c-1.07 0-2.22-.09-2.67-.09s-1.7.09-2.5.09c-.26 0-.46-.06-.46-.28s.14-.22.4-.22a4.32 4.32 0 0 0 .77-.06c.69-.08.92-1 1-1.8z"/><path d="m467.05 76.25h.55c.61 0 1.17-.22 1.17-.81 0-.42-.28-.85-1.2-.85a3.36 3.36 0 0 0 -.52 0zm0 2.34h-.58v-4.35a8.5 8.5 0 0 1 1.17-.1 2.22 2.22 0 0 1 1.33.33 1 1 0 0 1 .42.88 1.11 1.11 0 0 1 -.89 1.07c.4.07.67.42.78 1.06a3 3 0 0 0 .3 1.07h-.58a3.26 3.26 0 0 1 -.34-1.11.9.9 0 0 0 -1.05-.81h-.53zm.79-5.67a3.42 3.42 0 1 0 3.32 3.42 3.35 3.35 0 0 0 -3.32-3.42zm0-.48a3.9 3.9 0 1 1 -4 3.88 3.87 3.87 0 0 1 4-3.88z"/></g><path d="m198.35 114.85h271.3v2.03h-271.3z" fill="#fff"/><g clip-path="url(#a)"><path d="m138.14 156.52-.28-3c0-.26 0-.68 0-1-.13.36-.28.8-.43 1.14l-1.28 2.87h-.4l-1.3-3a9.08 9.08 0 0 1 -.37-1v1l-.25 3h-.49l.43-4.46h.6l1.31 2.87c.12.28.22.63.36 1.06a7.92 7.92 0 0 1 .35-1.07l1.28-2.86h.62l.44 4.46zm-5-4.46v.38h-1.76v4.08h-.47v-4.08h-1.77v-.38z" fill="#fff"/></g></svg>