<?xml version="1.0" encoding="UTF-8" standalone="no"?>
<svg
   version="1.1"
   id="svg2"
   xml:space="preserve"
   width="331.14667"
   height="115.78667"
   viewBox="0 0 331.14667 115.78667"
   sodipodi:docname="uh-logo-system.svg"
   inkscape:version="1.2 (dc2aedaf03, 2022-05-15)"
   xmlns:inkscape="http://www.inkscape.org/namespaces/inkscape"
   xmlns:sodipodi="http://sodipodi.sourceforge.net/DTD/sodipodi-0.dtd"
   xmlns="http://www.w3.org/2000/svg"
   xmlns:svg="http://www.w3.org/2000/svg"
   xmlns:rdf="http://www.w3.org/1999/02/22-rdf-syntax-ns#"
   xmlns:cc="http://creativecommons.org/ns#"
   xmlns:dc="http://purl.org/dc/elements/1.1/"><metadata
     id="metadata8"><rdf:RDF><cc:Work
         rdf:about=""><dc:format>image/svg+xml</dc:format><dc:type
           rdf:resource="http://purl.org/dc/dcmitype/StillImage" /></cc:Work></rdf:RDF></metadata><defs
     id="defs6" /><sodipodi:namedview
     pagecolor="#000000"
     bordercolor="#666666"
     borderopacity="1"
     objecttolerance="10"
     gridtolerance="10"
     guidetolerance="10"
     inkscape:pageopacity="0"
     inkscape:pageshadow="2"
     inkscape:window-width="1920"
     inkscape:window-height="1017"
     id="namedview4"
     inkscape:showpageshadow="2"
     inkscape:pagecheckerboard="0"
     inkscape:deskcolor="#d1d1d1"
     showgrid="false"
     inkscape:zoom="1.826985"
     inkscape:cx="82.376155"
     inkscape:cy="134.10072"
     inkscape:window-x="-8"
     inkscape:window-y="-8"
     inkscape:window-maximized="1"
     inkscape:current-layer="g10" /><g
     id="g10"
     inkscape:groupmode="layer"
     inkscape:label="ink_ext_XXXXXX"
     transform="matrix(1.3333333,0,0,-1.3333333,0,115.78667)"><g
       id="g12"
       transform="scale(0.1)"
       style="fill:#ffffff"><path
         d="m 466.105,176.855 h 15.25 l -10.476,-17.566 c -0.227,-0.332 -0.391,-0.605 -0.664,-0.851 -0.227,-0.223 -0.52,-0.293 -0.891,-0.372 v -0.535 h 10.461 v 0.535 c -0.222,0.079 -0.469,0.079 -0.715,0.176 -0.242,0.098 -0.386,0.305 -0.386,0.684 0,0.148 0.117,0.449 0.32,0.84 0.266,0.324 0.461,0.664 0.664,1.047 l 9.121,16.699 v 6.054 h -0.586 c 0,-0.449 -0.098,-0.714 -0.32,-0.89 -0.168,-0.176 -0.344,-0.196 -0.539,-0.196 h -21.239 c -0.199,0 -0.375,0.02 -0.585,0.196 -0.176,0.176 -0.325,0.469 -0.325,0.957 h -0.515 v -7.82 h 0.515 c 0,0.417 0.149,0.73 0.325,0.859 0.21,0.144 0.386,0.183 0.585,0.183 z m -18.117,-0.476 c 1.035,0 1.875,-0.215 2.637,-0.625 0.742,-0.41 1.328,-0.949 1.848,-1.641 0.437,-0.695 0.808,-1.437 1.082,-2.285 0.195,-0.84 0.293,-1.738 0.293,-2.609 0,-0.887 -0.098,-1.778 -0.293,-2.617 -0.274,-0.848 -0.645,-1.622 -1.082,-2.286 -0.52,-0.691 -1.106,-1.23 -1.848,-1.648 -0.762,-0.441 -1.602,-0.625 -2.637,-0.625 -1.086,0 -1.965,0.184 -2.707,0.625 -0.73,0.418 -1.402,0.957 -1.843,1.648 -0.489,0.664 -0.809,1.438 -1.036,2.286 -0.214,0.839 -0.312,1.73 -0.312,2.617 0,0.871 0.098,1.769 0.312,2.609 0.227,0.848 0.547,1.59 1.036,2.285 0.441,0.692 1.113,1.231 1.843,1.641 0.742,0.41 1.621,0.625 2.707,0.625 z m 0,5.555 c -1.797,0 -3.437,-0.301 -4.992,-0.965 -1.551,-0.606 -2.906,-1.516 -4.141,-2.649 -1.152,-1.16 -2.085,-2.507 -2.75,-4.031 -0.683,-1.562 -1.054,-3.223 -1.054,-5.07 0,-1.844 0.371,-3.535 1.054,-5.125 0.665,-1.485 1.598,-2.871 2.75,-4.004 1.235,-1.133 2.59,-2.004 4.141,-2.598 1.555,-0.637 3.195,-0.929 4.992,-0.929 1.7,0 3.379,0.292 4.922,0.929 1.602,0.594 2.93,1.465 4.141,2.598 1.152,1.133 2.109,2.519 2.804,4.004 0.692,1.59 0.985,3.281 0.985,5.125 0,1.847 -0.293,3.508 -0.985,5.07 -0.695,1.524 -1.652,2.871 -2.804,4.031 -1.211,1.133 -2.539,2.043 -4.141,2.649 -1.543,0.664 -3.222,0.965 -4.922,0.965 z m -31.023,-3.993 c 0.437,0 0.973,-0.058 1.543,-0.136 0.64,-0.129 1.16,-0.293 1.695,-0.645 0.567,-0.215 0.988,-0.508 1.379,-0.996 0.398,-0.441 0.613,-1.047 0.613,-1.73 0,-0.711 -0.215,-1.258 -0.613,-1.707 -0.391,-0.539 -0.812,-0.852 -1.379,-1.106 -0.535,-0.215 -1.055,-0.398 -1.695,-0.535 -0.57,-0.098 -1.106,-0.129 -1.543,-0.129 -0.402,0 -0.942,0.031 -1.555,0.129 -0.566,0.137 -1.211,0.32 -1.699,0.535 -0.566,0.254 -1.008,0.567 -1.375,1.106 -0.344,0.449 -0.52,0.996 -0.52,1.707 0,0.683 0.176,1.289 0.52,1.73 0.367,0.488 0.809,0.781 1.375,0.996 0.488,0.352 1.133,0.516 1.699,0.645 0.613,0.078 1.153,0.136 1.555,0.136 z m -7.949,-13.007 -3.743,-6.387 0.567,-0.234 c 0.312,0.371 0.664,0.546 1.074,0.546 0.106,0 0.352,-0.097 0.789,-0.254 0.442,-0.167 1.035,-0.363 1.848,-0.539 0.762,-0.203 1.621,-0.339 2.656,-0.457 1.035,-0.168 2.168,-0.234 3.398,-0.234 1.875,0 3.743,0.301 5.489,0.84 1.816,0.547 3.347,1.375 4.648,2.488 1.36,1.074 2.442,2.492 3.153,4.141 0.812,1.64 1.203,3.488 1.203,5.578 0,2.098 -0.313,3.887 -0.957,5.437 -0.618,1.555 -1.504,2.786 -2.688,3.821 -1.101,1.062 -2.508,1.816 -4.082,2.304 -1.668,0.508 -3.465,0.789 -5.457,0.789 -1.262,0 -2.539,-0.136 -3.918,-0.437 -1.277,-0.324 -2.488,-0.84 -3.594,-1.484 -1.132,-0.625 -2.019,-1.524 -2.781,-2.559 -0.637,-1.105 -1.008,-2.363 -1.008,-3.859 0,-1.278 0.246,-2.469 0.688,-3.477 0.562,-1.004 1.226,-1.941 2.051,-2.656 0.957,-0.731 1.914,-1.278 2.996,-1.668 1.101,-0.371 2.312,-0.567 3.515,-0.567 1.602,0 3.028,0.196 4.407,0.614 1.304,0.422 2.878,1.054 4.507,1.855 -0.093,-1.14 -0.418,-2.137 -0.867,-2.91 -0.461,-0.828 -1.152,-1.551 -1.914,-2.07 -0.742,-0.575 -1.57,-0.946 -2.488,-1.278 -0.93,-0.265 -1.914,-0.382 -2.903,-0.382 -0.742,0 -1.503,0.05 -2.265,0.148 -0.735,0.059 -1.348,0.234 -1.945,0.43 -0.567,0.175 -1.004,0.418 -1.375,0.722 -0.372,0.282 -0.516,0.633 -0.516,1.075 v 0.437 z m -22.746,6.992 h 0.593 c 0,0.262 0.071,0.535 0.149,0.75 0.066,0.207 0.215,0.383 0.437,0.5 0.246,0.125 0.598,0.242 1.164,0.351 0.41,0.164 1.028,0.293 1.817,0.536 v -15.106 c 0,-0.352 -0.098,-0.559 -0.325,-0.684 -0.242,-0.109 -0.488,-0.128 -0.828,-0.187 v -0.547 h 9.473 v 0.547 c -0.293,0.059 -0.547,0.078 -0.789,0.187 -0.227,0.125 -0.344,0.332 -0.344,0.684 v 22.098 c 0,0.343 0.117,0.578 0.344,0.675 0.242,0.106 0.516,0.157 0.887,0.157 v 0.605 h -9.356 v -0.605 c 0.196,0 0.449,-0.051 0.645,-0.157 0.215,-0.097 0.293,-0.332 0.293,-0.675 v -1.504 c -0.078,-0.047 -0.274,-0.125 -0.567,-0.274 -0.32,-0.097 -0.633,-0.242 -0.984,-0.371 -0.344,-0.097 -0.688,-0.261 -0.93,-0.34 -0.32,-0.097 -0.5,-0.175 -0.547,-0.175 -0.246,0 -0.39,0.175 -0.437,0.449 -0.051,0.293 -0.102,0.535 -0.102,0.711 h -0.593 z m 117.238,469.148 c -6.867,16.504 1.16,39.289 1.16,39.289 -35.93,-8.554 -42.949,-30.195 -53.523,-32.277 -8.391,-1.66 -6.086,18.605 -6.086,18.605 0,0 -50.887,-26.027 -68.536,-67.109 -15.105,-35.519 -1.23,-55.285 -1.23,-55.285 l 18.652,-0.008 c -1.797,59.219 39.578,81.844 67.364,97.051 6.203,3.387 12.097,6.57 16.582,9.676 l 9.699,6.777 -1.875,-11.699 c -0.024,-0.137 -2.309,-14.481 0.594,-28.028 0.859,-3.992 2.285,-7.5 3.593,-10.878 3.274,-8.29 6.641,-16.844 2.786,-31.153 -3.301,-12.137 -13.418,-24.168 -20.903,-31.785 h 13.469 c 0,0 14.055,5.781 25.144,30.645 11.079,31.882 0.051,44.929 -6.89,66.179 z m -20.547,-62.383 c 1.031,3.614 1.426,6.641 1.426,9.407 0,5.75 -1.797,10.215 -3.86,15.41 -1.406,3.758 -2.961,7.664 -4.011,12.41 -1.328,6.172 -1.719,12.402 -1.719,17.648 0,1.348 0,2.586 0.047,3.778 -2.766,-1.582 -5.762,-3.231 -8.739,-4.852 -26.476,-14.484 -62.14,-33.945 -62.14,-84.453 0,-1.242 0.078,-2.48 0.098,-3.75 l 52.988,-0.039 c 2.629,2.246 21.75,18.934 25.91,34.441 z m -22.297,-151.57 4.949,56.395 c -7.234,-3.262 -15.703,-5.528 -25.222,-6.231 l -5.071,-93.172 c 0,-0.675 -0.672,-1.203 -1.355,-1.203 v 0 h -0.047 c 0,0 0,0 0.047,0 -0.742,0 -1.328,0.528 -1.36,1.203 l -5.066,93.172 c -9.551,0.676 -17.961,2.903 -25.242,6.094 l 4.922,-56.258 -178.742,74.324 c 5.363,-14.238 70.703,-186.875 71.66,-189.492 l 113.547,-50.398 2.586,44.414 c 0,0.39 0.339,0.789 0.742,0.789 0.437,0 0.832,-0.399 0.832,-0.789 l 4.234,-48.156 h 0.024 l 4.011,-45.977 c 0.227,-4.16 3.672,-7.449 7.805,-7.449 4.258,0 7.605,3.269 7.801,7.429 l 4.133,45.997 v 0 l 4.175,48.156 c 0,0.39 0.371,0.789 0.793,0.789 0.442,0 0.813,-0.399 0.813,-0.789 l 2.586,-44.414 113.574,50.398 c 0.957,2.617 66.223,175.254 71.582,189.492 z m -139.016,94.942 c 18.821,-12.188 50.715,-39.583 67.532,-56.954 -40.711,71.063 -71.25,86.68 -79.59,88.934 z m 72.153,-76.934 c -66.446,66.355 -109.707,86.746 -130.356,90.555 l 15.703,-41.368 z m 104.683,91.387 H 369.336 c -2.898,0 -5.281,-2.414 -5.281,-5.364 0,-2.918 2.383,-5.339 5.281,-5.339 h 129.148 c 2.981,0 5.325,2.421 5.325,5.339 0,2.95 -2.344,5.364 -5.325,5.364 z M 376.008,517.988 c 6.004,-14.246 25.887,-33.261 57.91,-33.261 32.137,0 51.082,19.015 58.367,33.261 z m 182.285,36.055 c -8.32,-2.254 -38.891,-17.871 -79.641,-88.934 16.856,17.371 48.75,44.766 67.657,56.954 z m 30.437,-59.727 15.657,41.368 c -20.578,-3.809 -63.84,-24.2 -130.305,-90.555 z m 150.047,-63.75 -0.047,7.063 h -49.835 c -0.641,64.441 -16.559,124.324 -43.563,174.168 h 36.848 l -5.293,7.07 h -35.492 c -23.282,40.625 -53.993,74.18 -89.598,97.461 0,0 -2.395,0.899 -3.723,1.543 -1.472,0.734 -11.414,4.414 -11.414,4.414 -9.726,3.586 -27.019,8.254 -27.019,8.254 49.961,-20.148 92.996,-59.738 123.629,-111.672 h -88.141 c -4.211,13.77 -8.859,26.856 -14.055,39.094 -15.527,36.902 -34.226,63.711 -54.851,79.16 0,0 -3.301,0.508 -5.442,0.789 -2.09,0.254 -10.703,1.113 -10.703,1.113 31.641,-15.671 59.18,-59.519 77.781,-120.156 h -13.113 c 0,0 1.067,-2.82 1.699,-7.07 h 13.535 c 4.29,-14.793 8.047,-30.508 11.27,-47 0,0 3.367,1.375 5.242,1.973 l 1.43,0.488 c -3.078,15.476 -6.645,30.32 -10.703,44.539 h 90.117 c 27.437,-49.512 43.855,-109.492 44.519,-174.168 h -53.347 l -2.668,-7.063 h 56.015 C 681.34,365.91 665,305.949 637.656,256.406 h -90.293 c 3.45,11.914 6.477,24.239 9.129,37.063 l -7.871,-3.516 c -2.508,-11.633 -5.391,-22.844 -8.445,-33.547 h -67.207 l -15.918,-7.097 h 81.015 C 519.871,189.641 492.98,146.152 462.043,129.563 c 0,0 7.605,0.839 9.773,1.062 2.137,0.195 5.735,0.793 5.735,0.793 20.054,15.594 38.308,42.031 53.523,78.152 5.266,12.453 9.989,25.743 14.246,39.739 h 88.301 c -29.558,-50.391 -70.75,-89.219 -118.672,-110.071 0,0 13.164,3.653 21.321,6.7 0,0 12.839,4.796 15.964,6.339 l 2.707,1.024 c 34.454,23.351 64.207,56.301 86.829,96.008 h 34.941 c 1.211,1.464 5.262,7.097 5.262,7.097 h -36.297 c 26.824,49.875 42.703,109.758 43.269,174.16 z m 0,0 v 0 -0.105 z M 394.766,256.406 h -66.844 c -3.125,10.664 -5.93,21.809 -8.418,33.399 l -7.922,3.488 c 2.656,-12.785 5.715,-25.02 9.082,-36.887 h -90.273 c -27.364,49.543 -43.621,109.504 -44.168,174.16 h 55.711 l -2.657,7.063 H 186.27 c 0.593,64.676 16.953,124.656 44.519,174.168 h 90.039 c -4.051,-14.317 -7.644,-29.246 -10.699,-44.863 0,0 2.461,-0.594 3.934,-1.211 l 2.761,-1.153 c 3.149,16.582 6.938,32.364 11.242,47.227 h 40.196 c 1.445,2.734 4.082,7.07 4.082,7.07 h -42.156 c 18.601,60.625 46.121,104.473 77.808,120.156 0,0 -2.945,-0.203 -5.262,-0.398 -2.414,-0.187 -10.586,-1.25 -10.586,-1.25 -20.71,-15.41 -39.621,-42.324 -55.214,-79.414 -5.149,-12.238 -9.825,-25.324 -14.004,-39.094 h -88.172 c 30.926,52.434 74.59,92.317 125.203,112.305 l -2.219,-0.399 c -2.871,-0.8 -11.187,-3.136 -11.187,-3.136 -11.157,-2.879 -28.332,-10.039 -28.332,-10.039 -36.446,-23.328 -67.871,-57.274 -91.493,-98.582 -0.05,-0.051 -0.05,-0.098 -0.082,-0.149 h -36.66 l -5.269,-7.07 h 38.023 C 195.84,561.953 179.773,502.07 179.211,437.629 h -51.113 v -7.063 h 51.082 c 0.468,-64.402 16.367,-124.285 43.215,-174.16 h -37.473 c 0,0 4.922,-6.746 5.234,-7.097 h 36.106 c 23.035,-40.403 53.457,-73.84 88.672,-97.188 0,0 12.839,-5.273 18.257,-7.023 0,0 10.774,-3.836 17.024,-5.379 2.414,-0.567 4.758,-1.242 4.758,-1.242 -48.703,20.636 -90.637,59.824 -120.586,110.832 h 88.316 c 4.262,-14.043 9.008,-27.305 14.231,-39.739 15.273,-36.25 33.613,-62.754 53.82,-78.34 0,0 6.348,-0.847 11.394,-1.386 l 4.129,-0.418 c -31.035,16.433 -58.023,60.039 -76.265,119.883 h 80.75 z m -16.563,100.039 c 0.36,1.7 1.692,7.11 1.914,8.36 1.004,-2.137 4.336,-9.766 5.293,-11.856 z m 18.203,-17.597 c -1.863,3.879 -15.207,31.914 -18.23,37.922 l -0.246,0.078 c -2.266,-6.34 -7.285,-23.282 -8.418,-26.192 l 5.781,-6.484 c 0.52,1.785 1.797,7.207 2.043,7.734 l 10.73,-5.187 c 0.469,-1.055 3.172,-7.489 4.258,-9.813 z m -66.289,36.359 c 0.266,1.563 1.121,6.609 1.328,7.762 1.055,-1.961 4.895,-8.856 5.977,-10.828 z m 19.016,-15.637 c -2.192,3.508 -17.102,28.965 -20.5,34.387 l -0.242,0.086 c -1.77,-5.957 -5.442,-21.875 -6.348,-24.559 l 6.102,-5.832 c 0.339,1.672 1.281,6.758 1.425,7.258 l 10.828,-4.375 c 0.54,-0.988 3.567,-6.797 4.731,-8.957 z m -29.278,10.625 c -1.308,2.317 -17.16,33.399 -19.718,38.098 l -0.242,0.098 c -0.278,-3.567 -1.055,-15.696 -1.262,-17.891 -2.238,3.457 -12.449,20.574 -14.766,24.266 l -0.215,0.078 c 0.098,-5.352 1.375,-26.68 1.446,-30.078 l 6.23,-5.508 c -0.242,3.527 -1.473,18.176 -1.473,19.336 1.2,-1.942 10.04,-16.102 13.407,-21.328 l 0.195,-0.125 c 0.496,4.785 1.016,13.457 1.016,15.234 h 0.019 c 1.375,-2.539 10.071,-20.527 11.27,-22.961 z m 182.125,-8.047 c 0.942,2.102 4.458,9.551 5.469,11.622 0.246,-1.258 1.543,-6.602 1.899,-8.321 z m -7.253,-15.722 c 1.152,2.238 4.011,8.554 4.472,9.64 l 10.906,4.981 c 0.278,-0.598 1.504,-5.93 1.997,-7.707 l 5.906,6.348 c -1.133,2.863 -5.938,19.667 -8.125,25.917 l -0.227,-0.078 c -3.218,-5.82 -17.117,-33.367 -19.07,-37.117 z m 76.386,43.769 c 1.297,2.18 5.907,10.196 7.207,12.317 0,-1.282 0.125,-7.051 0.125,-8.899 z m -9.519,-16.718 c 1.472,2.336 5.183,9.043 5.828,10.234 l 10.945,5.039 c 0.149,-0.586 0.356,-6.445 0.371,-8.328 l 6.75,6.648 c -0.5,3.184 -1.828,21.387 -2.715,28.203 l -0.246,-0.117 c -4.011,-6.199 -21.953,-35.398 -24.382,-39.531 z m -36.797,-15.438 c 1.082,2.344 8.789,19.969 9.988,22.5 h 0.078 c 0.071,-1.738 1.184,-10.215 2.024,-14.805 l 0.144,0.059 c 3.223,5.164 11.239,19.051 12.403,20.906 0.046,-1.094 -0.176,-15.371 -0.176,-18.816 l 5.93,5.469 c -0.071,3.261 -0.364,24.082 -0.618,29.238 l -0.215,-0.078 c -2.07,-3.547 -11.496,-20.422 -13.464,-23.711 -0.293,2.109 -1.914,14.414 -2.434,17.918 l -0.273,-0.117 c -2.239,-4.598 -16.536,-35.555 -17.598,-37.832 z m -37.16,-8.508 c -2.879,-1.355 -6.817,-2.91 -7.625,-3.242 l 1.504,10.469 c 0.855,5.812 2.379,15.312 2.578,16.398 l -5.957,-2.414 c -0.051,-0.84 -1.699,-12.312 -1.77,-13.094 l -0.859,-6.171 c -0.176,-1.133 -1.68,-11.094 -2.168,-13.614 1.973,0.801 12.629,4.629 13.34,4.95 z m -36.574,-3.074 c 0.695,1.856 3.207,8.426 3.949,10.203 0.484,-1.394 3.242,-7.742 4.031,-9.715 z m -5.016,-13.82 c 0.789,1.926 2.781,7.511 3.101,8.449 l 11.836,0.711 c 0.371,-0.711 2.286,-5.879 3.227,-7.969 l 5.562,4.309 c -1.953,3.554 -10.585,22.566 -14.5,30.293 h -0.261 c -2.446,-5 -12.856,-28.664 -14.309,-31.887 z m -42.102,1.484 c 0.559,2.024 4.375,16.145 4.973,18.32 h 0.098 c 0.757,-1.882 4.871,-11.308 7.449,-16.523 h 0.195 c 2.246,4.082 7.781,15.324 8.543,16.816 0.442,-1.211 4.824,-16.191 5.91,-19.812 l 5.703,3.172 c -1.132,3.547 -8.293,25.254 -10.312,30.879 h -0.313 c -1.386,-2.93 -7.605,-16.289 -9.011,-18.973 -1.059,2.41 -7.16,15.555 -8.957,19.52 h -0.293 c -1.309,-3.965 -8.465,-27.938 -9.082,-29.852 z m -38.347,21.438 c -3.176,1.199 -5.41,2.332 -6.352,2.742 l -2.058,10.879 c -1.083,5.84 -2.668,15.058 -2.786,16.105 l -6.812,2.879 c 0.191,-0.957 2.461,-12.344 2.527,-13.047 l 1.184,-6.152 c 0.242,-1.102 2.168,-11.563 2.437,-13.875 2.219,-0.918 12.375,-5.891 13.164,-6.223 z m -44.692,44.863 14.692,-6.152 -1.528,6.296 -14.566,6.055 z M 785.41,360.43 c 0.274,1.203 0.695,2.238 1.309,3.144 0.586,0.969 1.426,1.731 2.363,2.356 0.977,0.652 2.109,1.023 3.34,1.238 1.183,0.176 2.59,0.156 3.984,-0.164 1.485,-0.227 2.715,-0.734 3.77,-1.426 1.035,-0.617 1.875,-1.457 2.512,-2.402 0.71,-0.957 1.128,-1.934 1.355,-3.067 0.215,-1.105 0.215,-2.238 0,-3.449 -0.227,-1.14 -0.645,-2.187 -1.355,-3.125 -0.637,-0.996 -1.458,-1.746 -2.434,-2.363 -0.891,-0.613 -2.024,-1.055 -3.25,-1.238 -1.211,-0.196 -2.563,-0.118 -3.984,0.105 -1.426,0.324 -2.707,0.793 -3.79,1.484 -1.015,0.625 -1.925,1.446 -2.511,2.383 -0.614,0.957 -1.035,2.012 -1.309,3.078 -0.273,1.161 -0.273,2.254 0,3.446 z m -8.242,1.621 c -0.344,-1.942 -0.391,-3.934 -0.176,-6.055 0.293,-2.09 0.988,-4.031 2.117,-5.976 1.106,-1.875 2.688,-3.543 4.7,-4.969 2.019,-1.387 4.504,-2.442 7.558,-3.059 3.074,-0.633 5.906,-0.672 8.196,-0.105 2.41,0.566 4.531,1.472 6.23,2.82 1.687,1.289 3.094,2.863 4.078,4.707 1.035,1.836 1.672,3.762 2.121,5.703 0.313,1.895 0.469,3.926 0.215,6.028 -0.215,2.07 -0.906,4.05 -1.965,5.925 -1.031,1.875 -2.554,3.496 -4.605,4.942 -1.946,1.484 -4.551,2.472 -7.602,3.105 -3.023,0.598 -5.762,0.606 -8.238,0.098 -2.492,-0.547 -4.438,-1.473 -6.234,-2.801 -1.715,-1.328 -3.153,-2.851 -4.129,-4.687 -1.164,-1.848 -1.829,-3.704 -2.266,-5.676 z M 360.996,81.3594 c 1.184,-0.2266 2.188,-0.7031 3.125,-1.3281 0.906,-0.6563 1.699,-1.4571 2.317,-2.4141 0.566,-1.0039 1.003,-2.0899 1.179,-3.3008 0.176,-1.1992 0.149,-2.5586 -0.144,-4.0039 -0.278,-1.4531 -0.715,-2.6953 -1.426,-3.7383 -0.664,-1.0859 -1.477,-1.8945 -2.461,-2.5898 -0.891,-0.6133 -1.898,-1.0352 -3.027,-1.2188 -1.118,-0.2539 -2.246,-0.2539 -3.528,0.0274 -1.133,0.2343 -2.09,0.6054 -3.047,1.289 -0.957,0.6446 -1.699,1.4571 -2.336,2.4219 -0.64,0.9766 -0.984,2.1094 -1.179,3.3008 -0.254,1.2305 -0.156,2.5976 0.195,3.9844 0.215,1.4453 0.684,2.6953 1.399,3.7812 0.64,1.0547 1.484,1.8945 2.39,2.5469 0.957,0.625 2.039,1.0469 3.098,1.2695 1.109,0.2461 2.262,0.2344 3.445,-0.0273 z m 1.672,8.2422 c -1.867,0.3984 -3.984,0.4297 -6.027,0.2226 -2.071,-0.2812 -4.082,-0.9844 -5.957,-2.0976 -1.895,-1.0352 -3.641,-2.6289 -5.02,-4.5899 -1.476,-2.0508 -2.512,-4.582 -3.125,-7.6094 -0.664,-3.1132 -0.684,-5.8984 -0.144,-8.2812 0.515,-2.4023 1.453,-4.4336 2.703,-6.1602 1.281,-1.6992 2.961,-3.0976 4.726,-4.1718 1.824,-1.0157 3.723,-1.7188 5.614,-2.1094 1.917,-0.3711 4.003,-0.5156 6.125,-0.2734 1.972,0.1953 3.984,0.832 5.859,1.875 1.848,1.0859 3.562,2.6093 4.988,4.6093 1.457,2.0117 2.492,4.5235 3.11,7.6485 0.632,3.0273 0.664,5.75 0.144,8.1328 -0.488,2.5195 -1.406,4.5625 -2.754,6.3398 -1.262,1.7383 -2.805,3.1719 -4.597,4.2266 -1.848,1.0859 -3.743,1.8164 -5.645,2.2383 z m -55.52,-7.7266 -9.843,3.7031 9.726,11.1407 z m -1.425,-12.9297 9.746,-3.289 0.371,0.8476 c -0.274,0.0703 -0.469,0.2656 -0.613,0.4297 -0.227,0.2148 -0.293,0.4687 -0.293,0.8203 0.046,1.3984 -0.098,29.3555 -0.098,30.7344 0,1.2773 0.066,2.0197 0.113,2.1757 0.18,0.43 0.5,0.598 1.067,0.43 l 0.339,0.929 -12.402,4.637 -0.32,-0.918 c 0.488,-0.242 0.664,-0.613 0.437,-1.043 -0.066,-0.254 -0.757,-1.144 -2.039,-2.676 -1.301,-1.593 -16.367,-19.4527 -18.828,-22.4605 -0.195,-0.1875 -0.39,-0.3047 -0.664,-0.3437 -0.293,-0.0274 -0.535,0 -0.762,0.0703 l -0.371,-0.8985 8.692,-3.5547 0.324,0.8399 c -0.149,0.039 -0.227,0.1367 -0.422,0.2344 -0.195,0.1367 -0.227,0.4296 -0.098,0.7031 0.098,0.164 0.293,0.4883 0.586,0.8281 0.325,0.3711 2.657,3.125 2.957,3.4961 l 13.703,-5.125 c 0,-0.3828 0,-4.1211 0,-4.5898 0,-0.4805 -0.046,-0.8399 -0.097,-1.0352 -0.164,-0.293 -0.34,-0.5195 -0.535,-0.4805 -0.246,0.0196 -0.344,0.0899 -0.453,0.0977 z M 79.5117,314.434 l -3.2734,9.992 14.8164,-0.637 z m -10.9765,-6.895 3.4453,-9.766 0.9687,0.293 c -0.1562,0.247 -0.1562,0.5 -0.1054,0.793 0.1054,0.235 0.2031,0.469 0.4453,0.614 1.1054,0.89 22.9336,18.429 23.9453,19.191 1.039,0.82 1.6211,1.289 1.7695,1.316 0.4492,0.137 0.7617,-0.027 0.9844,-0.527 l 0.9097,0.293 -4.0621,12.52 -0.8593,-0.235 c 0.125,-0.566 -0.0196,-0.906 -0.4414,-1.035 -0.2422,-0.078 -1.4532,-0.098 -3.4649,-0.078 -2.0508,0.078 -25.3515,0.742 -29.289,0.832 -0.2422,0 -0.4961,0.098 -0.6641,0.301 -0.1953,0.207 -0.3711,0.41 -0.418,0.664 l -0.9101,-0.293 2.6093,-9.051 0.9571,0.371 c -0.0782,0.067 -0.1446,0.254 -0.1446,0.477 0,0.187 0.1954,0.351 0.5157,0.48 0.2265,0.047 0.5664,0.067 0.9882,0.047 0.5157,-0.039 4.0508,-0.144 4.5508,-0.144 l 4.5274,-14.004 c -0.3203,-0.176 -3.25,-2.512 -3.5742,-2.805 -0.3868,-0.301 -0.6641,-0.418 -0.8868,-0.516 -0.3632,-0.148 -0.5859,-0.078 -0.7148,0.118 -0.1133,0.144 -0.1953,0.32 -0.2109,0.398 z m 56.3598,-84.336 -5.832,8.75 14.421,3.36 z m -8.665,-9.57 5.989,-8.524 0.73,0.536 c -0.066,0.226 -0.195,0.5 -0.195,0.793 -0.078,0.273 0,0.527 0.176,0.71 0.879,1.125 17.148,23.938 17.961,24.993 0.757,1.062 1.226,1.648 1.328,1.726 0.418,0.215 0.789,0.196 1.133,-0.254 l 0.757,0.5 -7.351,10.996 -0.762,-0.488 c 0.242,-0.469 0.195,-0.891 -0.195,-1.133 -0.203,-0.097 -1.36,-0.48 -3.281,-1.008 -1.961,-0.496 -24.582,-6.179 -28.321,-7.136 -0.273,-0.098 -0.547,-0.098 -0.793,0.066 -0.261,0.149 -0.437,0.332 -0.613,0.547 l -0.762,-0.547 5.02,-7.969 0.664,0.52 c -0.02,0.137 -0.07,0.242 -0.164,0.488 -0.051,0.196 0.094,0.41 0.387,0.614 0.148,0.117 0.492,0.195 0.941,0.292 0.484,0.079 3.934,0.969 4.324,1.086 l 8.176,-12.226 c -0.227,-0.285 -2.395,-3.254 -2.656,-3.672 -0.325,-0.363 -0.5,-0.637 -0.696,-0.715 -0.324,-0.195 -0.515,-0.195 -0.664,-0.098 -0.195,0.149 -0.273,0.293 -0.343,0.411 z m 348.028,-152.4416 -10.481,-0.7109 4.282,14.1601 z m 3.918,-12.3906 10.332,1.0351 v 0.9375 c -0.293,-0.0312 -0.539,0.0469 -0.793,0.1172 -0.242,0.1446 -0.41,0.3203 -0.559,0.5469 -0.593,1.4141 -12.183,26.875 -12.676,28.0664 -0.562,1.2383 -0.808,1.8555 -0.808,2.0508 -0.078,0.418 0.246,0.7109 0.73,0.8086 l -0.066,0.9883 -13.145,-0.9102 0.047,-0.9766 c 0.539,-0.0078 0.864,-0.2617 0.891,-0.7226 0.051,-0.2734 -0.274,-1.3672 -0.813,-3.3203 -0.515,-1.9922 -6.921,-24.4336 -7.898,-28.2031 -0.051,-0.293 -0.227,-0.4688 -0.469,-0.6524 -0.195,-0.1484 -0.469,-0.2344 -0.715,-0.2344 l 0.051,-0.9492 9.348,0.2735 -0.051,0.9765 c -0.066,0 -0.266,0 -0.519,0.0195 -0.165,0.0782 -0.34,0.2461 -0.34,0.6172 0,0.2227 0.047,0.5664 0.195,1.0352 0.145,0.3906 1.133,3.9141 1.262,4.375 l 14.519,1.0039 c 0.242,-0.4102 1.739,-3.7773 1.914,-4.2461 0.176,-0.3437 0.274,-0.7422 0.274,-0.8984 0.019,-0.3828 -0.047,-0.6055 -0.274,-0.6758 -0.175,-0.0586 -0.371,-0.1055 -0.515,-0.1055 z m -285.156,90.9062 9.773,-8.223 0.613,0.715 c -0.191,0.203 -0.293,0.508 -0.386,0.77 -0.082,0.265 -0.082,0.625 0.093,1.074 l 4.731,21.23 c 1.148,0.079 8.047,1.223 9.734,1.426 1.731,0.246 3.281,0.391 4.656,0.481 1.477,0.097 2.434,-0.02 3,-0.332 l 0.645,0.691 -9.695,7.961 -0.598,-0.676 c 0.195,-0.273 0.398,-0.586 0.598,-0.996 0.066,-0.273 0,-0.664 -0.344,-1.133 -0.125,-0.086 -0.547,-0.242 -1.231,-0.418 -0.722,-0.097 -1.629,-0.285 -2.785,-0.468 -1.062,-0.176 -14.148,-1.672 -15.113,-1.75 l 9.551,11.007 c 0.371,0.438 0.758,0.586 1.133,0.438 0.371,-0.125 0.789,-0.281 1.179,-0.547 l 0.567,0.742 -8.633,7.981 -0.645,-0.754 c 0.293,-0.184 0.52,-0.457 0.645,-0.84 0.144,-0.379 0,-0.82 -0.403,-1.27 L 170.352,154.23 c -0.352,-0.449 -0.743,-0.656 -1.164,-0.625 -0.387,0.106 -0.711,0.282 -0.958,0.575 l -0.613,-0.711 8.762,-8.028 0.66,0.711 c -0.293,0.266 -0.535,0.664 -0.684,1.036 -0.222,0.382 -0.156,0.781 0.266,1.191 l 4.207,4.894 8.52,1.426 c -0.102,-0.422 -2.953,-12.676 -3.125,-13.34 -0.149,-0.644 -0.344,-0.996 -0.422,-1.132 -0.391,-0.442 -0.762,-0.579 -1.231,-0.411 -0.437,0.184 -0.715,0.36 -0.984,0.555 z m 241.863,-92.3242 12.773,-0.1367 0.047,0.918 c -0.293,0.0976 -0.562,0.207 -0.855,0.3437 -0.176,0.2227 -0.356,0.4883 -0.547,0.9375 l -9.797,19.5 c 0.84,0.7149 5.437,5.9883 6.648,7.2461 1.235,1.25 2.368,2.3828 3.371,3.3125 1.036,0.9961 1.875,1.5313 2.493,1.6289 l 0.093,0.8985 -12.605,0.0703 v -0.9375 c 0.351,-0.0313 0.664,-0.1758 1.035,-0.3243 0.32,-0.1835 0.566,-0.5664 0.496,-1.1796 0,-0.0977 -0.222,-0.4414 -0.664,-1.0352 -0.445,-0.5195 -1.16,-1.3008 -1.891,-2.1406 -0.746,-0.8594 -9.953,-10.2813 -10.539,-10.9453 l 0.418,14.5781 c 0,0.625 0.2,0.918 0.586,1.0859 0.371,0.1172 0.766,0.2344 1.211,0.2539 l 0.024,0.9375 -11.758,0.7891 -0.051,-1.0352 c 0.422,0.0508 0.762,-0.0468 1.035,-0.2343 0.293,-0.2227 0.508,-0.625 0.508,-1.1719 L 405.938,50.625 c -0.047,-0.5859 -0.223,-0.9648 -0.567,-1.1602 -0.32,-0.1953 -0.691,-0.246 -1.113,-0.1953 V 48.332 l 11.863,-0.6757 0.024,0.9765 c -0.442,0.0195 -0.813,0.1289 -1.157,0.3438 -0.386,0.1172 -0.613,0.5156 -0.586,1.1328 l 0.215,6.4336 5.664,6.5039 c 0.168,-0.418 5.754,-11.6875 6.059,-12.2735 0.242,-0.6445 0.418,-1.0156 0.418,-1.164 0,-0.6133 -0.305,-0.9258 -0.742,-1.1016 -0.418,-0.1367 -0.789,-0.1758 -1.106,-0.1758 z m -148.762,40.9297 -16.07,8.0859 3.543,7.0116 L 274.18,98 c 0.261,-0.0977 0.437,-0.3047 0.539,-0.6836 0.144,-0.3047 0,-0.7734 -0.324,-1.4766 l 0.695,-0.371 4.644,9.2302 -0.679,0.332 c -0.371,-0.644 -0.696,-1.027 -0.989,-1.133 -0.402,-0.05 -0.664,-0.05 -0.859,0.047 l -10.586,5.371 2.852,5.704 16.445,-8.329 c 0.215,-0.128 0.41,-0.402 0.52,-0.742 0.117,-0.285 0,-0.82 -0.352,-1.504 l 0.66,-0.343 4.809,9.472 -0.696,0.324 c -0.324,-0.644 -0.617,-0.988 -0.957,-1.066 -0.339,-0.098 -0.566,-0.047 -0.839,0.078 l -25.547,12.969 -0.411,-0.887 c 0.411,-0.246 0.711,-0.539 0.926,-0.801 0.305,-0.343 0.305,-0.753 -0.015,-1.269 L 250.43,96.125 c -0.242,-0.5195 -0.567,-0.7344 -0.938,-0.7344 -0.39,0.0196 -0.793,0.0782 -1.23,0.2461 l -0.442,-0.8008 25.078,-12.7656 c 0.461,-0.2344 0.762,-0.418 0.93,-0.6133 0.176,-0.1953 0.176,-0.664 0.051,-1.4375 l 0.547,-0.2617 4.676,9.2266 -0.645,0.3711 c -0.84,-1.0938 -1.621,-1.4532 -2.336,-1.043 z m -51.043,28.1915 -14.57,10.48 4.531,6.368 9.617,-6.973 c 0.18,-0.129 0.371,-0.402 0.422,-0.684 0.098,-0.41 -0.117,-0.832 -0.539,-1.457 l 0.637,-0.437 5.984,8.398 -0.64,0.418 c -0.422,-0.594 -0.793,-0.918 -1.133,-0.957 -0.344,-0.058 -0.586,0 -0.864,0.129 l -9.597,6.953 3.691,5.164 15.012,-10.73 c 0.176,-0.188 0.367,-0.391 0.418,-0.715 0.051,-0.379 -0.195,-0.887 -0.637,-1.492 l 0.664,-0.442 6.106,8.606 -0.645,0.43 c -0.39,-0.567 -0.762,-0.86 -1.101,-0.891 -0.325,-0.059 -0.571,0.031 -0.793,0.187 l -23.25,16.668 -0.547,-0.761 c 0.347,-0.282 0.613,-0.614 0.761,-0.946 0.204,-0.351 0.172,-0.734 -0.199,-1.191 l -17.437,-24.465 c -0.324,-0.488 -0.727,-0.664 -1.133,-0.586 -0.371,0.09 -0.766,0.195 -1.137,0.422 l -0.562,-0.742 22.832,-16.457 c 0.445,-0.254 0.664,-0.528 0.808,-0.75 0.125,-0.215 0.059,-0.684 -0.168,-1.399 l 0.469,-0.398 6.074,8.465 -0.586,0.469 c -0.964,-0.958 -1.796,-1.18 -2.488,-0.684 z M 84.582,375.207 67.2578,371.457 c -2.0937,-0.5 -3.9844,-1.133 -5.6836,-1.926 -1.75,-0.906 -3.1758,-2.109 -4.3086,-3.504 -1.1328,-1.347 -1.7968,-3.086 -2.2187,-5.129 -0.3399,-1.992 -0.211,-4.355 0.2773,-7.128 0.6446,-2.704 1.4727,-4.93 2.586,-6.649 1.1328,-1.699 2.5078,-2.98 4.1132,-3.789 1.5899,-0.84 3.418,-1.289 5.3282,-1.406 1.9257,-0.098 3.8984,0.047 6.0078,0.469 l 17.4023,3.699 c 0.5664,0.129 0.9375,0.039 1.1836,-0.293 0.2227,-0.332 0.3906,-0.75 0.5156,-1.192 l 0.9883,0.168 -2.7344,11.082 -0.9101,-0.175 c -0.0274,-0.274 -0.0781,-0.469 -0.1953,-0.743 -0.1289,-0.312 -0.418,-0.507 -1.0156,-0.644 l -18.8282,-3.934 c -1.9414,-0.429 -3.4687,-0.148 -4.5234,0.809 -1.1094,0.937 -1.8945,2.363 -2.3125,4.211 -0.3711,1.836 -0.2734,3.484 0.3906,4.773 0.5938,1.36 1.9219,2.16 3.9141,2.59 l 18.7812,3.973 c 0.5352,0.109 0.9063,0.058 1.1016,-0.137 0.1992,-0.203 0.3242,-0.437 0.4414,-0.652 l 0.9375,0.215 -1.9922,11.269 -0.8594,-0.187 c 0.0508,-0.457 0.0508,-0.946 -0.0468,-1.317 -0.0508,-0.383 -0.4219,-0.625 -1.0157,-0.703 z M 150.535,221.309 136.73,209.992 c -1.593,-1.34 -3,-2.785 -4.085,-4.375 -1.153,-1.554 -1.891,-3.254 -2.235,-5.051 -0.351,-1.738 -0.246,-3.554 0.391,-5.566 0.613,-1.961 1.828,-3.965 3.613,-6.152 1.699,-2.157 3.445,-3.711 5.293,-4.746 1.824,-0.907 3.621,-1.426 5.422,-1.426 1.797,0 3.594,0.41 5.359,1.183 1.77,0.809 3.45,1.864 5.071,3.164 l 13.726,11.395 c 0.5,0.332 0.891,0.43 1.262,0.254 0.32,-0.145 0.637,-0.43 1.008,-0.809 l 0.742,0.614 -7.484,8.586 -0.743,-0.625 c 0.102,-0.208 0.129,-0.461 0.176,-0.754 0.051,-0.293 -0.144,-0.653 -0.594,-1.004 L 148.77,192.441 c -1.551,-1.211 -2.981,-1.707 -4.407,-1.328 -1.402,0.332 -2.715,1.203 -3.914,2.676 -1.179,1.516 -1.844,2.961 -1.894,4.426 -0.078,1.414 0.683,2.793 2.215,4.023 l 14.882,12.285 c 0.469,0.372 0.84,0.528 1.118,0.438 0.308,-0.066 0.535,-0.203 0.679,-0.371 l 0.766,0.617 -6.985,9.031 -0.742,-0.566 c 0.242,-0.438 0.469,-0.859 0.567,-1.18 0.078,-0.402 -0.078,-0.773 -0.52,-1.183 z m -62.7694,45.527 20.2544,10.41 0.066,-0.105 -16.0626,-18.594 24.5466,2.07 0.063,-0.097 -20.2541,-10.481 c -0.4531,-0.223 -0.8437,-0.223 -1.1641,-0.047 -0.2734,0.184 -0.539,0.496 -0.8085,0.887 l -0.8399,-0.449 5.1445,-9.2 0.793,0.411 c -0.0976,0.324 -0.1562,0.636 -0.1562,0.937 0.0586,0.363 0.2695,0.645 0.7693,0.91 l 26.719,13.739 c 0.547,0.273 0.891,0.324 1.16,0.097 0.266,-0.164 0.52,-0.359 0.715,-0.574 l 0.84,0.41 -6.875,12.254 -0.86,-0.457 c 0.176,-0.324 0.223,-0.586 0.325,-0.812 0.027,-0.196 -0.078,-0.418 -0.325,-0.516 -0.214,-0.176 -0.832,-0.285 -1.945,-0.41 -1.055,-0.11 -10.976,-0.821 -12.32,-0.969 0.308,0.344 6.98,7.902 7.945,8.867 0.93,1.074 1.524,1.613 1.672,1.731 0.242,0.105 0.391,0.086 0.586,-0.118 0.129,-0.167 0.273,-0.429 0.5,-0.683 l 0.809,0.437 -5.926,12.551 -0.84,-0.41 c 0.125,-0.324 0.144,-0.617 0.144,-1.035 0,-0.352 -0.273,-0.656 -0.761,-0.891 L 85.0313,272.941 c -0.4727,-0.265 -0.8907,-0.293 -1.211,-0.07 -0.2656,0.215 -0.4883,0.488 -0.7148,0.715 l -0.8282,-0.43 4.1485,-9.035 0.8672,0.43 c -0.1758,0.488 -0.3008,0.91 -0.3008,1.281 0,0.391 0.2266,0.711 0.7734,1.004 z m 674.4924,21.633 c 0.515,1.113 1.199,2.051 1.961,2.793 0.84,0.801 1.844,1.386 2.91,1.824 1.035,0.383 2.207,0.527 3.437,0.527 1.258,-0.097 2.539,-0.418 3.868,-1.004 1.359,-0.597 2.492,-1.347 3.371,-2.218 0.886,-0.809 1.55,-1.766 1.941,-2.879 0.496,-1.067 0.664,-2.141 0.664,-3.274 0,-1.082 -0.242,-2.226 -0.683,-3.379 -0.442,-1.054 -1.164,-2.011 -1.973,-2.8 -0.828,-0.774 -1.816,-1.34 -2.883,-1.758 -1.055,-0.383 -2.156,-0.586 -3.418,-0.52 -1.25,0.051 -2.476,0.41 -3.887,0.977 -1.355,0.586 -2.507,1.301 -3.394,2.168 -0.859,0.879 -1.527,1.777 -1.965,2.851 -0.422,1.133 -0.598,2.18 -0.598,3.371 0,1.082 0.227,2.247 0.649,3.321 z m -7.61,3.347 c -0.808,-1.863 -1.281,-3.796 -1.457,-5.906 -0.164,-2.148 0.079,-4.23 0.747,-6.269 0.71,-2.063 1.89,-3.985 3.542,-5.813 1.719,-1.883 3.965,-3.406 6.79,-4.598 2.91,-1.281 5.535,-1.925 8.125,-1.886 2.363,0.051 4.578,0.558 6.523,1.465 1.91,0.89 3.609,2.168 4.988,3.711 1.375,1.632 2.442,3.312 3.172,5.148 0.82,1.746 1.328,3.738 1.582,5.828 0.195,2.063 0,4.16 -0.691,6.203 -0.684,2.071 -1.797,4.043 -3.418,5.809 -1.699,1.828 -3.965,3.359 -6.863,4.629 -2.833,1.23 -5.422,1.855 -7.981,1.836 -2.41,-0.02 -4.746,-0.477 -6.687,-1.395 -1.997,-0.93 -3.594,-2.16 -5.051,-3.711 -1.477,-1.543 -2.531,-3.254 -3.321,-5.051 z m -3.464,-42.683 -8.032,4.812 3.325,5.586 c 0.867,1.367 1.777,2.168 2.711,2.364 0.98,0.195 2.14,-0.079 3.644,-0.997 1.445,-0.847 2.285,-1.746 2.527,-2.793 0.176,-1.015 -0.117,-2.265 -1.05,-3.789 z m -15.996,-0.285 25.71,-15.399 c 0.567,-0.312 0.813,-0.636 0.813,-0.929 0,-0.352 -0.023,-0.528 -0.051,-0.672 l 0.813,-0.489 5.613,9.336 -0.789,0.535 c -0.246,-0.261 -0.488,-0.535 -0.813,-0.703 -0.273,-0.195 -0.683,-0.117 -1.23,0.168 l -8.34,5.028 3.645,6.132 c 0.808,1.387 1.421,2.747 1.914,4.161 0.449,1.386 0.613,2.754 0.449,4.132 -0.18,1.407 -0.715,2.782 -1.633,4.11 -0.93,1.301 -2.336,2.578 -4.277,3.762 -1.973,1.21 -3.821,1.875 -5.442,2.019 -1.57,0.129 -2.976,0 -4.226,-0.488 -1.281,-0.567 -2.489,-1.336 -3.496,-2.442 -0.965,-1.054 -1.895,-2.285 -2.754,-3.66 l -8.465,-14.277 0.777,-0.488 c 0.102,0.097 0.324,0.203 0.571,0.41 0.269,0.125 0.691,0.078 1.211,-0.246 z m 68.14,82.179 -28.57,9.168 c -0.547,0.188 -0.863,0.469 -0.91,0.84 -0.032,0.324 -0.032,0.793 0.07,1.262 l -0.891,0.312 -3.047,-10.605 0.86,-0.344 c 0.223,0.508 0.449,0.86 0.715,1.133 0.269,0.285 0.711,0.285 1.226,0.129 l 14.746,-4.805 c -2.089,-0.715 -15.261,-5.246 -16.441,-5.605 -1.137,-0.371 -1.621,-0.508 -1.801,-0.469 -0.633,0.098 -0.828,0.418 -0.926,0.711 -0.031,0.332 -0.078,0.656 -0.031,0.996 l -0.887,0.273 -5.07,-14.238 0.942,-0.273 c 0.242,0.429 0.437,0.812 0.664,1.054 0.242,0.235 0.664,0.274 1.179,0.129 l 28.543,-9.199 c 0.617,-0.176 0.891,-0.5 0.969,-0.82 0.02,-0.313 0.02,-0.735 -0.027,-1.153 l 0.886,-0.293 3.594,10.176 -0.918,0.313 c -0.168,-0.481 -0.39,-0.793 -0.637,-1.016 -0.242,-0.273 -0.64,-0.293 -1.211,-0.098 l -19.636,6.348 -0.098,0.176 c 3.027,0.859 13.938,4.695 16.27,5.516 2.187,0.753 4.187,1.445 5.632,1.914 1.477,0.449 2.512,0.636 2.981,0.488 0.391,-0.137 0.613,-0.41 0.598,-0.906 0,-0.45 -0.129,-0.852 -0.254,-1.164 l 0.886,-0.235 3.352,11.262 -0.941,0.262 c -0.196,-0.45 -0.465,-0.879 -0.68,-1.094 -0.227,-0.274 -0.598,-0.352 -1.137,-0.145 z M 607.285,91.3477 594.813,118.566 c -0.301,0.516 -0.301,0.887 0,1.2 0.199,0.293 0.519,0.586 0.98,0.832 l -0.395,0.847 -9.91,-4.922 0.364,-0.859 c 0.464,0.149 0.886,0.246 1.257,0.246 0.325,0 0.633,-0.285 0.911,-0.812 l 6.492,-14.168 c -1.992,1.093 -14.219,7.773 -15.282,8.379 -1.027,0.574 -1.425,0.82 -1.574,1.043 -0.293,0.429 -0.273,0.851 -0.051,1.144 0.227,0.254 0.454,0.488 0.696,0.613 l -0.403,0.871 -13.843,-5.898 0.437,-0.898 c 0.418,0.175 0.84,0.214 1.184,0.214 0.371,0 0.664,-0.253 0.933,-0.851 l 12.473,-27.215 c 0.254,-0.5195 0.254,-0.9101 0.051,-1.1836 -0.246,-0.3515 -0.52,-0.5351 -0.91,-0.7304 l 0.422,-0.8907 9.941,4.2305 -0.422,0.8672 c -0.422,-0.1562 -0.809,-0.2539 -1.184,-0.2539 -0.339,0.0781 -0.664,0.3711 -0.859,0.832 l -8.609,18.7774 0.093,0.2075 c 2.61,-1.6411 12.825,-7.0903 14.961,-8.2232 2.122,-1.1445 3.872,-2.0898 5.325,-2.8828 1.328,-0.7812 2.136,-1.4257 2.312,-1.8554 0.195,-0.3985 0.195,-0.7696 -0.176,-1.0157 -0.464,-0.3203 -0.757,-0.5156 -1.05,-0.6445 l 0.41,-0.9062 10.437,5.2539 -0.371,0.8672 c -0.515,-0.1563 -0.906,-0.2618 -1.277,-0.2618 -0.324,0 -0.649,0.293 -0.891,0.8282 z m 47.11,68.8473 -9.793,-7.656 0.535,-0.723 c 0.593,0.325 0.984,0.579 1.355,0.684 0.395,0.109 0.766,-0.105 1.137,-0.566 l 18.555,-23.524 c 0.339,-0.469 0.386,-0.812 0.211,-1.152 -0.145,-0.371 -0.516,-0.774 -0.973,-1.211 l 0.633,-0.762 9.824,7.684 -0.547,0.761 c -0.566,-0.359 -1.008,-0.554 -1.355,-0.664 -0.364,-0.097 -0.762,0.079 -1.157,0.528 l -18.504,23.496 c -0.421,0.449 -0.515,0.851 -0.293,1.223 0.149,0.371 0.489,0.742 0.938,1.171 z m -96.446,-55.547 -11.789,-4.187 0.317,-0.8985 c 0.64,0.1563 1.082,0.2344 1.484,0.1836 0.406,-0.0273 0.66,-0.3008 0.855,-0.8398 l 10.137,-28.25 c 0.195,-0.5665 0.195,-0.9883 -0.125,-1.211 -0.293,-0.293 -0.683,-0.5 -1.301,-0.7812 l 0.325,-0.9102 11.691,4.2383 -0.305,0.918 c -0.617,-0.2149 -1.086,-0.2618 -1.472,-0.2344 -0.442,0.0195 -0.688,0.3437 -0.891,0.8515 l -10.059,28.2307 c -0.195,0.519 -0.175,0.957 0.149,1.183 0.269,0.282 0.711,0.567 1.297,0.829 z m -52.179,-15.2925 -0.465,2.2656 c -0.957,-0.7109 -2.012,-1.5234 -2.95,-2.4609 -1.039,-0.9571 -1.875,-2.0899 -2.589,-3.2696 -0.618,-1.1914 -1.075,-2.5117 -1.348,-3.957 -0.293,-1.3867 -0.293,-2.957 0.02,-4.6367 0.371,-1.9649 1.035,-3.4571 2.148,-4.668 0.977,-1.2695 2.336,-1.7305 4.004,-1.4062 1.262,0.2421 2.246,0.9453 2.961,2.039 0.828,1.0938 1.035,2.4531 0.762,4.1602 -0.454,1.9844 -1.262,3.3203 -2.415,3.9648 -1.23,0.6836 -2.539,0.8203 -3.984,0.5664 -0.051,1.75 0.313,3.1953 1.082,4.4063 0.813,1.1797 1.738,2.2344 2.774,2.9961 z m 224.347,117.2855 -6.504,-8.309 -7.629,12.598 z m 11.758,-5.36 6.152,8.328 -0.808,0.606 c -0.149,-0.184 -0.371,-0.379 -0.649,-0.477 -0.261,-0.129 -0.484,-0.136 -0.73,-0.039 -1.406,0.489 -27.86,8.848 -29.16,9.227 -1.184,0.441 -1.992,0.762 -2.117,0.859 -0.344,0.293 -0.391,0.664 -0.129,1.113 l -0.735,0.618 -8.125,-10.364 0.793,-0.593 c 0.321,0.371 0.781,0.468 1.133,0.175 0.168,-0.175 0.859,-1.211 1.914,-2.882 1.133,-1.747 13.469,-21.465 15.574,-24.735 0.157,-0.207 0.227,-0.48 0.157,-0.773 -0.028,-0.281 -0.157,-0.555 -0.301,-0.711 l 0.742,-0.625 6.055,7.254 -0.711,0.566 c -0.102,-0.137 -0.227,-0.234 -0.403,-0.332 -0.168,-0.137 -0.41,-0.105 -0.714,0.098 -0.118,0.156 -0.34,0.383 -0.567,0.82 -0.262,0.41 -2.156,3.43 -2.43,3.801 l 9.082,11.512 c 0.372,-0.125 3.79,-1.18 4.231,-1.356 0.398,-0.168 0.738,-0.344 0.887,-0.43 0.293,-0.285 0.422,-0.449 0.293,-0.703 -0.071,-0.148 -0.196,-0.265 -0.274,-0.363 z m -113.074,-86.183 -9.016,-5.391 -2.676,14.531 z m 9.179,-9.227 8.661,5.633 -0.496,0.832 c -0.215,-0.156 -0.415,-0.254 -0.715,-0.254 -0.293,0 -0.535,0.098 -0.762,0.262 -1.082,0.937 -22.988,18.281 -23.945,19.14 -1.035,0.84 -1.575,1.329 -1.668,1.504 -0.278,0.41 -0.129,0.793 0.293,1.086 l -0.469,0.84 -11.32,-6.75 0.437,-0.801 c 0.52,0.235 0.844,0.137 1.086,-0.261 0.098,-0.235 0.449,-1.465 0.891,-3.469 0.386,-1.961 4.871,-24.8244 5.679,-28.6135 0.051,-0.3007 0,-0.6054 -0.191,-0.8086 -0.078,-0.2265 -0.273,-0.4218 -0.473,-0.5195 l 0.442,-0.8398 8.269,4.5312 -0.515,0.8125 c -0.098,-0.0508 -0.246,-0.1289 -0.469,-0.1953 -0.195,-0.0312 -0.391,0.0664 -0.586,0.3594 -0.125,0.2539 -0.195,0.5469 -0.32,1.0078 -0.051,0.4766 -0.664,3.9918 -0.793,4.4338 l 12.578,7.508 c 0.246,-0.235 3.152,-2.539 3.547,-2.852 0.32,-0.312 0.593,-0.555 0.711,-0.742 0.195,-0.32 0.222,-0.516 0.031,-0.672 -0.149,-0.148 -0.305,-0.234 -0.422,-0.352 z m -101.835,-31.5546 -10.09,-2.7539 1.347,14.7461 z m 6.328,-11.3359 9.91,3.0468 -0.195,0.8868 c -0.223,-0.0782 -0.516,-0.0782 -0.793,0 -0.29,0.0195 -0.489,0.1953 -0.582,0.4297 -0.891,1.1914 -17.305,23.8867 -18.04,24.9531 -0.761,1.0937 -1.164,1.6875 -1.21,1.8047 -0.168,0.4492 0.097,0.8398 0.593,1.0156 l -0.269,0.9101 -12.727,-3.4179 0.293,-0.9375 c 0.547,0.0859 0.867,-0.0977 0.969,-0.5586 0.098,-0.293 0.016,-1.375 -0.102,-3.4766 -0.152,-1.9726 -2.019,-25.2539 -2.246,-29.1875 0,-0.2734 -0.066,-0.4883 -0.293,-0.7226 -0.222,-0.1953 -0.468,-0.3047 -0.711,-0.4102 l 0.243,-0.9101 9.132,2.1406 -0.273,0.9375 c -0.098,-0.0313 -0.215,-0.0313 -0.41,-0.0508 -0.227,0 -0.403,0.1562 -0.496,0.5391 -0.024,0.2148 -0.024,0.5078 0,1.0234 0.078,0.4297 0.32,4.1328 0.32,4.543 l 14.148,3.8867 c 0.227,-0.3242 2.336,-3.3399 2.637,-3.7227 0.266,-0.4297 0.395,-0.7304 0.461,-0.9258 0.098,-0.371 0.027,-0.5976 -0.144,-0.6953 -0.149,-0.125 -0.317,-0.1953 -0.422,-0.1953 z m 171.57,105.3515 8.645,9.5 -0.668,0.664 c -0.204,-0.176 -0.497,-0.32 -0.77,-0.359 -0.266,-0.09 -0.637,-0.02 -1.184,0.086 l -20.836,5.773 c -0.031,1.16 -0.746,8.133 -0.89,9.863 -0.117,1.707 -0.164,3.309 -0.195,4.688 0,1.465 0.175,2.41 0.515,2.976 l -0.711,0.665 -8.469,-9.297 0.715,-0.614 c 0.243,0.164 0.567,0.34 0.91,0.496 0.372,0.137 0.743,0 1.18,-0.332 0.125,-0.125 0.227,-0.535 0.403,-1.289 0.093,-0.722 0.21,-1.629 0.359,-2.761 0.078,-1.184 0.84,-14.309 0.937,-15.215 l -10.476,10.117 c -0.422,0.34 -0.57,0.711 -0.422,1.102 0.176,0.402 0.391,0.761 0.613,1.132 l -0.691,0.657 -8.36,-8.274 0.665,-0.722 c 0.214,0.382 0.539,0.617 0.878,0.695 0.352,0.097 0.762,-0.051 1.18,-0.461 l 21.535,-20.906 c 0.418,-0.391 0.52,-0.782 0.418,-1.164 0,-0.411 -0.191,-0.653 -0.437,-0.899 l 0.633,-0.672 8.515,8.262 -0.68,0.672 c -0.277,-0.262 -0.695,-0.516 -1.066,-0.672 -0.391,-0.156 -0.73,-0.051 -1.199,0.379 l -4.602,4.453 -1.086,8.594 c 0.442,-0.125 12.5,-3.543 13.118,-3.739 0.683,-0.226 0.988,-0.402 1.132,-0.488 0.391,-0.429 0.52,-0.82 0.371,-1.211 -0.253,-0.449 -0.468,-0.812 -0.644,-1.015 z m -197.168,-66.125 1.477,-4.8632 11.816,3.5152 -1.438,4.903 z m 0.762,-2.4101 11.789,3.5231 m 288.496,429.844 2.976,0.801 c -1.113,1.484 -2.312,2.941 -3.742,4.308 -1.402,1.395 -2.976,2.567 -4.629,3.418 -1.699,0.926 -3.496,1.504 -5.457,1.836 -1.941,0.293 -3.996,0.164 -6.152,-0.449 -2.441,-0.715 -4.355,-1.867 -5.859,-3.527 -1.473,-1.641 -1.844,-3.692 -1.18,-6.102 0.516,-1.828 1.601,-3.273 3.223,-4.308 1.57,-1.036 3.445,-1.231 5.566,-0.645 2.574,0.723 4.18,2.012 4.871,3.859 0.664,1.883 0.731,3.856 0.149,6.036 2.183,0.195 4.16,-0.235 5.875,-1.328 1.718,-1.106 3.207,-2.403 4.359,-3.899 z m 0.984,-29.422 -3.691,18.035 -1.262,-0.242 c 0.18,-0.937 0.18,-1.672 0.129,-2.207 -0.129,-0.578 -0.547,-0.918 -1.277,-1.055 l -38.242,-8.085 c -0.747,-0.157 -1.262,0 -1.583,0.476 -0.214,0.481 -0.507,1.164 -0.761,2.063 l -1.235,-0.247 3.696,-18.093 1.211,0.273 c -0.149,0.906 -0.176,1.66 -0.051,2.227 0.066,0.566 0.488,0.937 1.25,1.082 l 38.191,8.027 c 0.742,0.176 1.262,0 1.582,-0.476 0.293,-0.469 0.586,-1.153 0.832,-2.004 z m -714.734,142.723 -9.6212,-15.711 1.1055,-0.617 c 0.4648,0.754 0.9648,1.289 1.4335,1.64 0.4102,0.344 0.9297,0.313 1.6211,-0.058 l 33.3981,-20.313 c 0.618,-0.371 0.879,-0.84 0.782,-1.386 -0.098,-0.536 -0.34,-1.27 -0.782,-2.118 l 1.075,-0.605 9.582,15.723 -1.02,0.644 c -0.562,-0.781 -1.055,-1.309 -1.492,-1.652 -0.449,-0.352 -0.969,-0.321 -1.633,0.051 l -33.387,20.261 c -0.617,0.403 -0.886,0.899 -0.808,1.446 0.094,0.539 0.387,1.261 0.777,2.07 z m 216.766,163.605 -17.481,-5.715 0.371,-1.179 c 0.906,0.242 1.68,0.34 2.235,0.312 0.5,-0.011 0.871,-0.422 1.183,-1.133 l 12.234,-37.148 c 0.247,-0.703 0.149,-1.223 -0.269,-1.562 -0.473,-0.391 -1.106,-0.762 -1.965,-1.086 l 0.359,-1.161 17.532,5.704 -0.418,1.152 c -0.969,-0.234 -1.653,-0.313 -2.141,-0.285 -0.644,0.019 -1.062,0.351 -1.289,1.086 l -12.18,37.117 c -0.222,0.723 -0.144,1.262 0.293,1.621 0.422,0.363 0.989,0.703 1.946,1.086 z m 484.531,-253.332 -6.199,17.375 -1.133,-0.39 c 0.242,-0.938 0.386,-1.653 0.386,-2.227 -0.046,-0.586 -0.386,-0.976 -1.05,-1.203 l -36.719,-13.328 c -0.695,-0.266 -1.203,-0.156 -1.574,0.242 -0.403,0.461 -0.813,1.106 -1.133,1.953 l -1.184,-0.437 6.157,-17.375 1.152,0.429 c -0.266,0.891 -0.371,1.653 -0.371,2.188 0.027,0.547 0.371,0.976 1.082,1.25 l 36.699,13.293 c 0.684,0.273 1.25,0.195 1.621,-0.254 0.418,-0.449 0.789,-1.094 1.106,-1.926 z m -72.207,129.707 -10.508,12.09 -0.984,-0.75 c 0.171,-0.254 0.273,-0.519 0.32,-0.851 0.051,-0.321 -0.125,-0.692 -0.488,-1.114 -0.274,-0.293 -23.653,-32.488 -23.899,-32.656 -0.594,-0.418 -1.875,-0.379 -3.008,0.793 l -1.035,-0.715 12.434,-14.793 0.984,0.711 c -0.39,0.637 -0.562,1.203 -0.711,1.653 -0.176,0.476 -0.078,0.859 0.274,1.062 0.246,0.227 1.004,0.566 2.16,1.016 1.179,0.429 18.504,6.367 19.91,6.867 1.309,0.496 2.219,0.867 2.734,1.082 l 0.098,-0.145 c -0.32,-0.422 -0.938,-1.242 -1.746,-2.414 -0.813,-1.16 -11.176,-16.394 -11.914,-17.41 -0.715,-1.066 -1.281,-1.719 -1.555,-1.926 -0.535,-0.379 -1.492,0.039 -2.707,1.379 l -0.984,-0.773 11.203,-16.024 0.984,0.743 c -0.906,1.503 -0.5,2.664 0.149,3.164 0.172,0.117 35.41,13.64 36.023,13.886 0.789,0.243 1.375,0.43 1.926,0.535 0.586,0.09 1.133,-0.164 1.797,-0.781 l 0.984,0.762 -8.301,12.648 -1.007,-0.754 c 0.441,-0.507 0.668,-1.023 0.863,-1.648 0.097,-0.547 -0.117,-1.086 -0.688,-1.543 -0.371,-0.254 -23.875,-9.629 -24.539,-9.992 l -0.117,0.187 c 0.313,0.379 13.379,19.852 14.102,20.918 0.714,1.063 1.203,1.649 1.347,1.766 0.617,0.449 1.16,0.539 1.621,0.254 0.567,-0.274 1.016,-0.703 1.387,-1.192 l 0.957,0.762 -11.367,14.875 -0.918,-0.773 c 0.352,-0.418 0.547,-0.977 0.715,-1.524 0.152,-0.613 -0.07,-1.101 -0.637,-1.582 -0.371,-0.261 -1.086,-0.593 -2.285,-1.054 -1.184,-0.45 -22.891,-7.754 -23.555,-8.086 l -0.078,0.109 c 0.418,0.555 15.945,21.238 16.199,21.395 0.539,0.468 1.125,0.507 1.621,0.246 0.52,-0.325 0.942,-0.684 1.301,-1.133 z m 27.246,-94.695 -7.141,13.68 19.399,1.515 z m -12.547,-11.984 6.363,-14.473 1.114,0.539 c -0.172,0.34 -0.25,0.703 -0.301,1.121 -0.02,0.422 0.129,0.735 0.351,1.016 1.231,1.386 25.86,31.711 26.973,33.027 1.086,1.309 1.769,2.063 1.941,2.141 0.539,0.301 1.036,0.078 1.496,-0.578 l 1.036,0.558 -8.758,17.137 -1.059,-0.555 c 0.278,-0.773 0.196,-1.281 -0.32,-1.562 -0.344,-0.157 -1.77,-0.383 -4.402,-0.645 -2.739,-0.265 -34.778,-3.429 -39.844,-3.976 -0.371,-0.039 -0.688,0.031 -1.035,0.273 -0.293,0.274 -0.586,0.566 -0.735,0.891 l -1.086,-0.559 7.035,-12.351 1.083,0.574 c -0.071,0.156 -0.168,0.39 -0.215,0.695 -0.078,0.281 0.047,0.586 0.515,0.809 0.2,0.117 0.617,0.207 1.282,0.254 0.566,0.07 5.632,0.48 6.125,0.597 l 9.968,-19.152 c -0.351,-0.379 -3.769,-4.512 -4.16,-4.981 -0.422,-0.476 -0.762,-0.742 -0.957,-0.859 -0.469,-0.215 -0.769,-0.215 -0.937,0.039 -0.196,0.215 -0.403,0.442 -0.469,0.617 z m -65.473,118.808 -11.511,10.266 17.5,8.281 z m -7.578,-15.691 11.153,-11.223 0.832,0.899 c -0.293,0.214 -0.54,0.539 -0.711,0.918 -0.168,0.371 -0.168,0.722 -0.024,1.066 0.637,1.797 12.895,38.848 13.457,40.437 0.664,1.641 1.035,2.559 1.137,2.708 0.398,0.468 0.887,0.437 1.582,-0.04 l 0.777,0.907 -14.218,12.949 -0.79,-0.906 c 0.54,-0.586 0.586,-1.133 0.176,-1.563 -0.176,-0.293 -1.484,-1.008 -3.847,-2.168 -2.461,-1.23 -31.297,-15.566 -35.801,-17.871 -0.32,-0.168 -0.664,-0.207 -1.055,-0.078 -0.398,0.117 -0.723,0.273 -1.035,0.535 l -0.813,-0.926 11,-8.984 0.809,0.887 c -0.144,0.148 -0.32,0.343 -0.488,0.566 -0.196,0.266 -0.125,0.567 0.195,0.93 0.149,0.203 0.567,0.449 1.106,0.711 0.566,0.265 5.117,2.433 5.515,2.726 l 16.043,-14.336 c -0.191,-0.507 -1.844,-5.566 -2.039,-6.132 -0.226,-0.586 -0.5,-0.989 -0.644,-1.184 -0.325,-0.352 -0.618,-0.449 -0.887,-0.293 -0.219,0.148 -0.461,0.293 -0.586,0.383 z m -55.664,66.082 17.356,-10.926 -8.204,-13.125 c -0.41,-0.637 -0.925,-0.91 -1.425,-0.82 -0.52,0.086 -1.106,0.301 -1.746,0.644 l -0.664,-1.027 14.453,-10.066 0.613,1.035 c -0.613,0.429 -1.035,0.867 -1.309,1.316 -0.34,0.422 -0.273,0.988 0.098,1.641 l 20.77,33.125 c 0.39,0.644 0.839,0.918 1.41,0.82 0.457,-0.078 1.074,-0.281 1.797,-0.633 l 0.632,1.063 -14.519,10.078 -0.664,-1.063 c 0.562,-0.468 1.035,-0.879 1.277,-1.339 0.371,-0.418 0.352,-0.977 -0.066,-1.602 l -6.867,-11.152 -17.43,10.918 6.972,11.203 c 0.387,0.625 0.829,0.879 1.329,0.781 0.535,-0.07 1.129,-0.285 1.843,-0.606 l 0.567,1.024 -15.215,8.828 -0.684,-1.055 c 0.586,-0.449 1.082,-0.898 1.399,-1.328 0.269,-0.437 0.222,-0.965 -0.149,-1.59 l -20.644,-33.3 c -0.418,-0.657 -0.84,-0.911 -1.375,-0.821 -0.52,0.098 -1.133,0.313 -1.797,0.653 l -0.664,-1.063 15.203,-8.691 0.691,1.023 c -0.613,0.469 -1.062,0.918 -1.355,1.34 -0.274,0.43 -0.215,0.965 0.129,1.602 z m -74.832,58.183 -12.754,-37.019 c -0.265,-0.715 -0.683,-1.074 -1.199,-1.125 -0.551,-0.02 -1.184,0.059 -1.875,0.246 l -0.395,-1.145 16.758,-5.183 0.371,1.172 c -0.64,0.301 -1.226,0.652 -1.621,1.004 -0.418,0.324 -0.515,0.859 -0.254,1.593 l 4.563,13.133 16.094,-5.586 c 0.261,-0.105 0.617,-0.371 0.859,-0.769 0.273,-0.442 0.195,-1.125 -0.125,-2.102 l 1.082,-0.379 4.48,12.977 -1.113,0.351 c -0.308,-0.898 -0.68,-1.414 -1.07,-1.543 -0.449,-0.136 -0.891,-0.136 -1.211,-0.027 l -15.996,5.574 3.055,8.918 23.769,-8.254 c 0.293,-0.105 0.586,-0.351 0.891,-0.781 0.195,-0.41 0.164,-1.094 -0.176,-2.058 l 1.101,-0.383 4.532,13.105 -1.035,0.371 c -0.325,-0.898 -0.735,-1.445 -1.153,-1.59 -0.469,-0.128 -0.918,-0.128 -1.211,-0.011 l -38.066,13.332 -0.344,-1.164 c 0.734,-0.352 1.328,-0.692 1.789,-1.024 0.418,-0.39 0.52,-0.898 0.254,-1.633 z m -39.797,2.168 c 1.75,-0.281 3.371,-0.898 4.731,-1.718 1.375,-0.868 2.554,-1.914 3.543,-3.164 0.976,-1.27 1.574,-2.715 1.992,-4.297 0.293,-1.582 0.293,-3.328 0,-5.215 -0.418,-1.875 -0.988,-3.484 -1.945,-4.824 -0.934,-1.368 -2.047,-2.469 -3.395,-3.289 -1.359,-0.813 -2.832,-1.379 -4.406,-1.633 -1.629,-0.313 -3.25,-0.313 -5.071,0.058 -1.648,0.293 -3.218,0.911 -4.605,1.731 -1.43,0.879 -2.656,1.941 -3.566,3.183 -0.957,1.25 -1.622,2.665 -1.946,4.286 -0.386,1.582 -0.386,3.32 -0.047,5.195 0.371,1.887 1.036,3.508 1.914,4.883 0.918,1.347 2.051,2.402 3.379,3.242 1.375,0.832 2.852,1.367 4.453,1.672 1.668,0.273 3.321,0.273 4.969,-0.11 z M 506.66,820 c -2.883,0.5 -5.808,0.637 -8.84,0.305 -3.125,-0.325 -5.925,-1.192 -8.582,-2.59 -2.734,-1.406 -5.05,-3.406 -7.058,-6.004 -2.051,-2.617 -3.379,-5.891 -4.094,-9.895 -0.715,-3.984 -0.684,-7.527 0.195,-10.652 0.965,-3.137 2.395,-5.832 4.387,-8.078 2.039,-2.266 4.336,-4.023 7.039,-5.391 2.773,-1.336 5.586,-2.304 8.438,-2.859 2.851,-0.547 5.808,-0.676 8.835,-0.422 3.079,0.254 5.911,1.074 8.567,2.461 2.707,1.359 5.039,3.34 7.082,5.898 2,2.59 3.348,5.872 4.059,9.895 0.714,3.934 0.667,7.527 -0.243,10.684 -0.886,3.152 -2.336,5.859 -4.328,8.132 -2.019,2.286 -4.383,4.141 -7.066,5.586 -2.778,1.387 -5.539,2.375 -8.391,2.93 z m -84.465,-35.898 -0.679,13.605 14.39,26.348 c 0.199,0.457 0.586,0.73 1.106,0.906 0.547,0.168 0.984,0.234 1.281,0.266 l -0.051,1.257 -18.137,-0.234 0.051,-1.219 c 0.324,0.008 0.711,-0.031 1.231,-0.109 0.5,-0.067 0.808,-0.371 0.808,-0.945 0,-0.313 -0.386,-1.399 -1.05,-2.657 -0.665,-1.269 -6.079,-11.047 -6.332,-11.593 -1.004,1.328 -7.95,10.402 -8.614,11.3 -0.586,0.887 -0.906,1.797 -0.906,2.168 -0.02,0.528 0.176,0.828 0.742,0.957 0.469,0.118 0.93,0.203 1.348,0.223 l -0.07,1.211 -19.571,-1.738 0.051,-1.2 c 0.398,0 0.891,-0.05 1.453,-0.136 0.567,-0.11 1.008,-0.352 1.234,-0.742 l 18.68,-25.129 0.664,-13.153 c 0.02,-0.742 -0.195,-1.25 -0.594,-1.484 -0.468,-0.215 -0.878,-0.363 -1.332,-0.449 l 0.082,-1.211 16.336,0.801 -0.046,1.23 c -0.442,0.047 -0.911,0.176 -1.36,0.34 -0.39,0.187 -0.637,0.676 -0.715,1.387 z m -46.773,38.195 -38.195,-7.695 c -0.372,-0.09 -0.743,0 -1.164,0.175 -0.411,0.184 -0.68,0.75 -0.926,1.719 l -1.114,-0.215 2.957,-14.668 1.157,0.176 c -0.199,0.945 -0.149,1.621 0.176,1.934 0.308,0.351 0.613,0.566 0.972,0.664 l 13,2.597 6.153,-30.832 c 0.148,-0.73 0.031,-1.269 -0.391,-1.543 -0.402,-0.32 -0.859,-0.535 -1.309,-0.683 l 0.196,-1.219 16.418,3.328 -0.247,1.172 c -0.468,-0.039 -1.054,0.039 -1.503,0.129 -0.516,0.117 -0.86,0.516 -0.957,1.277 l -6.153,30.832 12.942,2.586 c 0.371,0.071 0.82,0.032 1.211,-0.195 0.418,-0.184 0.71,-0.711 0.906,-1.641 l 1.113,0.196 -3.008,14.699 -1.054,-0.215 c 0.168,-0.969 0.097,-1.613 -0.176,-1.965 -0.34,-0.332 -0.613,-0.535 -1.004,-0.613 z m -110.277,-66.484 2.16,-14.016 1.133,0.137 c 0.156,0.449 0.253,0.871 0.5,1.308 0.144,0.383 0.437,0.703 0.808,0.879 0.176,0.078 0.906,0.227 2.188,0.422 1.355,0.184 2.929,0.457 4.875,0.879 1.921,0.371 4.011,0.937 6.179,1.609 2.239,0.676 4.356,1.485 6.414,2.414 3.235,1.453 5.84,3.035 7.856,4.774 2.039,1.738 3.57,3.535 4.43,5.5 1.007,1.98 1.457,3.933 1.41,5.886 0,2.004 -0.403,3.86 -1.262,5.645 -1.184,2.766 -2.883,4.57 -4.922,5.48 -2.07,0.887 -4.277,1.25 -6.719,1.122 -2.382,-0.118 -4.941,-0.586 -7.48,-1.336 -2.488,-0.762 -4.895,-1.446 -7.11,-2.129 -2.199,-0.657 -4.089,-1.067 -5.585,-1.242 -1.536,-0.145 -2.657,0.371 -3.157,1.437 -0.437,1.055 -0.437,2.059 0.129,2.938 0.586,0.91 1.375,1.769 2.317,2.519 0.925,0.754 1.89,1.438 2.949,1.965 1.031,0.516 1.875,0.898 2.41,1.113 1.477,0.684 2.93,1.172 4.434,1.563 1.472,0.371 2.902,0.605 4.128,0.711 1.25,0.136 2.317,0.187 3.125,0.109 0.911,-0.07 1.411,-0.207 1.575,-0.43 0.05,-0.207 0.097,-0.39 0.144,-0.597 0.078,-0.223 0.102,-0.371 0.18,-0.508 l 1.355,-0.039 -0.273,14.035 -1.113,-0.07 c -0.149,-0.301 -0.243,-0.653 -0.41,-1.036 -0.176,-0.437 -0.469,-0.73 -0.938,-0.945 -0.52,-0.187 -1.277,-0.422 -2.441,-0.656 -1.106,-0.215 -2.508,-0.535 -4.153,-0.906 -1.597,-0.352 -3.426,-0.852 -5.34,-1.446 -1.945,-0.578 -3.964,-1.379 -5.886,-2.297 -3.489,-1.562 -6.172,-3.328 -8.164,-5.32 -2.024,-2.023 -3.403,-4.043 -4.258,-6.066 -0.844,-2.051 -1.211,-4.051 -1.137,-5.996 0.07,-1.973 0.488,-3.653 1.106,-5.067 1.211,-2.617 2.812,-4.328 4.824,-5.187 2.019,-0.809 4.238,-1.141 6.648,-0.957 2.461,0.148 4.895,0.625 7.453,1.437 2.539,0.762 4.856,1.485 7.11,2.156 2.148,0.665 4.011,1.055 5.617,1.165 1.601,0.105 2.637,-0.5 3.301,-1.739 0.359,-0.937 0.386,-1.797 0.066,-2.609 -0.344,-0.77 -0.906,-1.531 -1.621,-2.195 -0.664,-0.684 -1.426,-1.25 -2.336,-1.7 -0.867,-0.468 -1.531,-0.8 -2.051,-1.047 -1.668,-0.781 -3.543,-1.484 -5.601,-2.078 -2.09,-0.617 -4.035,-1.066 -5.942,-1.379 -1.914,-0.273 -3.465,-0.39 -4.761,-0.332 -1.387,0.059 -2.2,0.383 -2.446,1.028 -0.093,0.234 -0.175,0.437 -0.242,0.625 -0.051,0.156 -0.098,0.273 -0.144,0.418 z m -45.899,-17.735 -6.148,9.16 10.332,7.051 c 2.34,1.57 4.187,2.176 5.586,1.844 1.355,-0.36 2.488,-1.121 3.379,-2.442 1.023,-1.55 1.296,-3.007 0.875,-4.421 -0.438,-1.387 -1.446,-2.657 -3.094,-3.77 z m -19.117,7.188 21.851,-32.344 c 0.442,-0.656 0.493,-1.152 0.247,-1.582 -0.223,-0.442 -0.497,-0.774 -0.743,-1.016 l 0.664,-1.015 12.918,9.414 -0.679,0.976 c -0.598,-0.312 -1.164,-0.519 -1.633,-0.578 -0.52,-0.117 -0.93,0.149 -1.375,0.762 l -7.856,11.555 7.485,5.039 c 0.32,-0.266 10.293,-5.704 11.637,-6.465 1.281,-0.782 2.023,-1.301 2.218,-1.614 0.325,-0.429 0.325,-0.847 -0.066,-1.296 -0.277,-0.422 -0.617,-0.762 -1.067,-1.016 l 0.762,-0.996 16.465,10.293 -0.762,1.004 c -0.566,-0.371 -1.203,-0.567 -1.843,-0.567 -0.735,0.032 -1.379,0.168 -1.997,0.461 l -15.574,7.117 c 1.817,2.696 2.903,5.508 3.321,8.352 0.437,2.871 -0.418,5.828 -2.461,8.855 -2.578,3.938 -5.762,6.086 -9.344,6.536 -3.625,0.429 -7.387,-0.684 -11.25,-3.282 l -24.238,-17.207 0.664,-1.015 c 0.465,0.234 0.906,0.398 1.328,0.457 0.484,0.078 0.887,-0.203 1.328,-0.828 z m 3.492,-39.297 -19.266,-18.008 -6.816,7.371 12.715,11.914 c 0.32,0.246 0.644,0.383 1.16,0.402 0.488,0.02 1.035,-0.285 1.621,-0.988 l 0.86,0.754 -9.051,9.707 -0.789,-0.762 c 0.64,-0.714 0.933,-1.281 0.867,-1.769 -0.078,-0.496 -0.227,-0.84 -0.547,-1.094 l -12.695,-11.933 -5.664,6.105 19.738,18.516 c 0.32,0.261 0.711,0.418 1.18,0.418 0.449,0.058 1.113,-0.332 1.75,-1.094 l 0.808,0.773 -9.328,10.059 -0.809,-0.813 c 0.618,-0.672 0.989,-1.25 0.84,-1.699 -0.097,-0.449 -0.273,-0.808 -0.566,-1.055 l -30.598,-28.972 0.84,-0.899 c 0.617,0.43 1.106,0.75 1.621,0.965 0.571,0.188 1.086,0.02 1.582,-0.515 l 26.457,-28.477 c 0.442,-0.586 0.586,-1.074 0.313,-1.574 -0.215,-0.528 -0.52,-1.043 -0.977,-1.551 l 0.762,-0.871 29.902,28.672 c 0.586,0.508 0.977,0.832 1.328,0.957 0.34,0.117 0.977,-0.028 1.817,-0.516 l 0.715,0.625 -8.938,9.578 -0.781,-0.769 c 0.859,-1.485 0.859,-2.617 -0.051,-3.457 z m -92.281,-48.742 0.984,-0.77 c 0.149,0.203 0.293,0.391 0.489,0.555 0.148,0.136 0.39,0.324 0.886,0.402 0.317,0.039 1.43,-0.187 3.469,-0.879 1.973,-0.722 30.957,-11.445 32.832,-12.207 1.992,-0.742 3.191,-1.269 3.242,-1.301 0.449,-0.359 0.645,-0.8 0.613,-1.308 -0.046,-0.516 -0.21,-0.938 -0.535,-1.258 l 0.989,-0.754 12.046,15.449 -0.925,0.715 c -0.227,-0.371 -0.617,-0.605 -1.16,-0.781 -0.493,-0.149 -0.957,-0.07 -1.399,0.273 -0.129,0.106 -0.937,1.063 -1.926,2.684 -1.05,1.613 -19.636,32.062 -20.105,32.656 -0.149,0.215 -0.488,0.762 -0.391,1.211 0,0.402 0.196,0.774 0.469,1.184 l -0.984,0.789 -9.875,-11.707 1.015,-0.762 c 0.149,0.262 0.418,0.594 0.828,0.965 0.371,0.39 0.825,0.39 1.235,0.097 0.222,-0.144 0.816,-1.121 1.89,-2.89 1.086,-1.777 11.426,-18.887 12.676,-20.867 l -0.098,-0.129 c -0.464,0.195 -22.632,8.203 -23.796,8.683 -1.18,0.45 -1.817,0.723 -1.946,0.821 -0.437,0.34 -0.484,0.742 -0.164,1.25 0.313,0.527 0.586,0.918 0.813,1.211 l -0.957,0.742 z m 12.207,-61.317 -35.7345,15.848 c -0.6641,0.312 -0.9844,0.715 -0.9844,1.262 0,0.527 0.1446,1.179 0.3711,1.902 l -1.0664,0.48 -7.2851,-14.718 1.1328,-0.489 c 0.3515,0.664 0.7422,1.164 1.0625,1.535 0.4414,0.34 0.9804,0.372 1.6406,0.098 l 18.5864,-8.273 c -2.9302,-0.86 -5.7348,-1.746 -8.7114,-2.598 -2.9297,-0.906 -5.5859,-1.641 -7.918,-2.332 -2.4414,-0.723 -4.3867,-1.301 -5.9375,-1.68 -1.6211,-0.449 -2.1406,-0.656 -2.582,-0.578 -0.8398,0.09 -1.2266,0.832 -1.2578,1.34 0,0.496 0.0312,0.945 0.125,1.375 l -1.082,0.508 -8.2227,-20.555 1.1328,-0.5 c 0.3399,0.606 0.6953,1.094 1.0547,1.457 0.4492,0.391 0.9375,0.41 1.6328,0.098 l 35.6991,-15.899 c 0.664,-0.324 1.035,-0.703 1.035,-1.191 0,-0.547 -0.144,-1.074 -0.32,-1.672 l 1.16,-0.527 5.735,14.875 -1.133,0.496 c -0.371,-0.586 -0.696,-1.055 -1.055,-1.395 -0.371,-0.293 -0.984,-0.332 -1.633,-0.058 l -24.4334,10.859 -0.125,0.293 c 4.1094,0.977 8.1719,2.098 11.9453,3.32 3.8361,1.172 7.3981,2.247 10.5081,3.223 3.023,0.918 5.633,1.688 7.742,2.254 2.051,0.559 3.332,0.695 3.867,0.469 0.567,-0.242 0.762,-0.703 0.645,-1.317 -0.157,-0.656 -0.325,-1.203 -0.547,-1.672 l 1.164,-0.476 7.676,15.371 -1.164,0.469 c -0.313,-0.657 -0.684,-1.153 -1.133,-1.535 -0.391,-0.36 -0.926,-0.399 -1.59,-0.067 z M 51.5625,505.168 72.793,499.98 c 2.6367,-0.671 5.2422,-0.898 7.7851,-0.75 2.4766,0.098 4.8242,0.829 6.9336,2.032 2.1953,1.179 4.0625,3.015 5.711,5.496 1.6484,2.48 2.8789,5.695 3.8671,9.668 0.9297,3.996 1.25,7.394 0.9571,10.363 -0.2735,2.949 -1.1602,5.469 -2.3906,7.508 -1.4297,2.051 -3.1954,3.742 -5.2852,5.031 -2.2461,1.289 -4.582,2.274 -7.3164,2.918 L 61.8438,547.5 c -0.6641,0.188 -1.0821,0.547 -1.1797,1.152 -0.0508,0.52 0,1.172 0.0781,1.907 l -1.1602,0.293 -4.6015,-16.153 1.1328,-0.285 c 0.1484,0.285 0.3711,0.547 0.6328,0.871 0.3242,0.301 0.8242,0.391 1.5547,0.215 l 24.1719,-5.891 c 2.4296,-0.644 4.0312,-1.894 4.7265,-3.836 0.6836,-1.925 0.6836,-4.23 0.0196,-6.945 -0.6368,-2.695 -1.6719,-4.793 -3.1446,-6.152 -1.5351,-1.426 -3.5273,-1.805 -6.039,-1.192 l -24.1563,5.95 c -0.7422,0.164 -1.1836,0.468 -1.3086,0.898 -0.1484,0.371 -0.1758,0.75 -0.1484,1.063 l -1.2617,0.285 -3.1719,-16.387 1.164,-0.305 c 0.2618,0.715 0.5157,1.289 0.8594,1.739 0.2891,0.468 0.836,0.605 1.5508,0.441 z M 433.477,15.0117 c 230.711,0 418.378,188.0153 418.378,419.1483 0,231.192 -187.667,419.231 -418.378,419.231 C 202.766,853.391 15.0117,665.352 15.0117,434.16 15.0117,203.027 202.766,15.0117 433.477,15.0117 Z m 0,853.4263 c 238.957,0 433.386,-194.833 433.386,-434.278 C 866.863,194.758 672.434,0 433.477,0 194.492,0 0,194.758 0,434.16 0,673.605 194.492,868.438 433.477,868.438 Z M 754.309,434.121 c 0,-177.363 -143.547,-321.191 -320.637,-321.191 -177.07,0 -320.613,143.828 -320.613,321.191 0,177.383 143.543,321.192 320.613,321.192 177.09,0 320.637,-143.809 320.637,-321.192"
         style="fill:#ffffff;fill-opacity:1;fill-rule:nonzero;stroke:none"
         id="path14" /><path
         d="m 1042.76,679.863 c 0,37.727 0,44.504 -0.48,52.239 -0.49,8.23 -2.42,12.097 -10.4,13.789 -1.94,0.488 -6.05,0.73 -8.23,0.73 -0.96,0 -1.93,0.481 -1.93,1.445 0,1.457 1.21,1.934 3.87,1.934 10.88,0 25.64,-0.723 27.82,-0.723 2.18,0 16.68,0.723 23.94,0.723 2.66,0 3.86,-0.477 3.86,-1.934 0,-0.964 -0.97,-1.445 -1.92,-1.445 -1.7,0 -3.16,-0.242 -6.06,-0.73 -6.52,-0.969 -8.46,-5.325 -8.94,-13.789 -0.48,-7.735 -0.48,-14.512 -0.48,-52.239 v -33.855 c 0,-34.836 7.73,-49.824 18.13,-59.746 11.85,-11.125 22.74,-13.301 36.52,-13.301 14.75,0 29.27,7.012 37.98,17.41 11.12,13.789 14.02,34.348 14.02,59.258 v 30.234 c 0,37.727 0,44.504 -0.48,52.239 -0.48,8.23 -2.42,12.097 -10.4,13.789 -1.94,0.488 -6.05,0.73 -8.23,0.73 -0.96,0 -1.93,0.481 -1.93,1.445 0,1.457 1.21,1.934 3.88,1.934 10.87,0 24.17,-0.723 25.63,-0.723 1.7,0 13.06,0.723 20.31,0.723 2.67,0 3.88,-0.477 3.88,-1.934 0,-0.964 -0.97,-1.445 -1.94,-1.445 -1.69,0 -3.14,-0.242 -6.04,-0.73 -6.55,-1.446 -8.47,-5.325 -8.95,-13.789 -0.49,-7.735 -0.49,-14.512 -0.49,-52.239 v -25.879 c 0,-26.121 -2.9,-55.144 -22.25,-72.312 -17.41,-15.481 -35.55,-17.902 -49.83,-17.902 -8.21,0 -32.65,0.968 -49.81,17.168 -11.86,11.378 -21.05,28.3 -21.05,63.613 v 35.312"
         style="fill:#ffffff;fill-opacity:1;fill-rule:nonzero;stroke:none"
         id="path16" /><path
         d="m 1245.97,595.207 c 0.48,-16.926 2.42,-22.004 8.21,-23.457 3.88,-0.969 8.71,-1.211 10.64,-1.211 0.98,0 1.7,-0.723 1.7,-1.691 0,-1.211 -1.45,-1.688 -3.87,-1.688 -12.09,0 -20.56,0.723 -22.49,0.723 -1.94,0 -10.88,-0.723 -20.57,-0.723 -2.16,0 -3.38,0.235 -3.38,1.688 0,0.968 0.72,1.691 1.7,1.691 1.68,0 5.56,0.242 8.7,1.211 5.32,1.453 6.06,7.012 6.06,25.633 v 117.793 c 0,8.222 1.2,10.402 2.9,10.402 2.41,0 6.04,-4.113 8.22,-6.289 3.38,-3.391 34.34,-36.281 67.24,-70.137 21.04,-21.769 43.76,-46.203 50.3,-52.968 l -2.18,103.027 c -0.24,13.309 -1.44,17.898 -7.98,19.109 -3.87,0.723 -8.7,0.969 -10.4,0.969 -1.45,0 -1.69,1.211 -1.69,1.934 0,1.211 1.69,1.453 4.11,1.453 9.67,0 19.84,-0.488 22.25,-0.488 2.42,0 9.44,0.488 18.13,0.488 2.18,0 3.88,-0.242 3.88,-1.453 0,-0.723 -0.97,-1.934 -2.42,-1.934 -0.96,0 -2.66,0 -5.07,-0.488 -7.01,-1.446 -7.51,-5.559 -7.51,-17.891 l -0.48,-120.449 c 0,-13.547 -0.24,-14.758 -1.7,-14.758 -2.17,0 -4.35,1.692 -16.2,12.578 -2.18,1.934 -32.89,32.168 -55.38,55.625 -24.68,25.879 -48.62,51.035 -55.15,58.293 l 2.43,-96.992"
         style="fill:#ffffff;fill-opacity:1;fill-rule:nonzero;stroke:none"
         id="path18" /><path
         d="m 1456.43,626.895 c 0,-19.832 0,-36.036 0.96,-44.5 0.74,-6.047 1.46,-9.922 7.75,-10.879 3.13,-0.489 7.73,-0.977 9.66,-0.977 1.22,0 1.7,-0.969 1.7,-1.691 0,-0.965 -0.97,-1.688 -3.38,-1.688 -11.86,0 -25.64,0.723 -26.62,0.723 -1.2,0 -14.5,-0.723 -21.04,-0.723 -2.18,0 -3.38,0.477 -3.38,1.688 0,0.722 0.48,1.691 1.7,1.691 1.93,0 4.59,0.488 6.52,0.977 4.1,0.957 4.84,4.832 5.56,10.879 0.98,8.464 1.22,24.668 1.22,44.5 v 36.281 c 0,31.922 0,37.734 -0.49,44.258 -0.49,7.011 -2.19,10.156 -6.77,11.132 -2.43,0.477 -5.08,0.723 -6.54,0.723 -0.96,0 -1.68,0.965 -1.68,1.688 0,1.211 0.96,1.699 3.38,1.699 7.02,0 20.32,-0.488 21.52,-0.488 0.98,0 14.76,0.488 21.29,0.488 2.42,0 3.38,-0.488 3.38,-1.699 0,-0.723 -0.96,-1.688 -1.68,-1.688 -1.45,0 -2.91,0 -5.33,-0.488 -5.81,-1.211 -7.01,-4.102 -7.49,-11.367 -0.24,-6.524 -0.24,-12.336 -0.24,-44.258 v -36.281"
         style="fill:#ffffff;fill-opacity:1;fill-rule:nonzero;stroke:none"
         id="path20" /><path
         d="m 1585.84,594.004 c 12.34,27.57 40.16,97.715 44.76,112.461 0.95,3.144 1.93,6.055 1.93,7.746 0,1.687 -0.73,3.633 -2.91,4.355 -2.41,0.723 -4.83,0.723 -7.26,0.723 -1.21,0 -2.41,0.731 -2.41,1.688 0,1.211 1.46,1.699 4.84,1.699 8.46,0 18.13,-0.488 20.8,-0.488 1.21,0 10.41,0.488 16.69,0.488 2.17,0 3.38,-0.488 3.38,-1.453 0,-0.969 -0.72,-1.934 -2.42,-1.934 -1.45,0 -6.29,0 -10.15,-2.414 -2.9,-1.941 -6.29,-4.844 -11.85,-18.875 -2.42,-5.801 -12.82,-30.469 -23.71,-55.625 -13.06,-29.992 -22.49,-52.238 -27.33,-62.402 -5.81,-12.336 -7.02,-15.481 -9.19,-15.481 -2.42,0 -3.87,2.668 -7.97,12.578 l -52.25,126.016 c -4.83,11.613 -7.74,13.789 -14.75,15.48 -3.39,0.723 -7.02,0.723 -8.24,0.723 -1.2,0 -1.69,1.211 -1.69,1.934 0,1.211 2.18,1.453 5.57,1.453 10.17,0 22.25,-0.488 24.91,-0.488 2.17,0 11.61,0.488 19.83,0.488 3.87,0 5.81,-0.488 5.81,-1.453 0,-0.969 -0.73,-1.934 -2.18,-1.934 -2.41,0 -5.81,-0.246 -7.75,-0.969 -2.17,-0.965 -2.41,-2.175 -2.41,-3.621 0,-2.668 2.67,-8.957 5.8,-17.179 l 40.15,-103.516"
         style="fill:#ffffff;fill-opacity:1;fill-rule:nonzero;stroke:none"
         id="path22" /><path
         d="m 1702.45,663.176 c 0,31.922 0,37.734 -0.49,44.258 -0.48,7.011 -1.69,10.41 -8.7,11.367 -1.7,0.242 -5.32,0.488 -7.25,0.488 -0.74,0 -1.69,0.965 -1.69,1.688 0,1.211 0.95,1.699 3.39,1.699 9.66,0 23.44,-0.488 24.66,-0.488 1.46,0 45.95,-0.243 50.78,0 4.13,0.246 7.99,0.968 9.69,1.21 0.96,0.247 1.93,0.969 2.9,0.969 0.72,0 0.96,-0.969 0.96,-1.933 0,-1.457 -1.2,-3.868 -1.68,-9.68 -0.25,-1.934 -0.73,-11.121 -1.22,-13.543 -0.24,-0.969 -0.96,-2.18 -1.93,-2.18 -1.22,0 -1.7,0.969 -1.7,2.668 0,1.446 -0.24,4.832 -1.21,7.254 -1.45,3.391 -3.63,4.836 -15.23,6.289 -3.63,0.481 -28.3,0.723 -30.72,0.723 -0.97,0 -1.21,-0.723 -1.21,-2.176 v -55.871 c 0,-1.445 0,-2.176 1.21,-2.176 2.66,0 30.72,0 35.55,0.488 5.08,0.477 8.23,0.723 10.4,2.899 1.45,1.445 2.43,2.656 3.15,2.656 0.73,0 1.21,-0.476 1.21,-1.687 0,-1.211 -1.21,-4.59 -1.7,-11.368 -0.48,-4.113 -0.97,-11.847 -0.97,-13.3 0,-1.692 -0.48,-3.867 -1.92,-3.867 -0.98,0 -1.45,0.722 -1.45,1.921 0,1.946 0,4.114 -0.98,6.778 -0.72,2.902 -2.66,5.324 -10.89,6.289 -5.79,0.722 -28.53,0.969 -32.16,0.969 -1.21,0 -1.45,-0.723 -1.45,-1.457 v -17.168 c 0,-7.012 -0.24,-30.957 0,-35.067 0.49,-13.789 4.35,-16.445 25.4,-16.445 5.55,0 15.72,0 21.28,2.176 5.56,2.414 8.46,6.046 9.67,14.269 0.48,2.41 0.97,3.145 2.18,3.145 1.2,0 1.46,-1.692 1.46,-3.145 0,-1.457 -1.7,-15.48 -2.91,-19.836 -1.46,-5.32 -3.64,-5.32 -11.85,-5.32 -15.96,0 -28.3,0.488 -37,0.723 -8.96,0.488 -14.52,0.488 -17.66,0.488 -0.49,0 -4.6,0 -9.19,-0.246 -4.11,-0.242 -8.96,-0.477 -12.34,-0.477 -2.18,0 -3.39,0.477 -3.39,1.688 0,0.722 0.49,1.691 1.7,1.691 1.93,0 4.59,0.723 6.52,0.977 4.12,0.722 4.6,4.832 5.57,10.879 1.21,8.464 1.21,24.668 1.21,44.5 v 36.281"
         style="fill:#ffffff;fill-opacity:1;fill-rule:nonzero;stroke:none"
         id="path24" /><path
         d="m 1845.92,645.762 c 0,-1.211 0.48,-1.934 1.44,-2.664 3.15,-1.692 14.04,-3.145 23.46,-3.145 5.08,0 10.89,0.242 15.96,3.633 7.26,4.832 12.82,15.723 12.82,31.434 0,25.644 -14.02,40.402 -36.76,40.402 -6.3,0 -13.06,-0.723 -15.24,-1.211 -0.96,-0.488 -1.68,-1.211 -1.68,-2.422 z m -18.39,17.414 c 0,31.922 0,37.734 -0.49,44.258 -0.48,7.011 -1.69,10.41 -8.7,11.367 -1.7,0.242 -5.33,0.488 -7.26,0.488 -0.73,0 -1.7,0.965 -1.7,1.688 0,1.211 0.97,1.699 3.39,1.699 9.68,0 23.95,-0.488 25.16,-0.488 2.18,0 20.07,0.488 26.6,0.488 13.55,0 28.55,-1.211 39.67,-8.953 5.32,-3.868 14.76,-13.782 14.76,-28.059 0,-15.234 -6.29,-29.988 -26.13,-46.914 17.41,-21.777 32.17,-40.398 44.5,-53.211 11.36,-11.613 18.39,-13.547 23.71,-14.277 4.11,-0.723 6.28,-0.723 7.5,-0.723 1.21,0 1.94,-0.969 1.94,-1.691 0,-1.211 -1.22,-1.688 -5.09,-1.688 h -13.3 c -12.09,0 -17.42,1.211 -22.73,4.102 -9.2,4.843 -16.94,14.754 -29.04,30.234 -8.94,11.133 -18.38,24.434 -22.97,29.988 -0.97,0.969 -1.45,1.223 -2.9,1.223 l -27.09,0.477 c -0.96,0 -1.44,-0.477 -1.44,-1.7 v -4.832 c 0,-19.836 0,-35.793 0.96,-44.257 0.72,-6.047 1.93,-9.922 8.46,-10.879 2.9,-0.489 7.5,-0.977 9.44,-0.977 1.45,0 1.68,-0.969 1.68,-1.691 0,-0.965 -0.95,-1.688 -3.38,-1.688 -11.61,0 -25.15,0.723 -26.13,0.723 -0.23,0 -14.5,-0.723 -21.03,-0.723 -2.18,0 -3.39,0.477 -3.39,1.688 0,0.722 0.48,1.691 1.7,1.691 1.93,0 4.59,0.488 6.52,0.977 4.11,0.957 4.6,4.832 5.56,10.879 1.22,8.464 1.22,24.668 1.22,44.5 v 36.281"
         style="fill:#ffffff;fill-opacity:1;fill-rule:nonzero;stroke:none"
         id="path26" /><path
         d="m 1978.24,570.059 c -2.91,1.457 -3.14,2.179 -3.14,7.734 0,10.168 0.96,18.391 1.21,21.77 0,2.175 0.48,3.386 1.7,3.386 1.2,0 1.93,-0.722 1.93,-2.422 0,-1.687 0,-4.589 0.72,-7.488 3.38,-15 19.35,-20.324 33.62,-20.324 21.04,0 31.93,11.855 31.93,27.336 0,14.754 -7.99,21.765 -26.84,35.789 l -9.69,7.258 c -22.97,17.175 -30.47,29.754 -30.47,44.023 0,24.18 19.11,38.699 47.17,38.699 8.46,0 16.93,-1.211 22,-2.422 4.12,-0.964 5.8,-0.964 7.5,-0.964 1.69,0 2.18,-0.246 2.18,-1.457 0,-0.957 -0.97,-7.735 -0.97,-21.766 0,-3.137 -0.24,-4.59 -1.69,-4.59 -1.45,0 -1.7,0.965 -1.94,2.656 -0.24,2.422 -1.94,7.977 -3.14,10.157 -1.45,2.421 -8.46,10.156 -27.58,10.156 -15.47,0 -28.3,-7.735 -28.3,-22.246 0,-13.059 6.54,-20.559 27.58,-34.824 l 6.04,-4.122 c 25.89,-17.648 34.83,-31.925 34.83,-49.582 0,-12.089 -4.6,-25.144 -19.83,-35.066 -8.95,-5.812 -22.25,-7.258 -33.86,-7.258 -9.92,0 -22.25,1.446 -30.96,5.567"
         style="fill:#ffffff;fill-opacity:1;fill-rule:nonzero;stroke:none"
         id="path28" /><path
         d="m 2130.88,626.895 c 0,-19.832 0,-36.036 0.98,-44.5 0.72,-6.047 1.44,-9.922 7.73,-10.879 3.13,-0.489 7.74,-0.977 9.67,-0.977 1.21,0 1.7,-0.969 1.7,-1.691 0,-0.965 -0.97,-1.688 -3.39,-1.688 -11.86,0 -25.64,0.723 -26.61,0.723 -1.2,0 -14.5,-0.723 -21.04,-0.723 -2.18,0 -3.39,0.477 -3.39,1.688 0,0.722 0.48,1.691 1.7,1.691 1.94,0 4.59,0.488 6.53,0.977 4.12,0.957 4.83,4.832 5.56,10.879 0.97,8.464 1.21,24.668 1.21,44.5 v 36.281 c 0,31.922 0,37.734 -0.49,44.258 -0.47,7.011 -2.16,10.156 -6.76,11.132 -2.42,0.477 -5.09,0.723 -6.54,0.723 -0.95,0 -1.69,0.965 -1.69,1.688 0,1.211 0.96,1.699 3.39,1.699 7.02,0 20.32,-0.488 21.52,-0.488 0.97,0 14.75,0.488 21.29,0.488 2.42,0 3.38,-0.488 3.38,-1.699 0,-0.723 -0.96,-1.688 -1.68,-1.688 -1.46,0 -2.91,0 -5.33,-0.488 -5.81,-1.211 -7.02,-4.102 -7.5,-11.367 -0.24,-6.524 -0.24,-12.336 -0.24,-44.258 v -36.281"
         style="fill:#ffffff;fill-opacity:1;fill-rule:nonzero;stroke:none"
         id="path30" /><path
         d="m 2253.78,626.895 c 0,-19.832 0,-36.036 0.96,-44.5 0.72,-6.047 1.7,-9.922 8.23,-10.879 2.9,-0.489 7.74,-0.977 9.67,-0.977 1.45,0 1.69,-0.969 1.69,-1.691 0,-0.965 -0.96,-1.688 -3.38,-1.688 -11.61,0 -25.16,0.723 -26.36,0.723 -0.98,0 -15.73,-0.723 -22.01,-0.723 -2.41,0 -3.39,0.477 -3.39,1.688 0,0.722 0.48,1.445 1.69,1.445 1.94,0 4.35,0.488 6.3,0.969 4.34,0.976 5.55,5.086 6.29,11.133 0.95,8.464 0.95,24.668 0.95,44.5 v 86.347 l -30.71,-0.488 c -13.3,-0.234 -18.39,-1.688 -21.53,-6.524 -2.41,-3.632 -2.66,-5.085 -3.39,-6.531 -0.48,-1.699 -1.2,-1.933 -2.18,-1.933 -0.48,0 -1.44,0.476 -1.44,1.687 0,2.18 4.35,20.567 4.6,22.258 0.47,1.199 1.45,3.867 2.17,3.867 1.46,0 3.64,-1.691 9.43,-2.422 6.05,-0.722 14.27,-0.968 16.7,-0.968 h 80.3 c 7.01,0 11.84,0.488 15.23,0.968 3.14,0.489 5.08,0.965 6.04,0.965 0.98,0 0.98,-1.211 0.98,-2.41 0,-6.289 -0.74,-21.047 -0.74,-23.469 0,-1.687 -0.96,-2.656 -1.92,-2.656 -0.98,0 -1.46,0.723 -1.7,3.625 l -0.24,2.187 c -0.74,6.278 -5.33,10.879 -25.64,11.356 l -26.6,0.488 v -86.347"
         style="fill:#ffffff;fill-opacity:1;fill-rule:nonzero;stroke:none"
         id="path32" /><path
         d="m 2396.99,620.605 c 0,11.133 -1.45,15.235 -4.59,21.047 -1.7,3.145 -30.48,48.848 -37.72,59.746 -5.09,7.735 -10.17,12.325 -14.05,14.989 -3.13,1.933 -7.24,2.902 -8.94,2.902 -1.2,0 -2.18,0.965 -2.18,1.934 0,0.965 0.73,1.453 2.66,1.453 4.12,0 20.09,-0.488 21.05,-0.488 1.46,0 10.16,0.488 18.37,0.488 2.43,0 2.91,-0.488 2.91,-1.453 0,-0.723 -1.45,-1.457 -3.39,-2.18 -1.68,-0.723 -2.65,-1.688 -2.65,-3.387 0,-2.902 1.45,-5.312 2.9,-7.98 l 38.7,-64.09 c 4.35,8.699 30.96,52.723 34.82,59.5 2.67,4.59 3.64,7.98 3.64,10.637 0,2.898 -0.97,4.597 -3.39,5.32 -1.94,0.488 -3.15,1.457 -3.15,2.422 0,0.723 1.21,1.211 3.39,1.211 5.57,0 13.06,-0.488 14.76,-0.488 1.45,0 16.69,0.488 20.79,0.488 1.45,0 2.66,-0.488 2.66,-1.211 0,-0.965 -0.96,-2.176 -2.66,-2.176 -2.4,0 -6.54,-0.723 -9.91,-2.668 -4.12,-2.41 -6.05,-4.59 -10.65,-10.156 -7.01,-8.223 -37,-56.59 -41.36,-65.301 -3.63,-7.258 -2.65,-13.781 -2.65,-20.559 v -17.656 c 0,-3.386 0,-12.09 0.72,-20.554 0.48,-6.047 1.93,-9.922 8.22,-10.879 2.9,-0.489 7.75,-0.977 9.67,-0.977 1.22,0 1.7,-0.969 1.7,-1.691 0,-0.965 -1.2,-1.688 -3.38,-1.688 -11.85,0 -25.64,0.723 -26.85,0.723 -0.97,0 -14.51,-0.723 -20.8,-0.723 -2.42,0 -3.39,0.477 -3.39,1.688 0,0.722 0.49,1.691 1.7,1.691 1.93,0 4.35,0.488 6.28,0.977 4.36,0.957 5.82,4.832 6.29,10.879 0.48,8.464 0.48,17.168 0.48,20.554 v 17.656"
         style="fill:#ffffff;fill-opacity:1;fill-rule:nonzero;stroke:none"
         id="path34" /><path
         d="m 1111.21,364.367 c 0,-20.558 8.97,-36.289 31.21,-36.035 32.41,0 45.46,46.434 45.46,72.059 0,18.632 -9.67,36.047 -30.46,36.047 -33.63,0 -46.21,-45.235 -46.21,-72.071 z m -19.33,3.867 c 0,44.746 29.5,75.457 64.09,75.457 32.89,0 51.27,-19.355 51.27,-49.812 0,-35.324 -25.15,-73.535 -67.47,-72.813 -30.97,-0.234 -47.89,21.043 -47.89,47.168"
         style="fill:#ffffff;fill-opacity:1;fill-rule:nonzero;stroke:none"
         id="path36" /><path
         d="m 1306.9,435.773 -1.44,-8.468 h -30.71 l -10.65,-58.289 c -3.13,-17.403 -7.26,-32.403 -14.75,-48.614 -11.85,-25.879 -26.36,-44.257 -27.82,-44.504 -6.28,3.625 -6.04,4.602 -2.9,8.711 14.28,15.481 20.57,35.547 23.95,55.86 l 14.99,86.836 h -24.18 l 1.45,8.468 h 24.17 c 8.24,48.368 32.18,77.872 48.15,77.872 4.59,0 8.71,-3.625 8.46,-10.637 -0.25,-9.199 -4.84,-14.266 -7.74,-14.266 -4.6,0 -1.45,7.742 -9.92,7.742 -14.27,0 -15.96,-26.621 -21.77,-60.711 h 30.71"
         style="fill:#ffffff;fill-opacity:1;fill-rule:nonzero;stroke:none"
         id="path38" /><path
         d="m 1581.71,395.371 c 0,-23.211 0,-42.324 1.2,-52.48 0.73,-7.012 2.18,-12.332 9.44,-13.301 3.38,-0.477 8.71,-0.965 10.89,-0.965 1.46,0 1.94,-0.734 1.94,-1.457 0,-1.199 -1.22,-1.934 -3.88,-1.934 -13.3,0 -28.54,0.735 -29.75,0.735 -1.21,0 -16.44,-0.735 -23.71,-0.735 -2.65,0 -3.86,0.481 -3.86,1.934 0,0.723 0.48,1.457 1.94,1.457 2.18,0 5.08,0.488 7.25,0.965 4.84,0.969 6.05,6.289 7.02,13.301 1.21,10.156 1.21,29.269 1.21,52.48 v 25.402 c 0,0.977 -0.74,1.454 -1.46,1.454 h -102.55 c -0.72,0 -1.45,-0.235 -1.45,-1.454 v -25.402 c 0,-23.211 0,-42.324 1.21,-52.48 0.72,-7.012 2.18,-12.332 9.43,-13.301 3.39,-0.477 8.7,-0.965 10.88,-0.965 1.46,0 1.94,-0.734 1.94,-1.457 0,-1.199 -1.21,-1.934 -3.87,-1.934 -13.3,0 -28.54,0.735 -29.75,0.735 -1.21,0 -16.44,-0.735 -23.7,-0.735 -2.66,0 -3.87,0.481 -3.87,1.934 0,0.723 0.48,1.457 1.94,1.457 2.17,0 5.08,0.488 7.24,0.965 4.86,0.969 6.06,6.289 7.03,13.301 1.21,10.156 1.21,29.269 1.21,52.48 v 42.578 c 0,37.727 0,44.504 -0.48,52.246 -0.49,8.223 -2.43,12.082 -10.41,13.782 -1.94,0.476 -6.05,0.722 -8.23,0.722 -0.96,0 -1.92,0.489 -1.92,1.453 0,1.457 1.2,1.934 3.86,1.934 10.89,0 26.12,-0.723 27.33,-0.723 1.21,0 16.45,0.723 23.71,0.723 2.66,0 3.86,-0.477 3.86,-1.934 0,-0.964 -0.96,-1.453 -1.92,-1.453 -1.7,0 -3.16,-0.246 -6.05,-0.722 -6.53,-1.204 -8.47,-5.313 -8.95,-13.782 -0.49,-7.742 -0.49,-14.519 -0.49,-52.246 v -5.078 c 0,-1.211 0.73,-1.453 1.45,-1.453 h 102.55 c 0.72,0 1.46,0.242 1.46,1.453 v 5.078 c 0,37.727 0,44.504 -0.48,52.246 -0.5,8.223 -2.43,12.082 -10.4,13.782 -1.95,0.476 -6.06,0.722 -8.23,0.722 -0.96,0 -1.94,0.489 -1.94,1.453 0,1.457 1.21,1.934 3.87,1.934 10.89,0 26.12,-0.723 27.33,-0.723 1.21,0 16.45,0.723 23.7,0.723 2.66,0 3.87,-0.477 3.87,-1.934 0,-0.964 -0.96,-1.453 -1.93,-1.453 -1.69,0 -3.14,-0.246 -6.05,-0.722 -6.53,-1.204 -8.46,-5.313 -8.95,-13.782 -0.48,-7.742 -0.48,-14.519 -0.48,-52.246 v -42.578"
         style="fill:#ffffff;fill-opacity:1;fill-rule:nonzero;stroke:none"
         id="path40" /><path
         d="m 1721.07,391.035 c 0.97,0 0.97,0.481 0.73,1.438 l -21.05,56.355 c -1.2,3.145 -2.42,3.145 -3.62,0 l -19.84,-56.355 c -0.23,-0.957 0,-1.438 0.73,-1.438 z m -23.7,85.617 c 2.66,6.766 3.64,7.977 5.07,7.977 2.18,0 2.9,-2.899 5.08,-7.5 3.88,-8.699 37.98,-93.602 51.04,-124.793 7.74,-18.391 13.54,-21.055 18.14,-22.492 3.13,-0.977 6.29,-1.219 8.47,-1.219 1.21,0 2.65,-0.48 2.65,-1.691 0,-1.219 -2.41,-1.7 -4.83,-1.7 -3.16,0 -18.87,0 -33.61,0.481 -4.12,0.254 -7.51,0.254 -7.51,1.453 0,0.977 0.48,0.977 1.45,1.457 1.22,0.488 3.4,2.176 1.94,5.555 l -19.11,47.168 c -0.49,0.968 -0.72,1.222 -1.94,1.222 h -49.09 c -0.97,0 -1.69,-0.5 -2.18,-1.699 l -12.09,-32.891 c -1.94,-5.089 -3.14,-10.167 -3.14,-13.8 0,-4.102 3.62,-5.555 7.25,-5.555 h 1.93 c 1.7,0 2.18,-0.734 2.18,-1.691 0,-1.219 -1.21,-1.7 -3.15,-1.7 -5.07,0 -16.68,0.735 -19.1,0.735 -2.17,0 -12.82,-0.735 -21.53,-0.735 -2.65,0 -4.11,0.481 -4.11,1.7 0,0.957 0.98,1.691 1.94,1.691 1.45,0 4.59,0.242 6.28,0.488 9.68,1.211 13.79,8.457 17.9,18.867 l 50.07,128.672"
         style="fill:#ffffff;fill-opacity:1;fill-rule:nonzero;stroke:none"
         id="path42" /><path
         d="m 1944.36,355.715 h 0.95 c 5.33,16.933 24.44,76.426 31.94,102.793 2.17,7.742 2.41,10.156 2.41,12.812 0,3.633 -1.69,6.055 -11.36,6.055 -1.22,0 -1.94,1.199 -1.94,1.934 0,0.964 0.96,1.445 3.62,1.445 10.89,0 19.83,-0.481 21.77,-0.481 1.45,0 10.64,0.481 17.18,0.481 1.93,0 2.9,-0.481 2.9,-1.203 0,-0.977 -0.49,-2.176 -1.93,-2.176 -0.73,0 -4.85,-0.246 -7.26,-0.977 -6.29,-2.179 -9.67,-10.39 -13.79,-21.769 -9.43,-26.113 -30.47,-91.414 -38.94,-114.395 -5.55,-15.242 -6.78,-17.656 -9.19,-17.656 -2.18,0 -4.11,2.656 -7.01,10.645 l -41.6,112.461 c -7.27,-17.899 -36.05,-93.114 -43.78,-112.227 -3.63,-8.699 -5.09,-10.879 -7.5,-10.879 -2.18,0 -3.88,2.18 -8.21,16.211 l -37.75,121.895 c -3.38,10.879 -5.55,13.535 -11.12,15.48 -2.9,0.965 -8.22,1.211 -9.67,1.211 -0.97,0 -1.94,0.723 -1.94,1.934 0,0.964 1.44,1.445 3.39,1.445 11.12,0 22.98,-0.481 25.15,-0.481 1.94,0 11.61,0.481 22.25,0.481 2.9,0 3.88,-0.481 3.88,-1.445 0,-1.211 -1.22,-1.934 -2.18,-1.934 -1.7,0 -5.09,0 -7.49,-1.211 -1.46,-0.488 -2.91,-1.691 -2.91,-4.355 0,-2.657 1.69,-9.914 4.11,-19.102 3.38,-13.066 25.15,-88.527 27.81,-96.992 h 0.49 l 44.49,114.883 c 3.16,8.23 4.6,9.433 5.81,9.433 1.46,0 3.15,-2.656 5.81,-9.668 l 41.61,-114.648"
         style="fill:#ffffff;fill-opacity:1;fill-rule:nonzero;stroke:none"
         id="path44" /><path
         d="m 2094.35,391.035 c 0.97,0 0.97,0.481 0.72,1.438 l -21.04,56.355 c -1.21,3.145 -2.42,3.145 -3.63,0 l -19.83,-56.355 c -0.24,-0.957 0,-1.438 0.72,-1.438 z m -23.71,85.617 c 2.66,6.766 3.64,7.977 5.07,7.977 2.18,0 2.91,-2.899 5.09,-7.5 3.88,-8.699 37.97,-93.602 51.04,-124.793 7.74,-18.391 13.53,-21.055 18.14,-22.492 3.14,-0.977 6.28,-1.219 8.46,-1.219 1.21,0 2.66,-0.48 2.66,-1.691 0,-1.219 -2.41,-1.7 -4.84,-1.7 -3.14,0 -18.86,0 -33.61,0.481 -4.11,0.254 -7.51,0.254 -7.51,1.453 0,0.977 0.49,0.977 1.45,1.457 1.22,0.488 3.4,2.176 1.95,5.555 l -19.12,47.168 c -0.48,0.968 -0.72,1.222 -1.94,1.222 h -49.09 c -0.96,0 -1.69,-0.5 -2.18,-1.699 l -12.08,-32.891 c -1.94,-5.089 -3.15,-10.167 -3.15,-13.8 0,-4.102 3.63,-5.555 7.25,-5.555 h 1.94 c 1.7,0 2.17,-0.734 2.17,-1.691 0,-1.219 -1.2,-1.7 -3.14,-1.7 -5.07,0 -16.69,0.735 -19.11,0.735 -2.17,0 -12.81,-0.735 -21.53,-0.735 -2.65,0 -4.11,0.481 -4.11,1.7 0,0.957 0.98,1.691 1.94,1.691 1.45,0 4.6,0.242 6.29,0.488 9.68,1.211 13.79,8.457 17.9,18.867 l 50.06,128.672"
         style="fill:#ffffff;fill-opacity:1;fill-rule:nonzero;stroke:none"
         id="path46" /><path
         d="m 2215.55,384.98 c 0,-19.832 0,-36.042 0.97,-44.511 0.73,-6.035 1.45,-9.91 7.74,-10.879 3.13,-0.477 7.74,-0.965 9.67,-0.965 1.21,0 1.7,-0.957 1.7,-1.691 0,-0.965 -0.97,-1.7 -3.38,-1.7 -11.87,0 -25.65,0.735 -26.62,0.735 -1.21,0 -14.51,-0.735 -21.04,-0.735 -2.18,0 -3.39,0.481 -3.39,1.7 0,0.734 0.49,1.691 1.7,1.691 1.93,0 4.59,0.488 6.52,0.965 4.12,0.969 4.84,4.844 5.57,10.879 0.97,8.469 1.21,24.679 1.21,44.511 v 36.282 c 0,31.922 0,37.734 -0.49,44.265 -0.48,7.012 -2.17,10.149 -6.76,11.125 -2.43,0.477 -5.08,0.723 -6.54,0.723 -0.95,0 -1.69,0.957 -1.69,1.688 0,1.21 0.97,1.691 3.39,1.691 7.01,0 20.31,-0.481 21.52,-0.481 0.97,0 14.75,0.481 21.28,0.481 2.44,0 3.39,-0.481 3.39,-1.691 0,-0.731 -0.95,-1.688 -1.69,-1.688 -1.45,0 -2.9,0 -5.32,-0.488 -5.81,-1.211 -7.02,-4.114 -7.5,-11.36 -0.24,-6.531 -0.24,-12.343 -0.24,-44.265 V 384.98"
         style="fill:#ffffff;fill-opacity:1;fill-rule:nonzero;stroke:none"
         id="path48" /><path
         d="m 2291.28,469.629 c 1.93,-2.176 2.17,-2.899 2.17,-4.102 0,-0.73 -1.2,-1.453 -2.17,-1.453 -3.88,0 -13.07,2.899 -16.92,4.356 -2.91,1.433 -4.12,2.656 -4.12,6.289 0,17.156 12.33,37.48 20.8,47.644 0.97,1.446 1.93,1.926 3.13,1.926 0.5,0 1.22,-0.48 1.22,-1.203 0,-0.723 -0.24,-1.453 -0.97,-3.152 -3.63,-7.735 -7.98,-20.793 -7.98,-34.59 0,-7.492 3.14,-13.781 4.84,-15.715"
         style="fill:#ffffff;fill-opacity:1;fill-rule:nonzero;stroke:none"
         id="path50" /><path
         d="m 2369.89,384.98 c 0,-19.832 0,-36.042 0.98,-44.511 0.72,-6.035 1.45,-9.91 7.74,-10.879 3.14,-0.477 7.74,-0.965 9.67,-0.965 1.2,0 1.7,-0.957 1.7,-1.691 0,-0.965 -0.98,-1.7 -3.39,-1.7 -11.85,0 -25.64,0.735 -26.61,0.735 -1.21,0 -14.51,-0.735 -21.04,-0.735 -2.18,0 -3.38,0.481 -3.38,1.7 0,0.734 0.48,1.691 1.7,1.691 1.93,0 4.59,0.488 6.52,0.965 4.1,0.969 4.83,4.844 5.56,10.879 0.97,8.469 1.22,24.679 1.22,44.511 v 36.282 c 0,31.922 0,37.734 -0.5,44.265 -0.48,7.012 -2.18,10.149 -6.77,11.125 -2.42,0.477 -5.08,0.723 -6.53,0.723 -0.96,0 -1.68,0.957 -1.68,1.688 0,1.21 0.96,1.691 3.38,1.691 7.01,0 20.31,-0.481 21.52,-0.481 0.97,0 14.76,0.481 21.29,0.481 2.42,0 3.38,-0.481 3.38,-1.691 0,-0.731 -0.96,-1.688 -1.68,-1.688 -1.46,0 -2.91,0 -5.33,-0.488 -5.81,-1.211 -7.01,-4.114 -7.49,-11.36 -0.26,-6.531 -0.26,-12.343 -0.26,-44.265 V 384.98"
         style="fill:#ffffff;fill-opacity:1;fill-rule:nonzero;stroke:none"
         id="path52" /><path
         d="m 1452.37,65.0781 c -2.12,0.9102 -2.57,1.5157 -2.57,4.3867 0,6.9532 0.6,14.961 0.77,17.0782 0,1.9648 0.6,3.3203 1.66,3.3203 1.2,0 1.35,-1.211 1.35,-2.1172 0,-1.6602 0.45,-4.375 1.21,-6.6406 2.88,-9.5313 12.84,-12.7071 21.16,-12.7071 11.48,0 18.43,7.2657 18.43,16.3282 0,5.5859 -1.35,11.1914 -13.14,18.1444 l -7.71,4.524 c -15.72,9.218 -20.84,17.832 -20.84,29.16 0,15.73 15.1,25.84 33.53,25.84 8.61,0 15.42,-1.204 18.89,-2.11 1.21,-0.293 1.82,-0.754 1.82,-1.66 0,-1.66 -0.46,-5.285 -0.46,-15.41 0,-2.715 -0.59,-4.082 -1.66,-4.082 -0.9,0 -1.36,0.75 -1.36,2.265 0,1.211 -0.6,5.137 -3.47,8.465 -1.97,2.422 -6.2,6.035 -14.81,6.035 -9.53,0 -18.14,-4.98 -18.14,-13.738 0,-5.754 2.11,-10.273 14.05,-16.933 l 5.45,-3.02 c 17.52,-9.668 22.96,-19.5 22.96,-31.1211 0,-9.5312 -3.61,-17.2265 -13.29,-24.0351 -6.35,-4.5391 -15.12,-5.293 -22.22,-5.293 -7.7,0 -15.85,0.7539 -21.61,3.3203"
         style="fill:#ffffff;fill-opacity:1;fill-rule:nonzero;stroke:none"
         id="path54" /><path
         d="m 1563.17,96.8164 c 0,6.9536 -1.2,9.6676 -3,13.4496 -0.92,1.961 -19.06,30.234 -23.74,37.019 -3.32,4.688 -6.05,7.715 -8.62,9.074 -1.66,0.907 -3.92,1.661 -5.58,1.661 -1.06,0 -1.97,0.457 -1.97,1.367 0,0.898 0.91,1.199 2.57,1.199 2.27,0 12.25,-0.301 16.62,-0.301 2.87,0 9.08,0.301 15.11,0.301 1.21,0 1.97,-0.301 1.97,-1.199 0,-1.067 -0.9,-1.067 -3.02,-1.66 -1.06,-0.313 -1.81,-0.918 -1.81,-1.973 0,-1.055 0.6,-2.57 1.66,-4.375 2.41,-3.926 19.79,-34.004 22.06,-37.637 1.66,3.016 17.83,30.535 19.79,34.453 1.36,2.871 1.97,5.145 1.97,6.805 0,1.211 -0.61,2.414 -2.87,2.871 -1.2,0.293 -2.42,0.449 -2.42,1.516 0,0.898 0.76,1.199 2.27,1.199 4.38,0 9.07,-0.301 13,-0.301 2.86,0 11.64,0.301 14.21,0.301 1.5,0 2.41,-0.301 2.41,-1.055 0,-0.906 -1.06,-1.511 -2.57,-1.511 -1.36,0 -3.78,-0.606 -5.74,-1.516 -2.87,-1.356 -4.08,-2.559 -6.95,-6.043 -4.39,-5.129 -23.43,-35.656 -25.84,-41.094 -1.97,-4.687 -1.67,-8.613 -1.67,-12.8514 V 86.2422 c 0,-2.1094 0,-7.4024 0.31,-12.8438 0.3,-3.7773 1.51,-6.1992 5.44,-6.8046 1.96,-0.293 4.83,-0.4493 6.64,-0.4493 1.51,0 2.27,-0.7539 2.27,-1.3593 0,-0.9063 -1.05,-1.3672 -2.88,-1.3672 -8.3,0 -17.22,0.4609 -20.84,0.4609 -3.34,0 -12.24,-0.4609 -17.23,-0.4609 -1.82,0 -2.87,0.3125 -2.87,1.3672 0,0.6054 0.6,1.3593 2.11,1.3593 1.81,0 3.48,0.1563 4.69,0.4493 2.72,0.6054 3.78,3.0273 4.07,6.8046 0.45,5.4414 0.45,10.7344 0.45,12.8438 v 10.5742"
         style="fill:#ffffff;fill-opacity:1;fill-rule:nonzero;stroke:none"
         id="path56" /><path
         d="m 1638.35,65.0781 c -2.12,0.9102 -2.58,1.5157 -2.58,4.3867 0,6.9532 0.61,14.961 0.76,17.0782 0,1.9648 0.61,3.3203 1.67,3.3203 1.2,0 1.35,-1.211 1.35,-2.1172 0,-1.6602 0.46,-4.375 1.21,-6.6406 2.88,-9.5313 12.84,-12.7071 21.16,-12.7071 11.48,0 18.43,7.2657 18.43,16.3282 0,5.5859 -1.35,11.1914 -13.13,18.1444 l -7.72,4.524 c -15.71,9.218 -20.85,17.832 -20.85,29.16 0,15.73 15.11,25.84 33.55,25.84 8.61,0 15.42,-1.204 18.88,-2.11 1.21,-0.293 1.83,-0.754 1.83,-1.66 0,-1.66 -0.46,-5.285 -0.46,-15.41 0,-2.715 -0.6,-4.082 -1.66,-4.082 -0.91,0 -1.37,0.75 -1.37,2.265 0,1.211 -0.6,5.137 -3.46,8.465 -1.98,2.422 -6.2,6.035 -14.82,6.035 -9.53,0 -18.14,-4.98 -18.14,-13.738 0,-5.754 2.12,-10.273 14.05,-16.933 l 5.45,-3.02 c 17.53,-9.668 22.97,-19.5 22.97,-31.1211 0,-9.5312 -3.62,-17.2265 -13.29,-24.0351 -6.35,-4.5391 -15.13,-5.293 -22.23,-5.293 -7.69,0 -15.86,0.7539 -21.6,3.3203"
         style="fill:#ffffff;fill-opacity:1;fill-rule:nonzero;stroke:none"
         id="path58" /><path
         d="m 1752.47,152.727 -19.78,-0.442 c -7.72,-0.164 -10.89,-1.062 -12.85,-3.933 -1.36,-1.817 -1.97,-3.477 -2.27,-4.387 -0.3,-1.055 -0.61,-1.66 -1.51,-1.66 -0.9,0 -1.22,0.754 -1.22,2.121 0,2.109 2.57,14.5 2.88,15.566 0.3,1.66 0.76,2.403 1.52,2.403 1.05,0 2.41,-1.055 5.73,-1.497 3.94,-0.457 8.93,-0.613 13.3,-0.613 h 53.95 c 4.23,0 7.11,0.301 9.07,0.613 2.11,0.293 3.17,0.606 3.62,0.606 0.92,0 1.07,-0.77 1.07,-2.723 0,-2.715 -0.32,-12.246 -0.32,-15.566 -0.14,-1.367 -0.44,-2.121 -1.2,-2.121 -1.06,0 -1.35,0.605 -1.51,2.578 l -0.15,1.348 c -0.31,3.332 -3.78,7.265 -15.71,7.414 l -16.78,0.293 v -51.973 c 0,-11.7892 0.15,-21.9142 0.75,-27.5118 0.46,-3.6211 1.22,-6.043 5.15,-6.6484 1.81,-0.293 4.83,-0.4493 6.79,-0.4493 1.51,0 2.12,-0.7539 2.12,-1.3593 0,-0.9063 -1.06,-1.3672 -2.57,-1.3672 -8.76,0 -17.69,0.4609 -21.47,0.4609 -3,0 -12.08,-0.4609 -17.37,-0.4609 -1.66,0 -2.57,0.4609 -2.57,1.3672 0,0.6054 0.45,1.3593 2.11,1.3593 1.97,0 3.63,0.1563 4.7,0.4493 2.71,0.6054 3.47,3.0273 3.92,6.8046 0.6,5.4414 0.6,15.5664 0.6,27.3556 v 51.973"
         style="fill:#ffffff;fill-opacity:1;fill-rule:nonzero;stroke:none"
         id="path60" /><path
         d="m 1838.08,123.418 c 0,19.492 0,23.117 -0.16,27.187 -0.3,4.395 -1.51,5.754 -5.74,6.954 -1.06,0.312 -3.33,0.461 -5.29,0.461 -1.36,0 -2.27,0.457 -2.27,1.367 0,0.898 1.05,1.199 3.03,1.199 6.94,0 15.41,-0.301 19.19,-0.301 4.23,0 33.7,-0.148 36.26,0 2.43,0.156 4.54,0.613 5.6,0.762 0.75,0.144 1.51,0.605 2.11,0.605 0.75,0 0.9,-0.605 0.9,-1.211 0,-0.91 -0.74,-2.421 -1.06,-8.32 -0.14,-1.348 -0.44,-6.953 -0.75,-8.449 -0.14,-0.613 -0.45,-2.117 -1.51,-2.117 -0.91,0 -1.06,0.605 -1.06,1.66 0,0.898 -0.14,3.172 -0.89,4.676 -1.07,2.277 -2.12,4.082 -8.78,4.687 -2.26,0.313 -18.14,0.606 -20.85,0.606 -0.61,0 -0.9,-0.457 -0.9,-1.211 v -31.727 c 0,-0.762 0.14,-1.367 0.9,-1.367 3.02,0 20.25,0 23.28,0.301 3.17,0.304 5.12,0.605 6.35,1.972 1.04,0.899 1.5,1.661 2.1,1.661 0.61,0 1.06,-0.606 1.06,-1.368 0,-0.75 -0.3,-2.859 -1.06,-9.363 -0.3,-2.57 -0.6,-7.715 -0.6,-8.613 0,-1.055 -0.16,-2.871 -1.36,-2.871 -0.91,0 -1.21,0.449 -1.21,1.054 -0.16,1.368 -0.16,3.028 -0.45,4.688 -0.76,2.566 -2.42,4.531 -7.41,4.98 -2.42,0.313 -17.53,0.606 -20.85,0.606 -0.61,0 -0.75,-0.606 -0.75,-1.36 v -10.273 c 0,-4.375 -0.17,-15.2617 0,-19.043 0.29,-8.7578 4.37,-10.7305 17.98,-10.7305 3.47,0 9.06,0.1563 12.55,1.6602 3.32,1.5117 4.82,4.2383 5.73,9.5195 0.3,1.3672 0.6,1.9727 1.51,1.9727 1.06,0 1.2,-1.6602 1.2,-3.0274 0,-2.8711 -1.05,-11.6289 -1.8,-14.1992 -0.91,-3.3203 -2.11,-3.3203 -7.1,-3.3203 -9.98,0 -17.99,0.1484 -24.49,0.4414 -6.49,0.1641 -11.48,0.3125 -15.42,0.3125 -1.5,0 -4.38,-0.1484 -7.55,-0.1484 -3.18,-0.1641 -6.5,-0.3125 -9.21,-0.3125 -1.66,0 -2.58,0.4609 -2.58,1.3672 0,0.6054 0.46,1.3593 2.12,1.3593 1.97,0 3.48,0.1563 4.69,0.4493 2.72,0.6054 3.48,3.0273 3.92,6.8046 0.62,5.4414 0.62,15.5664 0.62,27.3556 v 22.664"
         style="fill:#ffffff;fill-opacity:1;fill-rule:nonzero;stroke:none"
         id="path62" /><path
         d="m 1937.71,160.137 c 0.29,2.109 1.51,3.32 2.57,3.32 1.35,0 2.26,-0.605 4.08,-4.07 l 35.66,-71.6409 35.66,72.5389 c 1.06,2.11 2.27,3.172 3.47,3.172 1.06,0 2.58,-1.355 3.03,-4.07 l 12.08,-79.3479 c 1.22,-8.0078 2.43,-11.4727 6.51,-12.6953 3.78,-1.043 5.9,-1.1993 7.56,-1.1993 1.2,0 2.11,-0.4609 2.11,-1.2109 0,-1.0547 -1.51,-1.5156 -3.48,-1.5156 -3.32,0 -22.21,0.6054 -27.5,0.9101 -3.17,0.1446 -3.92,0.75 -3.92,1.5117 0,0.6055 0.59,1.0665 1.49,1.3594 0.77,0.3008 1.07,1.8164 0.62,5.4375 l -7.41,55.6173 h -0.45 l -28.56,-57.422 c -3.03,-6.0468 -3.78,-7.2656 -5.29,-7.2656 -1.66,0 -3.18,2.5781 -5.3,6.5117 -3.17,5.8907 -13.75,25.5274 -15.25,29.1602 -1.05,2.4137 -8.93,18.5857 -13.3,27.4997 h -0.46 l -6.35,-50.1638 c -0.29,-2.2773 -0.46,-3.9375 -0.46,-6.0547 0,-2.414 1.83,-3.3203 4.1,-3.7812 2.26,-0.4375 3.47,-0.5938 4.68,-0.5938 1.2,0 2.12,-0.6054 2.12,-1.2109 0,-1.2031 -1.22,-1.5156 -3.18,-1.5156 -5.6,0 -11.64,0.4609 -14.04,0.4609 -2.58,0 -8.93,-0.4609 -13.16,-0.4609 -1.36,0 -2.41,0.3125 -2.41,1.5156 0,0.6055 0.74,1.2109 2.11,1.2109 1.06,0 1.96,0 4.07,0.3008 3.63,0.461 4.85,5.586 5.44,9.8164 l 13.16,83.8753"
         style="fill:#ffffff;fill-opacity:1;fill-rule:nonzero;stroke:none"
         id="path64" /><path
         d="M 1094.05,243.73 H 2395.56"
         style="fill:#ffffff;fill-opacity:1;fill-rule:nonzero;stroke:none"
         id="path66" /><path
         d="m 2443.05,459.785 h 2.93 c 3.22,0 6.15,1.231 6.15,4.445 0,2.274 -1.5,4.637 -6.33,4.637 -1.23,0 -2.09,-0.097 -2.75,-0.195 z m 0,-12.762 h -3.03 v 23.739 c 2.09,0.285 3.79,0.566 6.15,0.566 3.3,0 5.59,-0.762 6.99,-1.797 1.43,-1.043 2.19,-2.656 2.19,-4.824 0,-3.223 -2.19,-5.117 -4.65,-5.867 v -0.188 c 2.09,-0.379 3.52,-2.273 4.09,-5.769 0.56,-3.692 1.13,-5.11 1.6,-5.86 h -3.23 c -0.56,0.75 -1.23,2.918 -1.79,6.043 -0.67,3.215 -2.17,4.446 -5.49,4.446 h -2.83 z m 4.16,30.926 c -9.65,0 -17.41,-8.328 -17.41,-18.543 0,-10.41 7.76,-18.722 17.6,-18.722 9.65,-0.098 17.31,8.312 17.31,18.625 0,10.312 -7.66,18.64 -17.41,18.64 z m 0.09,2.649 c 11.55,0 20.73,-9.27 20.73,-21.192 0,-12.101 -9.18,-21.386 -20.82,-21.386 -11.55,0 -20.89,9.285 -20.89,21.386 0,11.922 9.34,21.192 20.89,21.192 h 0.09"
         style="fill:#ffffff;fill-opacity:1;fill-rule:nonzero;stroke:none"
         id="path68" /><path
         d="M 1029.2,249.27 V 238.195 H 2456.71 V 249.27 H 1029.2"
         style="fill:#ffffff;fill-opacity:1;fill-rule:nonzero;stroke:none"
         id="path70" /><path
         d="m 712.371,22.0039 -1.465,16.5117 c -0.136,1.4453 0,3.711 -0.066,5.6055 h -0.203 c -0.664,-1.9414 -1.465,-4.3242 -2.258,-6.2188 l -6.731,-15.6054 h -2.105 l -6.801,16.0937 c -0.664,1.5235 -1.465,3.836 -1.988,5.7305 h -0.195 c -0.079,-1.9414 0.054,-3.6602 -0.137,-5.6055 l -1.328,-16.5117 h -2.602 l 2.27,24.3359 h 3.179 l 6.86,-15.6562 c 0.664,-1.5313 1.187,-3.4258 1.929,-5.8008 h 0.137 c 0.586,2.3164 1.196,4.3281 1.86,5.8516 l 6.714,15.6054 h 3.262 l 2.324,-24.3359 z M 686.086,46.3398 V 44.25 h -9.238 V 22.0039 h -2.524 V 44.25 h -9.258 v 2.0898 h 21.02"
         style="fill:#ffffff;fill-opacity:1;fill-rule:nonzero;stroke:none"
         id="path72" /></g></g></svg>
