<svg enable-background="new 0 0 230 230" viewBox="0 0 230 230" xmlns="http://www.w3.org/2000/svg"><path d="m77.9 18.86s-8.65.03-8.62 8.67l.52 175.18s.03 8.65 8.67 8.62l73.64-.22s8.65-.03 8.62-8.67l-.52-175.18s-.03-8.65-8.67-8.62z" fill="#52c5b4"/><path d="m132.6 137.96c.7.52 1.49.74 2.36.65s1.57-.48 2.09-1.18l2.08-3.15c.52-.7.74-1.44.65-2.22s-.48-1.44-1.18-1.96l-18.62-13.55-.11-38.2c0-.87-.31-1.61-.92-2.22s-1.36-.91-2.23-.91l-3.66.01c-.87 0-1.61.31-2.22.92s-.91 1.35-.91 2.23l.12 41.86c0 1.05.44 1.83 1.32 2.35zm36.09-23.13c-.03-9.78-2.46-18.76-7.29-26.95s-11.4-14.67-19.69-19.45c-8.3-4.78-17.3-7.16-26.99-7.13-9.7.03-18.64 2.46-26.82 7.29-8.19 4.83-14.67 11.4-19.45 19.69-4.78 8.3-7.16 17.3-7.13 26.99s2.46 18.63 7.29 26.82 11.4 14.67 19.69 19.45c8.3 4.78 17.3 7.16 26.99 7.13 9.7-.03 18.64-2.46 26.82-7.29 8.19-4.83 14.67-11.4 19.45-19.69s7.15-17.25 7.13-26.86m-53.88-64.72c11.69-.03 22.51 2.85 32.47 8.67 9.96 5.81 17.87 13.68 23.75 23.61 5.87 9.92 8.82 20.73 8.86 32.42.03 11.69-2.85 22.51-8.67 32.47s-13.68 17.87-23.61 23.75c-9.92 5.87-20.73 8.82-32.42 8.86-11.69.03-22.51-2.85-32.47-8.67s-17.87-13.68-23.75-23.61c-5.87-9.92-8.82-20.73-8.86-32.42s2.85-22.51 8.67-32.47 13.68-17.87 23.61-23.75 20.73-8.83 32.42-8.86" fill="#231f20"/></svg>